<svg xmlns="http://www.w3.org/2000/svg" width="62" height="62" fill="none"><g clip-path="url(#a)"><path fill="url(#b)" d="m2.022 53.822-.836 1.749 5.244 5.242 1.748-.836q.236.104.471.196L9.292 62h7.415l.645-1.826q.235-.093.471-.196l1.748.836 5.244-5.242-.836-1.749q.103-.233.196-.471L26 52.708V47h18V19H16v15h2V21h24v24H25.171l-.998-.352a12 12 0 0 0-.196-.471l.836-1.749-5.244-5.242-1.748.836a12 12 0 0 0-.471-.196L16.708 36H9.292l-.645 1.826q-.236.093-.471.196l-1.746-.835-5.244 5.242.836 1.749q-.103.233-.196.471L0 45.292v7.416l1.826.644q.093.237.196.47M2 46.708l1.392-.491.157-.458c.132-.385.292-.771.477-1.146l.214-.436-.638-1.335L6.844 39.6l1.334.639.435-.214a10 10 0 0 1 1.146-.477l.458-.156.491-1.392h4.585l.491 1.393.458.156c.38.13.765.29 1.146.477l.435.214 1.334-.639 3.242 3.242-.638 1.335.214.436c.185.375.345.761.477 1.146l.157.458 1.391.49v4.584l-1.392.491-.157.458a10 10 0 0 1-.477 1.146l-.214.436.638 1.335-3.242 3.242-1.334-.639-.435.214a10 10 0 0 1-1.146.477l-.458.156L15.292 60h-4.585l-.491-1.393-.458-.156a10 10 0 0 1-1.146-.477l-.435-.214-1.334.639-3.242-3.242.638-1.335-.214-.436a10 10 0 0 1-.477-1.146l-.157-.458L2 51.292zm9.961 9.566-1.923-.549 4-14 1.923.549zm4.332-4.981L18.586 49l-2.293-2.293 1.414-1.414L21.414 49l-3.707 3.707zm-8 1.414L4.586 49l3.707-3.707 1.414 1.414L7.414 49l2.293 2.293zM58 16v.586l2.293-2.293 1.414 1.414L57 20.414l-4.707-4.707 1.414-1.414L56 16.586V16c0-7.72-6.28-14-14-14a13.99 13.99 0 0 0-12.119 7.003L30 9c13.233 0 24 10.767 24 24 0 9.83-5.943 18.294-14.422 22h18.008l-3.293-3.293 1.414-1.414L61.414 56l-5.707 5.707-1.414-1.414L57.586 57H27v-2h3c12.131 0 22-9.869 22-22s-9.869-22-22-22C18.739 11 9.432 19.507 8.155 30.431l3.138-3.138 1.414 1.414-5.79 5.79-4.698-5.873 1.562-1.249 2.37 2.963c1.24-11.185 10.195-20.078 21.41-21.215A15.99 15.99 0 0 1 42 0c8.822 0 16 7.178 16 16m-2 13h6v-6h-6zm2-4h2v2h-2zm-2 12h6v-6h-6zm2-4h2v2h-2zm-2 12h6v-6h-6zm2-4h2v2h-2zM22 23v2h-2v-2zm18 2H24v-2h16zm-14 4v-2h14v2zm-6-2h4v2h-4zm0 4h20v2H20zm20 12v-8H26v8zm-12-6h10v4H28z"/></g><defs><linearGradient id="b" x1="31" x2="31" y1="62" y2="0" gradientUnits="userSpaceOnUse"><stop stop-color="#6582FD"/><stop offset="1" stop-color="#E13E91"/></linearGradient><clipPath id="a"><path fill="#fff" d="M0 0h62v62H0z"/></clipPath></defs></svg>