<svg width="62" height="62" fill="none"><g clip-path="url(#a)"><path fill="url(#b)" d="M44.563 6.781c-5.876 0-10.657 4.781-10.657 10.657 0 5.875 4.781 10.656 10.657 10.656 5.875 0 10.656-4.781 10.656-10.657 0-5.875-4.781-10.656-10.657-10.656m0 19.375c-4.807 0-8.72-3.912-8.72-8.718 0-4.807 3.913-8.72 8.72-8.72 4.806 0 8.718 3.913 8.718 8.72 0 4.806-3.912 8.718-8.718 8.718m12.93-15.34 1.27-2.47-5.109-5.108-2.47 1.27a14.5 14.5 0 0 0-2.158-.89l-.851-2.65h-7.226l-.849 2.65c-.747.24-1.471.538-2.159.89l-2.47-1.271-5.108 5.109 1.187 2.31H3.875a2.91 2.91 0 0 0-2.906 2.906V54.25a2.91 2.91 0 0 0 2.906 2.906h34.57c1.09 2.288 3.42 3.875 6.118 3.875a6.79 6.79 0 0 0 6.78-6.781c0-3.409-2.53-6.231-5.812-6.704V35.844h-1.937v11.702c-3.281.473-5.813 3.295-5.813 6.704 0 .33.032.651.078.969H3.875a.97.97 0 0 1-.969-.969V24.219h28.645l-1.188 2.31 5.109 5.108 2.47-1.27c.687.351 1.41.65 2.158.89l.85 2.65h7.226l.849-2.65c.747-.24 1.471-.538 2.159-.89l2.47 1.271 5.108-5.109-1.27-2.468c.351-.687.649-1.41.89-2.16l2.65-.851v-7.226l-2.65-.849a14.6 14.6 0 0 0-.89-2.159m-12.93 38.59a4.85 4.85 0 0 1 4.843 4.844 4.85 4.85 0 0 1-4.843 4.844 4.85 4.85 0 0 1-4.844-4.844 4.85 4.85 0 0 1 4.843-4.844M2.906 13.563a.97.97 0 0 1 .969-.97h27.008c-.046.129-.098.253-.14.382l-2.65.85v7.226l2.65.849c.041.13.094.253.139.381H2.906zm56.188 6.074-2.283.732-.141.5c-.27.958-.646 1.869-1.117 2.708l-.255.455 1.095 2.126-3.11 3.11-2.127-1.093-.454.254a12.5 12.5 0 0 1-2.708 1.117l-.501.141-.73 2.282h-4.4l-.731-2.283-.5-.141a12.6 12.6 0 0 1-2.71-1.117l-.453-.254-2.126 1.094-3.11-3.11 1.094-2.127-.255-.454c-.47-.84-.847-1.752-1.117-2.708l-.141-.501-2.283-.73v-4.4l2.283-.731.141-.5c.27-.956.646-1.868 1.117-2.71l.254-.453-1.094-2.126 3.11-3.11L37.97 6.7l.454-.254A12.5 12.5 0 0 1 41.13 5.33l.501-.141.73-2.283h4.4l.731 2.283.5.141c.956.27 1.868.646 2.71 1.117l.453.254 2.126-1.094 3.11 3.11-1.093 2.127.254.454c.47.841.848 1.753 1.117 2.708l.141.501 2.283.73zm-10.85-6.656 3.342 4.457-3.342 4.456-1.55-1.163 2.47-3.294-2.47-3.293zm-5.813 1.163-2.47 3.294 2.47 3.293-1.55 1.163-3.342-4.456 3.342-4.457zm2.141-3.625 1.917.274-1.937 13.562-1.917-.274zM16.47 14.53H6.78a1.94 1.94 0 0 0-1.937 1.938v1.937a1.94 1.94 0 0 0 1.937 1.938h9.688a1.94 1.94 0 0 0 1.937-1.938V16.47a1.94 1.94 0 0 0-1.937-1.938m-3.875 1.938v1.937h-1.938V16.47zm-5.813 0h1.94v1.937H6.78zm7.75 1.937V16.47h1.938v1.937zm30.032 38.75a2.91 2.91 0 0 0 2.906-2.906 2.91 2.91 0 0 0-2.907-2.906 2.91 2.91 0 0 0-2.906 2.906 2.91 2.91 0 0 0 2.907 2.906m0-3.875a.97.97 0 0 1 .968.969.97.97 0 0 1-.968.969.97.97 0 0 1-.97-.969.97.97 0 0 1 .97-.969m6.78-20.343v8.15l3.876 3.876v2.683a2.9 2.9 0 0 0-1.938 2.728 2.91 2.91 0 0 0 2.907 2.906 2.91 2.91 0 0 0 2.906-2.906 2.9 2.9 0 0 0-1.938-2.728v-3.486l-3.875-3.875v-7.349zm4.844 18.406a.97.97 0 0 1-.968-.969.97.97 0 0 1 .968-.969.97.97 0 0 1 .97.969.97.97 0 0 1-.97.969M37.782 41.089v-8.151h-1.937v7.348l-3.875 3.875v3.486a2.9 2.9 0 0 0-1.938 2.728 2.91 2.91 0 0 0 2.907 2.906 2.91 2.91 0 0 0 2.906-2.906 2.9 2.9 0 0 0-1.938-2.728v-2.683zm-4.843 10.255a.97.97 0 0 1-.97-.969.97.97 0 0 1 .97-.969.97.97 0 0 1 .968.969.97.97 0 0 1-.968.969M8.718 29.063c0 .746-.29 1.422-.755 1.937.464.515.756 1.19.756 1.938a.97.97 0 0 0 .969.968h.968v1.938h-.969a2.91 2.91 0 0 1-2.906-2.907.97.97 0 0 0-.968-.968h-.97V30.03h.97a.97.97 0 0 0 .968-.968 2.91 2.91 0 0 1 2.907-2.907h.968v1.938h-.969a.97.97 0 0 0-.968.968m15.5-.97H12.595v-1.937H24.22zm-11.624 1.938H24.22v1.938H12.594zm9.687 5.813v-1.938h1.938v1.938zm-9.687-1.938h7.75v1.938h-7.75zm10.655 17.44h-.969v-1.938h.969a.97.97 0 0 0 .969-.968c0-.747.291-1.423.755-1.938a2.88 2.88 0 0 1-.755-1.937.97.97 0 0 0-.969-.97h-.969v-1.937h.969a2.91 2.91 0 0 1 2.906 2.907.97.97 0 0 0 .969.968h.969v1.938h-.969a.97.97 0 0 0-.969.968 2.91 2.91 0 0 1-2.906 2.907M8.719 49.406h11.625v1.938H8.719zm11.625-1.937h-7.75V45.53h7.75zm-9.688-1.938v1.938H8.72V45.53zm9.688-1.937H8.719v-1.938h11.625zm3.875-3.875H4.844V37.78h19.375z"/></g><defs><linearGradient id="b" x1="31" x2="31" y1="61.031" y2=".969" gradientUnits="userSpaceOnUse"><stop stop-color="#6582FD"/><stop offset="1" stop-color="#E13E91"/></linearGradient><clipPath id="a"><path fill="#fff" d="M0 0h62v62H0z"/></clipPath></defs></svg>