<svg width="62" height="62" fill="none"><g clip-path="url(#a)"><path fill="url(#b)" d="m5.673 49.85-1.902 3.203 5.176 5.176 3.203-1.902c.84.444 1.727.81 2.645 1.093l.921 3.611h7.319l.92-3.612c.918-.283 1.804-.65 2.645-1.093l3.203 1.902 5.176-5.176-1.902-3.203c.444-.84.81-1.727 1.093-2.645l3.611-.92v-7.319l-3.612-.92a15.4 15.4 0 0 0-1.093-2.645l1.902-3.203-5.176-5.176-3.203 1.902c-.84-.444-1.727-.81-2.645-1.093l-.92-3.611h-7.319l-.92 3.612c-.918.283-1.804.65-2.645 1.093l-3.203-1.902-5.176 5.176 1.902 3.203c-.444.84-.81 1.727-1.093 2.645l-3.611.92v7.319l3.612.92a15.4 15.4 0 0 0 1.092 2.645m-2.767-9.38 3.24-.826.147-.546a13.4 13.4 0 0 1 1.336-3.233l.283-.491-1.705-2.873 3.046-3.046 2.873 1.705.491-.283a13.5 13.5 0 0 1 3.233-1.336l.546-.147.825-3.239h4.307l.826 3.24.546.147a13.4 13.4 0 0 1 3.233 1.336l.491.283 2.874-1.705 3.045 3.045-1.705 2.874.283.491a13.5 13.5 0 0 1 1.336 3.233l.147.546 3.24.825v4.307l-3.24.826-.147.546a13.4 13.4 0 0 1-1.336 3.233l-.283.491 1.705 2.874-3.046 3.045-2.873-1.705-.491.283a13.5 13.5 0 0 1-3.233 1.336l-.546.147-.825 3.24h-4.307l-.826-3.24-.546-.147a13.4 13.4 0 0 1-3.233-1.336l-.491-.283-2.873 1.705-3.046-3.045 1.705-2.874-.283-.491a13.4 13.4 0 0 1-1.336-3.233l-.147-.546-3.24-.825zm16.469 13.78C25.785 54.25 31 49.035 31 42.625S25.785 31 19.375 31 7.75 36.215 7.75 42.625 12.965 54.25 19.375 54.25m0-21.312c5.342 0 9.688 4.345 9.688 9.687s-4.346 9.688-9.688 9.688-9.687-4.346-9.687-9.688 4.345-9.687 9.687-9.687m0 15.5a5.82 5.82 0 0 0 5.813-5.813 5.82 5.82 0 0 0-5.813-5.812 5.82 5.82 0 0 0-5.812 5.812 5.82 5.82 0 0 0 5.812 5.813m0-9.688a3.88 3.88 0 0 1 3.875 3.875 3.88 3.88 0 0 1-3.875 3.875 3.88 3.88 0 0 1-3.875-3.875 3.88 3.88 0 0 1 3.875-3.875m38.75-30.031h-23.25a2.91 2.91 0 0 0-2.906 2.906v13.563a2.91 2.91 0 0 0 2.906 2.906h1.938v4.473l8.947-4.473h12.365a2.91 2.91 0 0 0 2.906-2.907V11.626a2.91 2.91 0 0 0-2.906-2.906m.969 16.469a.97.97 0 0 1-.969.968H45.303l-6.553 3.277v-3.277h-3.875a.97.97 0 0 1-.969-.968V11.625a.97.97 0 0 1 .969-.969h23.25a.97.97 0 0 1 .969.969zM3.875 18.406h9.42l6.08 3.65v-3.65h7.75a2.91 2.91 0 0 0 2.906-2.906V3.875A2.91 2.91 0 0 0 27.125.969H3.875A2.91 2.91 0 0 0 .969 3.875V15.5a2.91 2.91 0 0 0 2.906 2.906M2.906 3.875a.97.97 0 0 1 .969-.969h23.25a.97.97 0 0 1 .969.969V15.5a.97.97 0 0 1-.969.969h-9.687v2.163l-3.607-2.163H3.875a.97.97 0 0 1-.969-.969zm52.313 8.719h1.937v11.625H37.781V22.28h1.938v-3.875h1.937v3.875h1.938v-5.81h1.937v5.812h1.938v-9.687h1.937v9.687h1.938v-7.75h1.937v7.75h1.938zm-47.469 0a2.91 2.91 0 0 0 2.906-2.906A2.91 2.91 0 0 0 7.75 6.78a2.91 2.91 0 0 0-2.906 2.907 2.91 2.91 0 0 0 2.906 2.906m0-3.875a.97.97 0 1 1 0 1.938.97.97 0 0 1 0-1.938m7.75 3.875a2.91 2.91 0 0 0 2.906-2.906A2.91 2.91 0 0 0 15.5 6.78a2.91 2.91 0 0 0-2.906 2.907 2.91 2.91 0 0 0 2.906 2.906m0-3.875a.97.97 0 1 1 0 1.938.97.97 0 0 1 0-1.938m7.75 3.875a2.91 2.91 0 0 0 2.906-2.906A2.91 2.91 0 0 0 23.25 6.78a2.91 2.91 0 0 0-2.906 2.907 2.91 2.91 0 0 0 2.906 2.906m0-3.875a.97.97 0 1 1 0 1.938.97.97 0 0 1 0-1.938m27.125 31c-1.895 0-3.75.507-5.39 1.472l-5.84-.693 1.964 4.63a10.6 10.6 0 0 0-1.39 5.247c0 5.876 4.78 10.656 10.656 10.656s10.656-4.78 10.656-10.656-4.78-10.656-10.656-10.656m-5.469 17.437h10.937a8.68 8.68 0 0 1-5.469 1.938c-2.07 0-3.97-.729-5.468-1.938m4.18-6.317a1.9 1.9 0 0 1-.648-1.433v-1.773c0-1.105.822-2.046 1.831-2.099a1.92 1.92 0 0 1 1.44.53c.388.37.603.868.603 1.405v1.937a1.9 1.9 0 0 1-.649 1.433l-.32.289v1.783l2.678 1.339c.431.215.767.557.972.969h-9.235c.205-.412.541-.754.972-.969l2.676-1.339v-1.783zm8.048 5.034a4.07 4.07 0 0 0-2.247-3.356l-1.465-.733a3.86 3.86 0 0 0 .828-2.378V47.47a3.9 3.9 0 0 0-1.207-2.81c-.779-.739-1.786-1.1-2.875-1.06-2.057.107-3.668 1.88-3.668 4.034v1.773c0 .862.296 1.7.827 2.379l-1.465.732a4.07 4.07 0 0 0-2.247 3.356 8.68 8.68 0 0 1-.604-10.15l.27-.43-1.05-2.478 3.2.38.291-.184a8.7 8.7 0 0 1 4.653-1.355c4.808 0 8.719 3.911 8.719 8.719a8.68 8.68 0 0 1-1.96 5.498"/></g><defs><linearGradient id="b" x1="31" x2="31" y1="61.031" y2=".969" gradientUnits="userSpaceOnUse"><stop stop-color="#6582FD"/><stop offset="1" stop-color="#E13E91"/></linearGradient><clipPath id="a"><path fill="#fff" d="M0 0h62v62H0z"/></clipPath></defs></svg>