<svg width="62" height="62" fill="none"><g clip-path="url(#a)"><path fill="url(#b)" d="M34 0H8C5.243 0 3 2.243 3 5v52c0 2.757 2.243 5 5 5h26c2.757 0 5-2.243 5-5V44.404c.153.046.305.097.459.137l.82 2.459h5.441l.82-2.459a13.8 13.8 0 0 0 3.526-1.466l2.323 1.162 3.848-3.848-1.162-2.323a14 14 0 0 0 1.466-3.525l2.459-.82V28.28l-2.458-.82a14 14 0 0 0-1.466-3.525l1.162-2.323-3.848-3.848-2.323 1.162a13.8 13.8 0 0 0-3.526-1.466l-.82-2.46H40.28l-.82 2.459c-.155.04-.306.09-.459.137V5A5.007 5.007 0 0 0 34 0M8 2h26c1.654 0 3 1.346 3 3v1H5V5c0-1.654 1.346-3 3-3m26 58H8c-1.654 0-3-1.346-3-3v-3h32v3c0 1.654-1.346 3-3 3m3-8H5V8h32v10.365c-.36.173-.72.356-1.066.56L35 18.458V10H7v40h28v-6.458l.934-.467c.348.205.705.387 1.066.56zm-6.076-28.066a14 14 0 0 0-1.466 3.525l-2.458.82v5.441l2.458.82a14 14 0 0 0 1.466 3.525l-1.162 2.323L33 43.627V48H9V12h24v6.373l-3.238 3.237zm9.52-4.655.557-.12.72-2.159h2.559l.72 2.158.556.12c1.39.303 2.71.852 3.92 1.63l.48.309 2.04-1.021 1.81 1.809-1.022 2.04.308.479a11.9 11.9 0 0 1 1.63 3.92l.12.557 2.158.72v2.559l-2.158.72-.12.556a11.9 11.9 0 0 1-1.63 3.921l-.308.48 1.021 2.04-1.809 1.808-2.04-1.02-.48.308a11.9 11.9 0 0 1-3.92 1.63l-.556.12L44.279 45H41.72L41 42.842l-.556-.12a11.9 11.9 0 0 1-3.92-1.63l-.48-.309-2.04 1.021-1.81-1.809 1.022-2.04-.308-.479a11.9 11.9 0 0 1-1.63-3.92l-.12-.557-2.158-.72V29.72l2.158-.72.12-.556c.303-1.39.852-2.71 1.63-3.921l.308-.48-1.021-2.04 1.809-1.808 2.04 1.02.48-.308a11.9 11.9 0 0 1 3.92-1.628M33 31c0 5.514 4.486 10 10 10s10-4.486 10-10-4.486-10-10-10-10 4.486-10 10m10-8c4.411 0 8 3.589 8 8s-3.589 8-8 8-8-3.589-8-8 3.589-8 8-8m0 12c2.206 0 4-1.794 4-4s-1.794-4-4-4-4 1.794-4 4 1.794 4 4 4m0-6c1.103 0 2 .897 2 2s-.897 2-2 2-2-.897-2-2 .897-2 2-2M18 56h6v2h-6zm1.707-33.707L25.414 28H11v-2h9.586l-2.293-2.293zM11 34h14.414l-5.707 5.707-1.414-1.414L20.586 36H11zm14-4v2h-2v-2zm-4 0v2h-2v-2zm-4 0v2h-2v-2z"/></g><defs><linearGradient id="b" x1="31" x2="31" y1="62" y2="0" gradientUnits="userSpaceOnUse"><stop stop-color="#6582FD"/><stop offset="1" stop-color="#E13E91"/></linearGradient><clipPath id="a"><path fill="#fff" d="M0 0h62v62H0z"/></clipPath></defs></svg>