<svg xmlns="http://www.w3.org/2000/svg" width="61" height="62" fill="none"><path fill="url(#a)" d="M39.719 22.281a2.91 2.91 0 0 0-2.907 2.907 2.91 2.91 0 0 0 2.907 2.906 2.91 2.91 0 0 0 2.906-2.907 2.91 2.91 0 0 0-2.906-2.906m0 3.875a.97.97 0 1 1 0-1.938.97.97 0 0 1 0 1.938m0-7.75a6.79 6.79 0 0 0-6.782 6.782 6.79 6.79 0 0 0 6.782 6.78 6.79 6.79 0 0 0 6.781-6.78 6.79 6.79 0 0 0-6.781-6.782m0 11.625a4.85 4.85 0 0 1-4.844-4.843 4.85 4.85 0 0 1 4.844-4.844 4.85 4.85 0 0 1 4.843 4.843 4.85 4.85 0 0 1-4.843 4.844M43.044 2.99 39.72.773 36.393 2.99a11.13 11.13 0 0 1-9.998 1.15l-7.02-2.632v20.25c0 13.073 7.845 24.66 19.984 29.517l.36.143.36-.143c12.139-4.857 19.984-16.444 19.984-29.518V1.508l-7.02 2.633a11.13 11.13 0 0 1-9.998-1.151m15.081 1.314v17.453c0 12.148-7.211 22.928-18.406 27.572-11.195-4.644-18.406-15.424-18.406-27.572V4.304l4.403 1.65c3.872 1.451 8.314.939 11.752-1.352l2.25-1.5 2.251 1.5c3.437 2.29 7.879 2.803 11.754 1.353zM47.897 8.72a17.34 17.34 0 0 1-7.707-1.816l-.489-.226-.441.22a17.4 17.4 0 0 1-10.558 1.588l-5.452-.91v14.257A26.84 26.84 0 0 0 39.331 46.42l.388.17.387-.17a26.84 26.84 0 0 0 16.081-24.587V7.537l-4.232.847c-1.111.222-2.25.335-3.385.335zm-1.508 13.705a2.85 2.85 0 0 0 2.048 1.727v2.072a2.85 2.85 0 0 0-2.048 1.727 2.85 2.85 0 0 0 .227 2.67l-1.465 1.465a2.85 2.85 0 0 0-2.67-.228 2.85 2.85 0 0 0-1.727 2.05h-2.072a2.85 2.85 0 0 0-1.727-2.05 2.86 2.86 0 0 0-2.67.228L32.82 30.62c.51-.788.603-1.765.228-2.67a2.85 2.85 0 0 0-2.049-1.727v-2.072a2.85 2.85 0 0 0 2.049-1.727 2.85 2.85 0 0 0-.228-2.67l1.465-1.465c.789.51 1.765.6 2.67.228a2.85 2.85 0 0 0 1.727-2.05h2.072a2.85 2.85 0 0 0 1.728 2.05 2.85 2.85 0 0 0 2.67-.228l1.464 1.465a2.85 2.85 0 0 0-.227 2.67m-21.202-.592V9.862l3.197.534c3.48.577 7.096.16 10.366-1.158v5.293h-1.937v1.301c0 .6-.459.837-.598.896a.95.95 0 0 1-1.056-.21l-.92-.92-4.11 4.11.92.92a.95.95 0 0 1 .21 1.055.95.95 0 0 1-.896.598h-1.3v5.813h1.3c.601 0 .838.458.897.598a.95.95 0 0 1-.21 1.055l-.92.92 4.109 4.11.92-.92a.95.95 0 0 1 1.056-.21c.14.058.597.295.597.896v1.3h1.938v8.14c-8.28-4.236-13.562-12.765-13.562-22.151m27.148-11.549 1.915-.382v11.93a24.89 24.89 0 0 1-13.562 22.152v-8.14h1.937v-1.3c0-.6.458-.837.598-.896a.95.95 0 0 1 1.056.21l.92.92 4.11-4.11-.92-.92a.95.95 0 0 1-.211-1.055.95.95 0 0 1 .896-.598h1.301V22.28h-1.301a.95.95 0 0 1-.896-.598.95.95 0 0 1 .21-1.055l.92-.92-4.109-4.11-.92.92a.95.95 0 0 1-1.056.21.95.95 0 0 1-.598-.896v-1.3h-1.937V9.25a19.3 19.3 0 0 0 7.209 1.405h.672c1.264 0 2.53-.126 3.766-.373M1.938 22.281H15.5a1.94 1.94 0 0 0 1.938-1.937V6.78A1.94 1.94 0 0 0 15.5 4.844H1.938A1.94 1.94 0 0 0 0 6.78v13.563a1.94 1.94 0 0 0 1.938 1.937m0-15.5H15.5l.002 13.563H1.938zm11.34 3.591-3.19 3.19 3.19 3.19-1.37 1.37-3.19-3.19-3.19 3.19-1.37-1.37 3.19-3.19-3.19-3.19 1.37-1.37 3.19 3.19 3.19-3.19zm3.474 14.319a1.92 1.92 0 0 0-1.252-.472H1.938A1.94 1.94 0 0 0 0 26.156V39.72a1.94 1.94 0 0 0 1.938 1.937H15.5a1.94 1.94 0 0 0 1.938-1.937V26.895l1.713-2.055-1.489-1.241zm-1.25 15.028H1.938V26.156H15.5v.036l-6.846 8.216-3.125-3.125-1.37 1.37 4.625 4.625 6.716-8.059zm2.16 3.254-.91 1.092a1.92 1.92 0 0 0-1.252-.471H1.938A1.94 1.94 0 0 0 0 45.53v13.563a1.94 1.94 0 0 0 1.938 1.937H15.5a1.94 1.94 0 0 0 1.938-1.937V46.27l1.713-2.055zm-2.16 16.12H1.938v-13.56H15.5v.036l-6.846 8.216-3.125-3.125-1.37 1.37 4.625 4.625 6.716-8.059zm3.873-.968h9.688v1.938h-9.688zm11.625 0h1.938v1.938H31zm3.875 0h1.938v1.938h-1.938zm-15.5-3.875H38.75v1.938H19.375zM31 50.375v1.938H19.375v-1.938z"/><defs><linearGradient id="a" x1="30.031" x2="30.031" y1="61.031" y2=".773" gradientUnits="userSpaceOnUse"><stop stop-color="#6582FD"/><stop offset="1" stop-color="#E13E91"/></linearGradient></defs></svg>