<svg xmlns="http://www.w3.org/2000/svg" width="62" height="62" fill="none"><path fill="url(#a)" d="M33 32a1 1 0 0 0-1-1h-2c-1.654 0-3-1.346-3-3s1.346-3 3-3v-2h2v2c1.654 0 3 1.346 3 3h-2a1 1 0 0 0-1-1h-2a1 1 0 0 0 0 2h2c1.654 0 3 1.346 3 3s-1.346 3-3 3v2h-2v-2c-1.654 0-3-1.346-3-3h2a1 1 0 0 0 1 1h2a1 1 0 0 0 1-1m27 26.586L49.707 48.293l-1.414 1.414L58.586 60H56v2h6v-6h-2zM60 49h-2v1.586l-5.293-5.293-1.414 1.414L60 55.414zm-14.707 3.707L50.586 58H48v2h7.414l-8.707-8.707zM2 3.414l10.293 10.293 1.414-1.414L3.414 2H6V0H0v6h2zM2 13h2v-1.586l5.293 5.293 1.414-1.414L2 6.586zM14 2H6.586l8.707 8.707 1.414-1.414L11.414 4H14zm16-2h32v32H42.002l.323 4.524C45.399 38.255 50 41.583 50 46v1h-7.815c-.461.173-1.773.638-3.635 1.079l.592 2.363-.587.391c-.122.082-2.814 1.843-6.555 2.126V62H0V30h20.141l.128-1.784A28.65 28.65 0 0 1 28.586 10c.397-.397.89-.657 1.414-.81zm-3 15h8a26.6 26.6 0 0 0-3-3.586c-.535-.533-1.465-.533-2 0A26.6 26.6 0 0 0 27 15m-4.737 13.358-.932 13.051C23.056 41.977 26.757 43 31 43s7.944-1.023 9.669-1.591l-.932-13.051A26.64 26.64 0 0 0 36.268 17H25.732a26.64 26.64 0 0 0-3.469 11.358M19.069 45l.432-6.045c-2.243 1.413-4.824 3.531-5.389 6.045zM30 60v-7.042c-3.74-.283-6.433-2.044-6.555-2.126l-.587-.391.592-2.363c-1.861-.441-3.174-.905-3.635-1.079H12v-1c0-4.417 4.601-7.745 7.675-9.476L19.998 32H2v28zm6.59-11.515C34.935 48.78 33.03 49 31 49s-3.935-.22-5.59-.515l-.256 1.025C26.165 50.04 28.361 51 31 51s4.834-.96 5.847-1.49zm4.358-3.169-.133-1.855C38.819 44.08 35.154 45 31 45s-7.819-.92-9.816-1.539l-.132 1.854C22.586 45.834 26.529 47 31 47c4.483 0 8.418-1.165 9.948-1.684m1.551-6.361L42.931 45h4.956c-.564-2.514-3.145-4.633-5.388-6.045M32 2v7.19a3.25 3.25 0 0 1 1.414.81 28.65 28.65 0 0 1 8.317 18.216L41.859 30H60V2zm24 6h2V4h-8v2h6zm0 4h2v-2h-2zm0 8h2v-2h-2zm0-4h2v-2h-2zM6 54H4v4h8v-2H6zm0-4H4v2h2zm0-4H4v2h2zm0-4H4v2h2z"/><defs><linearGradient id="a" x1="31" x2="31" y1="62" y2="0" gradientUnits="userSpaceOnUse"><stop stop-color="#6582FD"/><stop offset="1" stop-color="#E13E91"/></linearGradient></defs></svg>