<svg width="157" height="34" viewBox="0 0 157 34" fill="none" xmlns="http://www.w3.org/2000/svg">
<g clip-path="url(#clip0_43_2154)">
<path d="M0 8.07541H4.87418L4.9768 9.56709C5.0281 10.2872 4.87418 10.8016 4.92549 10.8016H4.9768C5.79771 9.05271 8.15784 7.56104 10.7745 7.56104C15.3922 7.56104 19.1376 11.1616 19.1376 17.0769C19.1376 23.0436 15.3922 26.5928 10.9284 26.5928C8.31176 26.5928 6.20817 25.3069 5.28464 23.8152H5.23333C5.23333 23.8152 5.33595 24.3296 5.33595 25.3069V33.9998H0V8.07541ZM14.1095 17.0769C14.1095 14.145 12.3137 12.0875 9.85098 12.0875C7.69608 12.0875 5.54118 13.7335 5.54118 17.0769C5.54118 20.3689 7.69608 22.0663 9.85098 22.0663C12.3137 22.0149 14.1095 20.0603 14.1095 17.0769Z" fill="#010512"/>
<path d="M25.55 0C27.3458 0 28.5259 1.13162 28.5259 2.93192C28.5259 4.68079 27.3458 5.81241 25.55 5.81241C23.703 5.81241 22.5742 4.62935 22.5742 2.93192C22.5742 1.13162 23.703 0 25.55 0ZM28.218 8.07564V26.0787H22.8308V8.07564H28.218Z" fill="#010512"/>
<path d="M43.6622 16.7171L49.973 26.0787H44.0727L40.4299 20.5749L36.8384 26.0273H30.8867L37.0436 17.1801L31.0406 8.07568H37.0436L40.2759 13.5795L43.5596 8.07568H49.7165L43.6622 16.7171Z" fill="#010512"/>
<path d="M70.3427 17.0769C70.3427 22.5293 66.2894 26.5928 60.7482 26.5928C55.207 26.5928 51.2051 22.5807 51.2051 17.0769C51.2051 11.5731 55.207 7.56104 60.7482 7.56104C66.2894 7.56104 70.3427 11.5731 70.3427 17.0769ZM65.3146 17.0769C65.3146 14.0936 63.3136 12.0875 60.7995 12.0875C58.2342 12.0875 56.2845 14.0936 56.2845 17.0769C56.2845 20.0603 58.2342 22.0663 60.7995 22.0663C63.3136 22.0149 65.3146 20.0603 65.3146 17.0769Z" fill="#010512"/>
<path d="M78.9104 8.07573L79.0643 10.1332C79.1156 10.8019 78.9617 11.2134 78.9104 11.4191H78.9617C79.7313 9.77316 82.0914 7.61279 85.1186 7.61279C89.1718 7.61279 91.378 10.0818 91.378 14.8654V26.1302H85.9908V15.6884C85.9908 13.9396 85.4777 12.4479 83.528 12.4479C81.014 12.4479 79.3208 14.4025 79.3208 17.0772V26.0273H73.9336V8.02429H78.9104V8.07573Z" fill="#010512"/>
<path d="M98.7668 0C100.563 0 101.743 1.13162 101.743 2.93192C101.743 4.68079 100.563 5.81241 98.7668 5.81241C96.9198 5.81241 95.791 4.68079 95.791 2.93192C95.791 1.13162 96.9198 0 98.7668 0ZM101.435 8.07564V26.0787H96.0476V8.07564H101.435Z" fill="#010512"/>
<path d="M118.571 26.0787L118.417 24.0212C118.365 23.3525 118.468 22.941 118.571 22.7353H118.519C117.75 24.3813 115.39 26.5416 112.414 26.5416C108.361 26.5416 106.154 24.0727 106.154 19.289V8.07568H111.542V18.466C111.542 20.2663 112.055 21.7065 114.004 21.7065C116.467 21.7065 118.16 19.7519 118.16 17.0772V8.07568H123.496V26.0787H118.571Z" fill="#010512"/>
<path d="M133.398 8.07541L133.552 10.1329C133.603 10.8016 133.449 11.2131 133.398 11.4188H133.449C134.219 9.56709 136.22 8.02397 138.529 7.76678C139.093 7.66391 139.709 7.66391 140.273 7.71535C142.326 8.02397 143.967 9.10415 144.686 11.1616C146.071 9.05271 148.226 7.56104 150.689 7.56104C154.691 7.56104 156.897 10.03 156.897 14.8137V26.0784H151.51V15.5852C151.51 13.8364 150.894 12.4476 149.149 12.4476C146.071 12.4476 145.301 15.2766 145.301 18.1571V26.027H140.068V15.5338C140.068 13.8364 139.555 12.4476 137.759 12.4476C134.732 12.4476 133.86 15.2252 133.86 18.1571V26.027H128.473V8.02397H133.398V8.07541Z" fill="#010512"/>
</g>
<defs>
<clipPath id="clip0_43_2154">
<rect width="157" height="34" fill="white"/>
</clipPath>
</defs>
</svg>
