<svg xmlns="http://www.w3.org/2000/svg" width="930" height="600" fill="none"><path fill="url(#a)" fill-rule="evenodd" d="M643.449 1.052c-12.268 5.84-25.578 10.549-39.476 14.759 10.502 10.865 26.257 16.524 36.398 27.75 9.823 1.404 16.659 10.142 26.438 10.413 1.267.046 3.033-.724 4.753-.86 2.807-.272 6.519.68 9.1 0 3.984-1.041 5.976-8.375 10.412-11.272 4.482-2.898 9.417-2.988 15.166-1.313-1.856 1.992-5.251.633-7.787 1.313-9.054 2.354-8.329 13.807-17.338 15.618-2.4.498-5.252-.181-7.787 0-3.622.272-7.017 1.041-9.96.86-11.997-.77-20.055-9.235-30.331-16.026-4.663-3.078-9.055-6.383-13.446-9.96-6.021-4.934-11.453-9.325-18.652-10.412-3.621-4.708-12.494.996-16.931-2.58-.815-3.17 4.482-3.848 7.379-4.754-6.066-4.617-14.532-6.88-20.825-11.272 3.26-3.667 8.24-1.041 13.853 1.72 4.98 2.445 9.1 4.165 11.726 7.787C610.22 8.748 627.197 4.22 640.778.237c.362-.135 2.399-.498 2.671.815" clip-rule="evenodd"/><path fill="url(#b)" fill-rule="evenodd" d="M575.404 20.972h1.313c-.317 2.761-3.803 2.67-5.659 3.485-9.326 4.03-20.145 9.779-30.784 13.446-7.334 2.535-13.763 4.3-18.652 8.692 1.992 7.832 11.725 7.922 20.372 9.1 3.486 2.852 8.556 4.164 10.82 8.239 1.992 9.416-3.757 17.158-12.133 20.825-2.218.95-5.613.95-8.692 1.72-2.625.679-5.342 2.264-7.379 2.58-5.251.815-12.178.317-16.479-.452-4.798-.86-8.646-5.478-11.725-7.787.543-2.943-1.403-8.33 1.72-8.692-.316 2.626.68 3.939.453 6.519 8.692 8.466 26.801 6.972 38.571 2.173 5.116-2.082 13.174-7.968 11.725-15.166-1.901-9.552-19.874-3.621-27.298-10.412-.815-.724-4.889-6.61-4.754-8.692.227-4.03 4.573-2.535 6.067-6.927 17.203-6.564 33.953-13.49 52.514-18.651" clip-rule="evenodd"/><path fill="url(#c)" fill-rule="evenodd" d="M732.767 58.682h1.313c3.441 4.165-.226 10.141-3.486 11.726-5.07-1.268-10.684 1.856-16.479 2.173-5.523.271-14.396-2.264-15.165 5.206 19.104 11.091 41.196 19.24 59.395 31.237.725.996 1.63 1.811 2.173 3.033 8.602-2.807 17.882-7.243 27.299-7.787-.725 2.083-3.577 1.947-5.206 2.581-4.844 1.947-10.684 4.934-15.619 7.379 4.12 2.354 9.281 4.437 13.853 6.927 4.256 2.308 9.914 4.119 11.273 8.239-6.293 1.132-10.141-3.214-14.306-6.066-3.893-2.717-8.873-7.334-13.446-7.38-8.194-.09-15.799 11.635-24.265 5.659 4.074-3.848 11.635-4.3 16.479-7.379-17.656-14.713-44.049-20.734-60.709-36.398.77-2.4.679-5.659 1.72-7.786 9.915-4.12 30.468 2.444 35.131-6.927.453-1.901-1.087-3.169.045-4.437" clip-rule="evenodd"/><path fill="url(#d)" fill-rule="evenodd" d="M478.3 59.995h.86c6.564 2.128 16.659 2.988 16.478 10.413-5.975-2.219-9.642-7.244-16.931-8.692-.317-.363-.453-.951-.407-1.72" clip-rule="evenodd"/><path fill="url(#e)" fill-rule="evenodd" d="M826.434 89.06c-5.342 2.625-10.684 5.206-17.791 6.066 1.494-4.21 12.902-6.7 17.791-6.067" clip-rule="evenodd"/><path fill="url(#f)" fill-rule="evenodd" d="M565.85 106.806c2.49 1.584 3.938 6.428 3.485 9.552-3.033-1.041-3.35-6.972-3.485-9.552" clip-rule="evenodd"/><path fill="url(#g)" fill-rule="evenodd" d="M674.682 139.356c-2.58 5.477-13.083-2.671-14.758-5.659-2.807-5.025-2.083-9.326-8.24-11.273-1.901-.588-4.255-.317-6.519-.86-7.152-1.72-12.811-4.346-21.685-4.346 2.671-2.49 6.52-1.992 10.413-1.72 9.688.588 22.952 2.625 27.298 8.239 1.721 2.218 1.404 5.251 2.581 7.379 2.716 4.708 8.058 4.301 10.91 8.24" clip-rule="evenodd"/><path fill="url(#h)" fill-rule="evenodd" d="M728.469 126.317c-2.083 3.034-6.474 4.301-10.412 6.519-6.972 3.894-14.125 6.384-23.406 9.553-5.749 1.946-15.799 6.609-17.339-1.313 2.174-2.083 4.211-.362 6.52-.453 6.383-.226 14.486-4.074 22.092-6.519 8.194-2.58 14.939-6.383 22.545-7.787" clip-rule="evenodd"/><path fill="url(#i)" fill-rule="evenodd" d="M792.617 129.351h.86c10.322 5.885 22.319 12.902 32.505 19.964 2.49 1.721 6.428 2.943 6.926 6.519-3.757 2.671-8.058-1.448-10.819-3.486-9.19-6.7-20.508-14.396-29.064-21.684-.498-.046-.363-.77-.408-1.313" clip-rule="evenodd"/><path fill="url(#j)" fill-rule="evenodd" d="M623.074 154.929c.136 2.671-3.848 4.753-7.786 4.753-.136-2.309-4.89-1.901-3.486-4.346 1.449.136 2.671.544 2.58 2.173 4.935 1.177 5.252-2.263 8.692-2.58" clip-rule="evenodd"/><path fill="url(#k)" fill-rule="evenodd" d="M835.986 158.007c.77 3.667-4.029 3.758-6.519 4.346-14.984 3.531-39.114-1.584-49.843 7.379-2.807 2.355-1.856 5.931-6.519 7.38-2.49-3.124.634-7.561 2.58-9.553 10.956-10.955 39.477-6.428 58.536-8.692-.543-1.72 1.222-1.448 1.765-.86" clip-rule="evenodd"/><path fill="url(#l)" fill-rule="evenodd" d="M861.97 174.033c.633 3.758-4.709 3.441-6.927 4.346-6.474 2.535-9.145 8.692-15.166 12.586-8.013 5.115-19.466 5.749-29.924 5.206 9.733-3.26 16.615-3.758 24.718-7.787 9.96-5.025 13.446-18.606 27.299-14.351" clip-rule="evenodd"/><path fill="url(#m)" fill-rule="evenodd" d="M772.652 177.474c2.083-.045 1.675 2.399 2.173 3.893 8.239 6.202 19.965 8.919 30.332 12.993-3.531 5.161-11.816.634-17.339-1.72-2.807-1.223-12.721-6.836-14.306-9.553-.815-1.403-.905-3.938-.86-5.613" clip-rule="evenodd"/><path fill="url(#n)" fill-rule="evenodd" d="M114.501 180.96c-3.848 2.807-9.87 3.44-12.993 6.926 13.174 9.371 42.374 6.383 49.436 22.545 4.391 10.05-10.231 18.244-20.372 19.059-5.976.498-12.631 1.63-17.339-1.312 4.074-4.98 12.178-2.219 19.059-3.034 6.972-.815 18.788-7.786 12.585-15.618-5.16-6.565-15.528-7.56-26.03-10.413-3.305-.905-5.886-2.852-8.24-3.485-7.153-1.811-19.874-.906-19.964-8.24-.046-5.523 13.807-7.334 19.964-8.692 1.585-.226 3.396-.226 3.894 2.264" clip-rule="evenodd"/><path fill="url(#o)" fill-rule="evenodd" d="M106.714 228.223c-10.141.181-18.38.498-25.579-3.486-9.28-5.116-13.31-18.109-22.997-19.965-4.844-.905-11.137 1.902-15.619 3.033-10.548 2.626-19.738 4.935-29.064 8.24-4.165 1.494-9.1 4.663-13.445 2.173-.227-3.214 3.621-3.214 5.658-3.893 10.956-3.667 23.587-7.017 35.991-10.82 5.387-1.675 12.404-5.252 18.199-3.486 11.906 3.667 17.701 19.512 31.237 24.265 5.433 1.947 11.137.453 15.619 3.939" clip-rule="evenodd"/><path fill="url(#p)" fill-rule="evenodd" d="M184.756 226.91c-2.625-.815-4.527 1.765-5.659 4.753 2.083.951 3.532 2.536 6.519 2.581 2.264-1.72-.317-4.754-.86-7.334 2.128-.091 3.305.77 5.659.453 2.399-2.671 1.222-8.919 2.173-12.993 4.708 2.626 5.025 18.108-3.486 16.478-.95 4.482 4.799 3.532 6.927 5.207 1.403 1.086.95 3.033 2.173 4.346.498.543 1.856.362 2.58.86 3.169 2.173 6.248 6.474 4.754 9.552-6.248-2.399-5.388-11.952-14.306-11.725-1.222.498-1.992 1.449-2.58 2.58-2.128-.045-1.766-2.58-3.034-3.486 1.268 11.907 10.503 32.867 1.721 45.543-10.186-7.243.226-29.562-4.754-44.637-1.041-1.041-2.49 3.531-3.893 2.173-.77-2.083-2.173-3.214-3.486-5.659-2.58.588-4.572 1.766-6.519 3.033-.589.906.226 1.268-.453 2.581-2.399 3.169-7.877 4.979-10.82 9.552-.724 1.086-.543 2.671-1.312 3.893-2.309 3.803-7.153 7.198-7.38 11.725-.271 6.021 6.565 7.696 4.754 13.446-2.762-.815-7.832-7.651-8.239-10.82-.453-3.486 4.798-13.31 6.926-16.026 2.264-2.897 5.342-4.753 6.066-7.379-.815-.951-1.765 1.675-3.893.86-.634-3.531 3.214-3.667 4.754-6.519 5.07-9.371 3.168-26.031 11.725-32.505 7.741 1.947 20.779-6.066 22.545 5.207-3.441 0-6.338 1.267-8.692 4.346-1.766.316-1.087-1.811-2.581-1.721.317 2.581 2.626 8.783 2.671 11.635m-15.618 8.239c5.613-.271 8.42-6.519 3.893-9.959-2.264 2.354-1.856 7.379-3.893 9.959" clip-rule="evenodd"/><path fill="url(#q)" fill-rule="evenodd" d="M265.84 225.19c2.535 1.358.679 4.617.453 7.786-.408 4.89 1.267 11.137 0 15.619-1.223 1.086-2.581 2.037-5.207 1.72 1.404 2.671 3.577 4.482 4.754 7.379 7.605 2.037 11.091 8.692 16.478 16.026 3.984 5.433 8.149 9.552 9.553 14.759 1.765 6.473-4.075 11.136-7.379 15.165-2.762 3.396-5.795 6.112-8.24 9.1.181 2.716 3.033 2.852 3.486 5.659.589 3.848-2.354 7.968-5.206 9.552 6.021 31.418 3.033 66.911 3.893 98.872 3.396 4.844 11.771 4.708 16.932 7.787-3.848 6.292-16.796 3.44-25.126 5.206.815 2.943 5.931 1.584 5.659 5.659-3.712-.272-7.515-2.626-11.273-3.893-3.44-1.177-8.646-1.721-7.786-7.38 3.531.046 7.107 3.486 10.82 4.754-.408-14.261-3.441-30.92-6.067-47.671-2.173-13.807-2.354-28.113-7.786-37.711-6.112 12.903-4.708 35.901-7.787 53.783-1.313 7.56-4.753 15.03-.453 18.651 2.671 2.264 5.705 1.358 5.659 4.346-.09 4.256-7.288 3.305-10.82 3.486 13.039 4.844 24.311 11.725 35.131 19.059 3.44 2.354 8.103 3.758 9.959 7.787-4.979-.362-9.371-3.395-13.852-5.659-8.919-4.436-18.245-8.918-27.752-12.993-4.572-1.992-9.959-3.304-12.992-7.379 1.131-3.305.905-6.383.86-10.82-.362-25.895.452-61.885.452-88.867 0-4.074 1.675-8.375 1.313-12.133-.498-4.708-5.523-8.963-.86-13.445-3.531-5.75-7.877-10.865-10.412-17.792-.408-1.131-1.268-2.218-1.313-3.033-.226-4.346 5.07-11.318 7.379-15.618 2.807-5.252 6.383-9.598 9.1-13.446 2.535-1.222 4.708-2.807 7.379-3.893 1.358-2.264 1.675-5.569 3.893-6.927-2.943-6.292-5.025-14.849.86-19.512 5.433-.95 11.952-3.259 16.298-3.983m-7.832 15.165c-1.539.227-1.087-1.539-2.581-1.312 0 3.485 2.038 7.469 6.519 7.786 1.947-3.078 1.676-10.322 0-13.445h-1.312c-1.087 2.127-.77 5.613-2.626 6.971m-24.673 51.157c1.449 3.169 2.671 6.609 5.206 8.692-1.177-3.758-.86-8.964-3.033-11.725-.453 1.313-2.128 1.358-2.173 3.033m39.884 5.206c1.811-.77 2.309-2.897 3.033-4.753-.86-1.178-1.675-2.355-3.486-2.581-.317 2.897.679 4.482.453 7.334m-39.476 19.512c2.716.226 2.806-3.396 2.173-5.206h-1.313c-.046 1.856-1.947 3.576-.86 5.206m40.744 6.926c1.177-.996 2.037-2.308 2.58-3.893-1.222-.77-1.584-2.445-3.033-3.033-1.358 1.222-2.218 6.428.453 6.926m-38.571 14.759c.814.09.95-.498 1.72-.453 0-1.449-.589-2.309-1.313-3.033-.634.634-.362 2.218-.407 3.486m3.033 6.926c.226-1.539 1.086-4.346-.453-5.206-.317 1.177-1.177 4.753.453 5.206" clip-rule="evenodd"/><path fill="url(#r)" fill-rule="evenodd" d="M582.332 280.239c-4.301 2.264-7.742-2.716-10.82-4.753-3.576-2.354-7.651-3.758-10.412-6.519v-1.313c.362-.226.724-.453 1.312-.453 7.153 3.848 17.158 4.844 19.92 13.038" clip-rule="evenodd"/><path fill="url(#s)" fill-rule="evenodd" d="M555.441 284.133c-4.708 3.983-9.96-2.581-13.853-5.207-4.708-3.123-9.914-5.794-13.445-9.099v-1.313c.362-.091.452-.453.86-.453h.86c8.375 5.569 20.462 7.334 25.578 16.072" clip-rule="evenodd"/><path fill="url(#t)" fill-rule="evenodd" d="M590.572 277.206c-4.618 1.403-11.228-4.527-12.586-7.787 4.709.363 10.911 2.943 12.586 7.787" clip-rule="evenodd"/><path fill="url(#u)" fill-rule="evenodd" d="M600.53 276.346c-3.531 2.037-6.474-3.124-9.552-4.346.045-.679-.227-1.675.452-1.72 3.305.09 8.33 2.082 9.1 6.066" clip-rule="evenodd"/><path fill="url(#v)" fill-rule="evenodd" d="M535.929 283.272c-5.387 1.54-9.326-5.206-13.853-7.379v-1.313c5.297.544 12.133 3.215 13.853 8.692" clip-rule="evenodd"/><path fill="url(#w)" fill-rule="evenodd" d="M523.797 283.725c-3.848 1.177-6.021-2.897-9.1-3.893v-1.313c4.165-1.041 8.556 1.222 9.1 5.206" clip-rule="evenodd"/><path fill="url(#x)" fill-rule="evenodd" d="M511.212 283.272c-1.675 1.857-4.708-.226-4.753-2.58 1.041-2.762 4.663.407 4.753 2.58" clip-rule="evenodd"/><path fill="url(#y)" fill-rule="evenodd" d="M386.355 307.99c-5.478 3.351-15.936 2.264-21.232 6.067-1.675 1.222-4.754 4.708-4.754 6.926 0 6.202 8.647 6.61 10.413 12.133-6.022.407-14.125-5.659-14.759-10.82-1.313-11.227 17.203-15.392 30.332-14.306" clip-rule="evenodd"/><path fill="url(#z)" fill-rule="evenodd" d="M473.953 399.031c5.84 2.671 17.474 4.753 13.853 14.305-.408 1.087-1.404.86-2.173 2.173-1.675 2.852-1.766 5.342-4.346 6.927-2.943 1.811-9.779 2.626-14.759 3.486-16.433 2.807-41.287 1.856-45.543-11.726-.588-1.901-.362-5.07-.86-6.519-4.617-13.626-26.166-2.806-37.303 0-11.997 3.034-21.006 2.038-30.332 6.927 2.264-3.622 6.972-5.206 10.82-6.927 7.832-3.485 17.339-6.519 26.891-8.692 9.598-2.173 24.13-6.338 32.957.453 2.626 2.037 4.573 6.429 5.659 9.552.589 1.721.136 4.12 1.313 6.067 3.577 5.885 14.306 9.054 24.266 8.692 5.432-.227 19.783-2.807 23.857-5.207 2.173-1.267 6.248-5.704 6.067-9.099-.272-6.338-8.511-4.844-10.367-10.412" clip-rule="evenodd"/><path fill="url(#A)" fill-rule="evenodd" d="M135.777 425.514c.77-3.259 23.858-.271 23.858 3.486-.09 6.338-19.964-3.395-23.858-3.486" clip-rule="evenodd"/><path fill="url(#B)" fill-rule="evenodd" d="M141.389 436.334c-5.297 1.494-10.412-1.358-15.166-2.58-4.98-1.268-10.548-1.359-14.305-4.346-.091-.498.09-.77.452-.861 8.647 1.857 26.937-2.127 29.019 7.787" clip-rule="evenodd"/><path fill="url(#C)" fill-rule="evenodd" d="M113.232 438.507c-2.309 4.256-9.96 1.041-13.853.453v-1.313c3.803-.634 11.227-1.177 13.853.86" clip-rule="evenodd"/><path fill="url(#D)" fill-rule="evenodd" d="M257.601 459.739c-3.939.498-7.334-2.625-10.82-4.346-9.96-4.799-23.541-7.786-30.785-16.026-.135-.679.408-.724.453-1.313.362-.09.453-.452.86-.452 12.45 2.263 23.088 9.235 32.505 15.618 2.852 1.947 6.564 3.486 7.787 6.519" clip-rule="evenodd"/><path fill="url(#E)" fill-rule="evenodd" d="M215.951 455.846c-5.071 4.663-10.096-4.256-15.619-4.754v-1.312c6.157-.634 11.906 2.852 15.619 6.066" clip-rule="evenodd"/><path fill="url(#F)" fill-rule="evenodd" d="M193.857 462.772c-2.581 3.577-8.737 0-10.82-2.173 2.173-2.58 8.239.951 10.82 2.173" clip-rule="evenodd"/><path fill="url(#G)" fill-rule="evenodd" d="M317.451 523.934c-3.713.498-7.063-2.4-10.413-3.894-3.486-1.584-6.971-2.761-10.412-4.346-6.429-2.897-14.487-6.202-17.339-12.585 8.285-1.494 15.709 5.161 22.545 9.552 5.84 3.712 12.088 6.474 15.619 11.273" clip-rule="evenodd"/><path fill="url(#H)" fill-rule="evenodd" d="M294.909 530c-7.515-1.856-14.17-4.618-17.792-10.412.362-.227.725-.453 1.313-.453 3.26.951 6.293 3.033 9.1 4.753 2.489 1.585 6.7 2.581 7.379 6.112" clip-rule="evenodd"/><path fill="url(#I)" fill-rule="evenodd" d="M835.985 397.763c9.824-7.877 18.425-17.022 28.611-25.125 3.033-2.445 6.429-6.655 11.273-5.659 2.897 5.794-4.618 7.877-6.927 11.272.136 1.449 1.268 1.902.86 3.894-7.741 11.951-18.697 20.598-26.891 32.097 5.84-3.033 10.775-8.33 16.479-12.586 5.659-4.165 11.499-9.19 19.059-10.819 4.799 4.391-3.848 12.178-7.787 16.478-3.531 3.894-10.276 8.738-11.725 12.133-1.448 3.486.362 6.202-2.173 9.099 3.441-1.312 6.383-6.926 10.82-8.692.86 3.079-2.309 5.297-3.893 7.38-4.935 6.473-10.005 13.853-14.759 20.824-.905.815-2.218 1.268-3.486 1.721-4.617 5.658-4.436 16.071-13.445 17.338.588-8.556 5.931-16.026 9.96-22.545-10.503-2.58-.227-14.169 3.893-19.511 4.301-5.524 8.33-9.553 11.272-12.993-14.486 10.955-31.87 22.726-37.71 43.777 4.889-2.762 8.827-10.231 15.618-12.585-.136 5.115-3.667 9.099-7.379 13.445-3.395 3.984-17.158 16.705-15.619.86.679-7.017 6.293-13.445 8.24-19.059-3.441 0-3.848 6.836-9.552 6.066 1.403-5.387 4.708-8.873 6.519-13.853-8.466 4.256-15.845 18.879-18.652 30.785-.77 3.35-.362 7.017-3.033 7.379-6.293.86-2.581-11.046-1.313-13.853-7.968 5.025-13.31 16.479-24.718 19.512-5.433-7.198 11.091-17.113 12.133-24.265-4.256 2.761-8.285 7.424-12.586 11.725-3.984 3.984-7.651 10.548-14.306 9.959-1.81-4.391 2.671-7.65 4.754-10.412 2.444-3.169 4.934-6.519 7.379-9.552 5.025-6.202 11.137-11.861 13.853-19.512-7.424 6.202-14.577 15.8-22.092 23.858-2.219 2.399-5.025 6.926-9.1 5.659-.498-4.935 3.848-8.692 6.519-12.133 8.149-10.593 17.792-20.825 26.031-31.644-13.128 12.494-26.302 28.611-38.571 43.369h-3.893c-.815 1.359-.317 3.984-2.173 4.346-2.309 1.857-3.758-.633-6.066-.452-3.034.271-4.392 2.625-7.38 1.72-2.716-.815-1.358-3.395-3.033-5.206-1.403-1.494-3.44-.181-4.346-2.173-.724-.725-.362-2.535-.453-3.893-2.354.86-4.662 1.674-8.239 1.312-1.449-1.131-3.033-2.173-2.58-5.206-1.675 1.539-4.346 2.581-6.519 4.754-1.811 1.856-1.675 4.029-4.346 4.346-2.852.317-7.244-4.075-10.413-6.067-11.634-7.334-20.236-15.03-32.957-21.685-7.515-3.938-17.203-9.19-23.858-14.758-5.931-4.934-6.791-12.449 3.486-13.853 4.98-.679 14.622.181 21.232.86 4.527.498 9.371 2.49 13.853 1.313 6.61-1.765 14.215-10.367 8.692-17.791-2.671-3.622-15.935-9.19-21.685-10.82-15.256-4.346-27.796-.77-36.851 6.519-5.523 10.593-19.421 11.77-34.677 8.239-9.281-2.173-18.38-10.729-27.751-16.026-3.848-2.173-9.145-5.251-13.853-8.239-4.346-2.762-10.322-7.425-13.853-7.787-1.766-.181-3.441.951-5.206 1.313-7.47 1.494-13.989 3.033-21.233 5.206-13.717 4.075-26.347 6.383-40.744 11.725-2.716.996-6.247 1.811-9.959 3.034-1.585.543-8.104 2.716-8.24 4.753-.135 2.581 4.799 4.256 7.38 4.754 6.881 1.403 17.248 1.041 18.199 7.379-4.618.769-9.372-2.083-14.306-3.033-5.07-.951-10.367-.996-14.306-3.486-7.107-11.997 8.828-13.717 18.652-16.026 4.346-1.041 9.416-3.803 14.758-5.659 13.536-4.663 34.135-8.194 46.403-13.446-10.322-10.729-25.759-17.384-39.023-26.438-9.1-6.247-18.697-13.762-32.098-13.853-.362-.588-7.017-2.354-9.552-2.173-6.61.453-9.597 5.704-13.853 9.552-2.218 1.947-4.889 3.577-7.379 6.067-4.844 4.844-10.186 10.14-19.512 10.412-3.667.09-7.922-.905-12.133-1.72-3.531-.679-7.786-.951-10.412-3.486 8.918.679 21.413.136 29.471-.86 4.618-4.12 11.454-6.519 16.026-11.273 2.581-2.671 3.532-6.836 6.52-9.099 7.786-6.021 18.063-3.894 31.237-2.581 8.103 4.889 16.976 9.054 25.125 14.306 7.877 5.115 16.66 9.869 23.858 15.618 3.622 2.898 6.066 6.067 9.552 8.24 3.712 2.354 7.742 3.486 12.133 5.659 3.214 1.584 6.79 5.025 10.412 5.206 1.811.09 5.75-2.083 8.692-3.033 20.236-6.61 39.567-13.989 57.676-22.093-6.429-5.93-13.536-13.898-5.207-22.092 5.071-4.98 20.237-11.589 33.365-10.82 5.297.317 10.277 2.988 13.446 5.206 3.305 2.309 7.198 7.742 9.959 8.24 6.112 1.086 19.739-7.832 24.266-9.96 3.757-1.765 7.651-3.848 11.725-5.614 4.165-1.856 8.873-2.58 12.585-4.346 5.931-2.806 12.043-6.473 18.652-9.552-.453-4.119-4.346-2.897-7.379-3.893-8.511-2.852-15.392-11.499-24.266-17.339-3.531-2.309-8.42-4.12-12.585-6.066-4.436-2.083-8.511-5.252-12.132-6.519-3.667-1.268-14.985-4.075-14.759-9.1.181-3.803 7.515-5.297 12.993-6.519 5.432-1.177 11.906-3.531 15.166-4.346 5.84-1.403 16.614-2.128 21.232-2.58 6.972-.679 15.935-2.264 16.479-7.787.316-3.169-3.396-7.334-5.207-8.692-3.078-2.264-8.375-2.852-14.758-4.753-10.82-3.26-23.858-6.836-33.818.452-5.296 3.848-9.552 14.034-15.165 18.199-.77.589-5.523 3.577-7.379 3.894-8.738 1.493-17.928-6.022-22.998-9.553-7.47-5.206-11.092-8.375-19.512-12.992.951 12.947-2.173 31.553-2.173 43.777 0 2.127.045 4.934.86 6.519 2.445 4.617 10.82 2.988 14.758 6.926-1.358 2.264-5.749 1.449-8.692 2.173.317 2.309 3.939 1.268 3.033 4.754-3.802.407-5.794-2.083-5.658-4.346-4.98-.408-9.281 1.222-12.586-.86-1.494-14.306-4.346-30.694-4.753-46.403-.362-1.947 2.037-1.132 1.313-3.486-5.297-6.565-.815-22.862-11.726-23.858-3.35 18.697-12.585 33.184-19.964 50.296-1.766 4.12-4.618 10.096-4.346 13.446.407 5.07 5.749 5.251 6.926 9.959-1.675 1.63-4.346.362-6.926.453 3.622 2.173 6.972 4.301 11.272 6.926 2.717 1.63 10.186 4.301 9.553 8.24-.815 4.844-5.976.905-8.24-.86-5.568-4.346-11.001-7.923-16.886-11.726-2.671-1.72-6.564-3.44-7.379-6.926 2.082-1.177 2.807 1.132 5.206.86-1.765-5.342-7.153-10.684-.86-14.758 1.494-7.742 3.033-15.483 3.486-24.266 5.659-8.646 9.461-19.149 9.959-32.957-7.288 2.671-14.984 5.568-22.997 8.239-7.651 2.536-16.388 3.577-22.093 8.692 3.532 2.807 7.697 5.025 12.133 6.927 3.803 6.609-2.626 15.347-6.926 19.512-12.45 11.951-45.86 16.026-48.576-3.033-1.947-2.536-4.89-2.988-9.96-2.581-16.026 1.222-31.871 7.606-47.67 12.585-11.545 3.622-22.772 7.923-34.271 10.82-3.757.951-8.42.408-11.272 3.486 7.062 4.844 16.841 9.733 27.751 16.932 9.235 6.066 23.496 7.831 29.064 15.618 3.124 4.391.317 8.104-2.58 11.273-4.528 4.889-13.174 5.432-23.406 5.613 2.355-6.247 12.224-2.399 17.339-5.613 2.943-1.857 2.49-4.528 4.754-7.38-20.055-12.947-42.691-20.688-61.569-34.677-11.997-.181-23.631 6.066-34.27 9.099-10.367 2.988-20.282 5.342-31.645 7.379 14.804-8.782 33.999-13.128 49.844-20.824.226-1.494 1.177-2.309 1.72-3.486-4.572-2.671-9.326-5.206-14.306-7.787-1.222-.634-3.621-1.222-3.893-3.033 1.992-.724 4.844 1.087 6.927 1.72 5.115-12.087 15.03-19.33 12.585-39.023-2.309.452-4.708 4.527-9.1 4.346-5.025 10.14-10.004 20.326-14.758 30.784-8.601-1.358-16.841-6.926-26.031-9.96-3.214-1.041-10.593-9.099-9.959-13.445 1.539-10.775 30.376-5.84 41.196-6.519 2.173-.136 3.396-.951 5.659-.86-2.49 4.481-10.774 3.123-16.931 3.893-3.848 4.12-5.523 10.367-8.692 15.166 3.667 3.395 8.647 5.523 12.993 8.239 5.658-9.778 10.231-20.689 15.618-30.784 4.799-2.128 9.914-3.984 11.273-9.552-3.939-5.433-7.108-9.915-12.993-13.446-6.021-3.576-14.985-3.35-23.858-4.346-5.659-.634-12.812-2.399-17.792-.453-4.934 1.947-9.416 5.704-13.853 9.1-4.346 3.35-8.737 8.692-12.585 9.959-4.572 1.54-10.593 2.309-14.758 1.721-10.367-1.404-20.327-11.635-29.925-18.652-4.527-3.305-9.19-6.972-13.853-10.412-4.572-3.35-9.506-7.923-13.853-9.96-7.152-3.395-20.734 3.305-26.438 5.659-7.741 3.169-15.301 5.07-24.265 5.206 1.856-2.263 5.342-2.761 8.239-3.893 7.787-3.124 18.471-7.334 26.891-9.552 2.988-.77 8.738-2.807 11.725-2.581 4.12.272 10.684 6.021 15.166 9.552 10.322 8.104 18.969 12.631 29.064 20.372 7.923 6.112 14.215 15.528 26.891 9.553 3.441-1.63 6.972-4.98 10.82-8.24 3.803-3.259 8.24-5.976 10.413-8.239 1.81-1.902 2.037-4.573 4.753-6.066-2.264-3.577-3.984-5.931-3.486-12.586.77-10.457 6.202-22.183 10.82-32.097 4.889-10.367 12.314-18.652 19.512-22.998 1.358.091 3.169-.271 3.893.453-.407.317-2.716-.181-3.486.86-6.564 7.289-10.593 17.429-14.758 27.299-3.939 9.461-9.462 20.326-7.787 32.097 4.663 2.671 6.927-3.441 9.552-6.067 4.527-4.572 8.557-7.243 11.726-12.585 5.432-9.145 9.733-22.092 15.618-32.097 2.897-4.935 5.614-10.956 11.273-12.586.724 2.264 3.304.68 5.206 2.173.317 7.244-4.029 13.355-6.927 19.06-2.942 5.84-6.202 11.544-9.552 16.931v6.927c7.515-14.714 15.121-29.381 23.405-43.37-1.539-.634-3.214-1.087-3.893-2.58-.317-3.803.996-5.976 2.173-8.24-3.984.996-9.914 10.865-16.026 5.659 2.173-10.005 7.47-16.841 14.306-22.092-2.717 6.202-7.063 10.82-9.1 17.791 8.556-3.893 15.166-13.445 23.858-18.652-1.313-2.308-5.704-1.539-5.659-5.206 6.746 2.264 14.759 5.84 22.092 9.552 2.219 1.132 4.618 3.396 6.52 3.894.995.271 2.082-.362 3.033 0 2.58.996 4.21 3.712 6.926 3.893 2.49.181 7.379-2.309 10.82-3.486 10.956-3.667 21.051-6.971 30.332-11.272 10.095-4.709 19.285-7.56 30.784-10.82 3.124-.906 7.289-3.667 10.412-.86-3.712 4.889-11.725 5.568-18.199 7.786-15.528 5.388-32.368 11.5-47.67 16.886-3.124 1.132-6.927.634-9.1 3.486 2.762 5.66 9.688 7.697 15.166 10.413 5.659 2.807 10.911 6.202 16.026 9.099 4.482 8.375 20.553 8.602 25.578 16.479 3.034 4.799.906 11.046-4.346 12.133-2.354.498-5.251-.227-7.379 0-5.659.588-12.404 2.716-19.512 3.485-7.334.815-14.396 1.811-19.059 3.894-1.041 4.074-5.342 4.301-5.206 8.239.136 3.577 5.523 3.305 4.753 6.519-.588 2.445-2.897 1.675-5.206.86v7.787c3.35-1.403 5.569-7.741 9.552-9.96 1.223.679-.95 1.63-.86 2.581 9.824 4.617 31.328 6.157 45.09 1.72 5.523-1.765 9.236-7.243 13.853-9.96 6.202-3.667 18.426-6.7 24.266.861.09 2.082-4.211.996-1.721 3.033 1.223 1.358 4.392-2.037 5.207-3.894 11.408 2.853 20.824 9.417 30.331 14.759 9.598 5.342 19.738 9.552 28.611 16.026 1.223-5.071 1.494-13.084 2.174-19.965-2.264.272-2.264 3.214-4.754 3.486-1.992.181-4.029-1.222-4.753-3.486 1.946-1.313 3.078 1.132 5.206 0 2.535-1.448 1.448-3.259 1.72-5.659 1.358-1.494 3.395 1.404 3.486-.452-.136-2.128-5.659.769-7.787-1.313-1.041 1.856.227 6.021-3.033 5.659-1.72-6.338 1.494-12.178 2.173-17.792.453-3.939 0-8.285.453-12.585.634-6.565 2.218-14.351 3.033-20.372 1.403-10.322 7.424-14.94 14.758-19.06.634-2.399 1.268-4.798 3.034-6.066-5.207-3.44-5.478-9.552-3.034-15.166 1.313-2.987 13.129-11.634 16.932-8.239-1.177 8.42 2.49 13.31 2.58 22.545.091 1.81-2.082 1.403-3.033 2.173 2.037 1.177 2.399 3.939 3.486 6.066 12.495 2.219 13.038 16.434 18.652 25.579 1.765-.046 5.885-2.445 6.519.452-.77 1.087-3.622.453-5.206 1.721 3.078 7.65 7.65 13.762 11.272 20.824 8.602 2.309 21.504 3.622 26.031 9.96 5.568 7.877-2.218 11.408-9.1 14.306-11.363 4.798-26.664 9.054-35.99 14.758-.86 7.651-1.992 16.841-.86 25.126 12.902 7.877 24.084 17.519 39.476 22.997 3.26-1.584 8.104-1.765 10.82-4.346 3.078-2.897 3.848-8.647 6.926-12.132 13.129-14.985 41.288-7.199 55.91-1.313 4.346 4.3 10.186 9.507 8.24 18.651-13.129 12.178-45.136 5.478-60.709 15.166 3.576 3.712 8.647 5.659 13.446 8.24 4.572 2.444 9.144 6.156 13.852 7.786 4.98 1.766 8.693 2.083 12.586 4.346 3.259 1.902 5.704 5.161 9.552 7.379 3.305 1.902 7.425 2.128 10.82 3.894 4.074 2.127 7.424 5.976 12.133 6.926 28.656-8.601 56.498-18.063 86.286-25.578 5.342 4.889 16.298 4.21 19.512 11.273.272 11.861 16.569 13.173 30.785 14.305 4.255.362 8.556 2.173 11.725 2.173 7.107 0 12.766-4.527 16.931-6.066 4.256-7.198 1.041-12.993-5.206-14.758-.86-.227-2.218.407-3.486 0-2.173-.725-4.935-3.169-8.239-3.486-2.762-.227-5.659.905-8.24.86-7.696-.091-18.334-3.531-17.339-11.725.725-6.021 10.413-9.915 16.479-12.133 21.142-7.832 41.695-15.03 62.429-22.545-20.236-12.993-42.872-23.586-62.021-37.711 3.123-.815 6.383 1.268 9.099 2.581 14.261 7.017 28.974 15.935 42.917 23.857 5.704 3.215 11.499 6.067 16.479 9.96 8.964-2.309 16.252-8.601 26.031-8.692-4.392 7.153-16.117 6.972-24.718 9.96 4.391 1.675 9.009 3.123 11.725 6.519-3.169 4.165-8.602-.906-11.273-2.581-28.204 4.301-47.987 17.067-73.293 24.266-1.132 3.214-3.034 5.613-5.207 7.786 5.75 3.758 17.747 1.313 21.232 7.379 10.096-1.131 20.372 5.569 19.965 15.619-.407 9.462-9.552 10.503-16.026 14.758-18.244 3.124-38.073 3.305-51.156-4.753-2.943-1.811-6.7-5.976-8.24-9.552-.769-1.811-.452-3.939-1.313-5.659-2.127-4.12-7.967-5.523-11.725-8.24-10.91 4.98-22.001 11.59-34.677 15.166-12.767 3.622-24.673 8.058-35.131 14.306 7.198 6.293 16.75 8.918 25.126 14.306 4.3 2.806 8.013 6.971 12.585 9.552 2.943 1.63 6.61 2.263 9.552 3.893 3.079 1.72 10.594 6.383 10.413 10.412-.227 6.021-8.33 5.161-15.619 6.067-5.025.634-12.449 3.123-19.964 3.893-7.832.815-15.438 1.675-19.965 3.893-2.943 1.449-7.289 5.75-7.379 8.24-.181 6.564 9.733 6.655 11.272 12.585-1.675 1.856-5.206.317-6.926-.453-4.799 3.622-6.429 12.133-4.754 20.825 4.075-3.893 8.33-9.778 12.993-14.758 1.494-1.585 2.535-4.12 4.754-4.754.226-2.218.362 1.132 1.72.453 9.462 2.128 17.158.407 26.031-.86 15.573-2.218 22.499-9.145 30.784-18.199.181 2.49 3.079.136 5.206 0 12.45-.906 28.929 8.737 37.304 12.993 1.041.271 1.992.633 3.486.452 2.127 3.939 8.194 3.939 9.552 8.692-3.214 2.264-7.062-.543-9.552-1.72-4.165 1.63-5.931 5.614-9.1 8.239.724 1.359.724 1.811.453 3.486-5.84 7.063-11.816 14.261-17.701 21.504M578.437 74.301c-1.041-.226-.905-1.675-2.58-1.313-.362 1.222-1.403 1.766-1.313 3.486 1.856 1.901 3.803 3.712 4.346 6.926 2.218.363 3.169-.588 5.206-.452 1.902-4.799-.543-11.182-3.893-13.446-.724 1.54-.091 4.346-1.766 4.799M350.362 93.405c6.926-3.304 9.054-11.453 13.853-16.886-1.313-.543-2.264-1.494-3.486-2.173-1.856 7.877-7.923 11.635-10.367 19.06m231.516-5.659c-.815-.362-1.584-.724-2.58-.86-.544 1.449 2.218 1.766 2.58.86M352.987 126.77c8.013-13.219 16.57-25.94 26.439-37.303-1.449 0-1.494-1.404-3.034-1.313-7.062 13.355-18.606 24.492-23.405 38.616m253.202-5.659c-3.577-6.745-6.565-15.89-10.413-21.685-4.663-6.971-14.532-10.095-25.578-9.1-5.07 2.853-7.832 8.06-12.993 10.821-4.889 12.857-4.798 30.784-7.379 45.95.815.181 1.856.136 1.72 1.313-.045 1.992-2.58-.543-2.173 1.313 1.087.95 3.26 2.58 5.207 1.312.135-1.72-3.034-.135-2.173-2.58 1.086-.226 2.625 0 2.58-1.313 1.992-6.474 1.449-13.989 3.033-20.372.317-1.313 1.222-2.082 1.313-3.486.272-5.206-3.35-10.548-.86-15.618 5.025 9.009 1.811 23.812 4.753 35.13 1.313-.317 1.585.453 2.581.453.769 0-.815-2.173.86-2.173 7.741-.951 11.725-7.923 19.512-7.379-2.988 6.111-11.952 6.247-17.792 9.552 1.268.498 2.943.543 3.033 2.173-2.58 1.947-7.288-1.766-8.692.453 2.581 2.308 9.372.452 10.82 3.893 5.795.317 10.82.588 15.166-1.313-4.165-.679-10.277 2.671-12.585-.453 5.523-1.584 10.729-3.44 17.338-3.893 1.63-11.997-2.625-20.146-4.346-27.751-.362-1.585 0-3.124-.452-4.346-.996-2.762-4.799-4.165-3.894-7.379 7.923 5.658 10.413 16.75 15.619 25.125 4.663 4.165 7.922 9.733 11.272 15.166 1.857-.136 3.079-.996 4.346-1.72-2.173-7.199-5.885-14.668-9.823-22.093m-231.97-3.44c-3.983 7.017-7.424 15.12-12.132 21.232-4.618 5.976-11.227 11.046-15.166 17.791-2.083 3.532-2.807 7.606-4.346 11.726 14.849-15.619 25.397-38.979 38.571-57.223 3.893-5.387 8.103-7.017 5.206-14.758-3.712 7.333-8.103 14.124-12.133 21.232m229.344 18.199c-2.309-2.898-3.667-6.746-6.927-8.692-1.177 6.111 3.984 8.148 6.927 8.692m-4.301 33.817c12.586-5.161 25.397-10.141 37.711-15.618 1.358-.589 1.449-.091 3.033 0 .77-3.667-3.486-4.527-6.066-5.659-4.029-1.721-8.421-3.577-13.446-3.894-.905 2.626 4.075 4.663 2.581 7.787-2.309-.407-2.581-2.943-3.486-4.753-1.947.769-3.758 1.765-4.754 3.485-.226 1.766 1.947 3.984 0 4.754-1.267-.634-2.037-1.72-3.033-2.58 1.585-2.898-.95-4.256-2.58-6.927-3.033-4.98-7.334-6.247-12.133-7.787.136 10.956 2.218 20.01 2.173 31.192m-256.687-24.718c.679-1.946 2.897-4.617 2.58-6.066-.588 1.992-3.757 3.757-2.58 6.066m270.993 1.766c.634.679 2.218.362 3.486.452v-1.72c-1.177.408-2.943.227-3.486 1.268m-23.451 1.72c1.404.634 4.392 0 3.034-1.72-.182 1.403-2.309.86-3.034 1.72m-255.329 9.96c3.486-1.449 4.935-7.198 5.659-9.96-3.078 2.173-3.848 6.61-5.659 9.96m177.327 5.206c-4.301-4.256-11.997-7.334-17.339-9.1.046.725-.316 1.132-.86 1.313.272 1.902 1.63 2.581 1.721 4.346.181 3.26-3.577 5.071-4.346 8.692s.679 6.565 1.312 10.413c5.705-4.709 9.055-23.179 19.512-15.664m-111.865 7.786c-.95 5.342 1.947 11.816 1.313 18.652 3.939-6.519 10.82-12.449 16.026-17.791 1.132-1.177 3.848-4.527 3.486-5.659-4.753-1.721-9.643-3.396-13.445-6.067-1.178 4.256-6.52 5.976-7.38 10.865m94.074 31.69c0 .453.226 1.087.452.453 9.1-10.639 15.528-28.747 29.472-33.818-2.083-2.58-5.433-3.802-8.692-5.206-9.507 10.367-13.944 25.895-21.232 38.571m-71.121-35.99c-.317.407-.181.815-.453 1.313-7.243 12.857-22.59 22.635-21.232 43.777 12.449-13.989 23.767-29.155 35.13-44.23-4.572.543-9.325.181-13.445-.86m16.071.86c-8.647 12.268-18.561 25.578-28.204 38.163-5.749 7.515-12.449 13.084-8.692 26.031 9.054-9.054 14.079-22.68 21.232-34.27 7.198-11.68 17.656-20.553 26.031-30.332-3.803-.271-6.972.227-10.367.408m-18.244 47.67c7.424-9.19 14.939-19.693 22.998-29.064 4.074-4.708 9.144-7.832 8.692-15.166-10.368 14.714-22.862 29.517-31.69 44.23m102.765-32.957c-1.403-.362-1.358.679-2.173.86-2.716 6.7-7.877 13.219-9.552 19.512 5.931-8.511 11.273-17.656 17.339-26.031-3.395-4.029-4.935 2.037-5.614 5.659m-80.628 16.071c2.717-4.482 6.927-7.56 8.692-12.993-3.395 3.577-7.062 9.1-8.692 12.993m92.761-3.893c3.667-.815 4.799-4.165 6.519-6.927-.543-.045-.589-.543-1.313-.452-1.63 2.535-3.622 4.753-5.206 7.379m37.756-3.033c1.72.86 3.486 1.72 5.206 2.58.181-2.626-.136-4.799-.453-6.926-3.214-.408-4.346 1.041-4.753 4.346m-129.656 16.886c2.852-3.531 6.202-6.519 7.786-11.273-3.305 2.49-6.564 9.553-7.786 11.273m-34.678 32.957c6.428-11.499 15.528-22.635 21.232-33.365-7.017 10.866-18.833 19.286-21.232 33.365m-112.725-28.611c-1.177 2.58-2.49 5.025-3.486 7.787 3.305 1.177 5.251 3.712 8.692 4.753 1.358-5.161 4.527-8.511 6.066-13.445-3.848.226-7.741.362-11.272.905m-9.552 1.72c.407 2.762 1.946 4.392 4.346 5.206.407-2.625 1.992-4.074 2.58-6.519-2.671.091-4.799.679-6.926 1.313m220.244 4.754c1.493-.634 3.531-.77 4.346-2.173-1.63-.679-2.898-1.766-4.754-2.173-.272 1.856.317 2.897.408 4.346m.452 3.033c-.181 1.494.181 2.445.453 3.486 3.531-.544 5.523-2.581 8.692-3.486-1.268-5.976-5.931-1.358-9.145 0m-55.955.453c.272-.906 2.49-2.083 1.313-3.034-.091 1.087-2.173 2.4-1.313 3.034m-120.059 20.372c2.535 1.358 5.342 2.489 8.239 3.485.453-5.658.951-16.071.861-22.092-2.988 6.248-6.384 12.133-9.1 18.607m120.512-16.887h1.72v-1.72c-1.358-.226-1.222 1.041-1.72 1.72m56.362 4.301c2.762-1.448 8.421-2.309 7.787-5.659-2.037 2.49-6.474 2.49-7.787 5.659m211.598 85.88c10.412-2.49 8.42-17.294 9.552-29.065-.543-.045-.589-.543-1.313-.452-4.256 8.375-5.523 19.647-8.239 29.517m-8.24 3.893c.815-.634 1.902-.996 3.033-1.313 2.128-11.318 6.338-20.553 9.96-30.332.453-.045.362-.543-.453-.452-8.103 4.979-10.412 21.187-12.54 32.097m-13.038 4.753c2.581-.452 4.391-1.675 6.519-2.58 2.264-10.729 7.787-20.553 10.82-29.064-12.676 3.622-12.54 20.1-17.339 31.644m-6.926-19.512c-2.535 8.33-6.565 17.43-7.38 26.031 2.581-1.448 5.795-2.308 8.24-3.893 2.58-9.145 6.655-19.059 9.099-26.891-3.35 1.584-6.383 3.441-9.959 4.753m-80.221 24.311c7.017-6.564 10.232-16.931 16.026-24.718-12.947.589-12.585 14.532-16.026 24.718m19.965-22.138c-4.799 6.338-8.33 13.899-11.273 22.093 4.709-1.947 6.474-7.379 9.1-11.273 2.852-4.255 5.613-8.284 9.099-11.725-1.856-.77-4.889-2.626-7.379-1.313.951 0 .226 1.585.453 2.218m46.403 4.346c-3.984 8.149-6.655 17.611-9.96 26.439 3.486-1.132 6.066-3.169 9.552-4.346 2.219-9.507 7.017-18.742 9.552-26.439-3.078 1.494-5.93 3.124-9.144 4.346m-75.015 15.166c.227 1.54-1.539 1.087-1.312 2.581 1.946.95 2.308 3.486 5.206 3.486.543-8.964 4.119-15.8 7.379-21.233.724-1.222 2.535-2.535 1.72-3.893-9.642 1.041-13.038 8.33-12.993 19.059m29.925.86c3.893-5.658 6.111-12.992 12.132-16.478-1.177-.815-2.127-1.902-3.486-2.581-2.852 6.112-7.469 12.767-8.646 19.059m-33.818-3.44c.77-3.893 3.396-8.149 3.893-10.82-2.852 1.766-5.568 5.976-3.893 10.82m64.149-6.519c-2.58 7.515-5.161 15.075-7.379 22.998 1.721 1.086 4.663.181 6.066-.453 2.49-9.96 8.511-18.652 11.273-26.891-3.033 1.765-6.7 2.852-9.96 4.346m91.493-1.313c2.128.09 1.992-2.535 0-2.58zm-109.284 3.486c1.041-.996 2.58-3.758 1.313-5.659 0 2.037-2.4 3.939-1.313 5.659m10.005 9.099c.769-3.304 3.984-6.428 3.486-9.552-3.26.815-4.12 6.338-3.486 9.552m-55.955 36.851c3.35-7.651 9.914-16.705 6.926-27.751-4.527 6.745-5.976 18.878-6.926 27.751m-3.441-23.858c-4.12 8.285-5.432 19.421-8.239 29.064 2.309-.317 3.848-1.358 5.659-2.173 1.222-10.955 4.255-20.01 8.239-28.204-.045-.543-.136-1.041-.86-.86-1.358 1.041-3.124 1.539-4.799 2.173m-14.758 6.972c.769-.045.996.453.86 1.313-4.12 6.7-5.569 18.425-6.519 26.891 1.946-1.358 4.708-1.947 6.519-3.486 1.403-11.182 6.926-20.553 9.099-29.472-3.033 1.857-7.017 2.762-9.959 4.754m-16.932 5.614c-1.584 6.383-3.667 12.223-3.893 19.964 2.807 1.313 5.206 7.606 8.239 6.066 2.219-1.131 3.35-12.042 4.754-16.026 2.309-6.654 4.21-11.182 6.066-14.758-.045-.272-.045-.498-.453-.453-3.938 2.671-9.824 3.441-14.713 5.207m265.787 3.893c2.671-1.811 5.116-3.848 6.926-6.519-3.576-.725-4.436 4.799-6.926 6.519m9.099 1.313c1.585-1.856 4.346-2.581 5.207-5.206-.815.09-.951-.498-1.721-.453-.815 1.992-3.576 4.255-3.486 5.659m-278.326-4.346c-2.717 1.584-6.384 2.263-9.1 3.893 0 2.852-1.63 4.165-1.313 7.379 2.128 1.494 3.939 3.305 6.067 4.754.633-5.569 5.342-11.635 4.346-16.026m144.822 8.692c1.132-2.083 3.395-5.252 3.033-7.38-1.313 1.902-4.029 4.663-3.033 7.38m33.817-1.313c1.766-.408 2.309-2.037 3.034-3.486-1.177-.272-1.087-1.811-2.581-1.72-.045 1.901.091 3.893-.453 5.206m107.067 2.58c.633.498.679 1.63 1.312 2.173 2.536-2.49 5.297-4.844 7.38-7.786-1.675-.498-2.762-1.585-4.346-2.173-.498 3.576-3.215 4.889-4.346 7.786m-301.325-1.267c.815.362 1.585.724 2.581.86.362-1.811 1.177-3.169 1.72-4.754-2.49.181-3.712 1.721-4.301 3.894m255.374 9.099c3.848-4.255 8.059-8.103 11.726-12.585-5.886 1.947-10.458 7.515-11.726 12.585m0 4.346c-.226.272-4.708 5.75-1.312 2.581 4.481-6.021 11.589-9.643 14.758-16.479-3.758 3.667-9.598 9.643-13.446 13.898m-43.369-13.445c-5.071 8.239-11.59 14.984-16.932 22.997v12.993c10.051-10.05 18.743-21.458 28.612-31.644-1.449 0-1.494 1.403-3.033 1.313.226-1.132 2.399-1.449 1.312-2.581-3.44-.951-5.613-3.078-9.959-3.078m33.817 9.959c-3.531 3.803-7.198 5.388-5.206 11.273 3.26-6.746 7.877-12.042 12.133-17.792-2.536.634-4.165 3.531-6.927 6.519m21.685-5.206c-7.47 7.47-14.894 14.894-21.685 22.545-2.309 2.626-5.976 5.569-5.206 9.96 8.737-9.779 20.689-20.055 28.204-32.505-.091-.317 0-.86-.453-.86 0 .589-.769.407-.86.86m-40.336 0a986 986 0 0 0-24.718 29.064c-2.264 2.762-6.927 7.379-7.38 9.96-.86 5.07 1.358 10.684 0 16.479 8.511-9.507 18.109-21.368 28.204-31.645 2.535-2.626 8.919-8.239 9.552-10.82 1.087-4.391-1.946-9.099 0-12.993-1.901-.045-3.757-.045-5.658-.045m12.585.453c.045 1.856.86 3.169 0 4.753 2.218.091 4.21-3.531 6.066-5.206-2.173-.045-3.576.77-6.066.453m-95.794 12.993c.679-1.087 3.441-2.309 2.173-3.894-.317 1.449-2.807 2.943-2.173 3.894m56.77 46.81c-2.354 2.762-7.198 6.519-5.206 10.82 11.771-16.524 26.665-30.015 39.476-45.543-.724-1.901-.995-4.21-1.312-6.519-12.45 12.269-25.035 26.71-34.678 40.337 8.737-9.055 17.52-20.372 26.891-27.299-7.922 9.371-17.203 18.969-25.171 28.204m44.683-6.474c8.103-10.095 17.701-18.697 25.125-29.471-.09-.317-.362-.498-.86-.453-7.47 10.322-19.421 18.425-24.265 29.924m1.72 5.614c-2.399 2.852-6.293 5.07-6.519 9.099 4.165-5.206 9.281-10.186 14.758-16.026 5.071-5.432 15.483-12.359 15.166-20.824-7.922 8.963-15.845 18.787-23.405 27.751m-21.232-9.552c3.712-4.256 9.914-9.643 10.412-14.759-.09-.317-.362-.498-.86-.452-8.918 8.556-20.96 21.458-30.331 32.097-4.663 5.297-11.182 9.959-8.693 18.652 8.874-11.952 19.15-23.723 29.472-35.538m-104.486-8.647c-4.391 6.293-8.692 12.721-12.993 19.059 2.626 1.72 5.071 3.576 8.24 4.753 3.44-3.395 5.206-7.786 8.239-12.132 3.395-4.889 9.598-9.462 9.552-16.886-.045-.272-.045-.498-.452-.453-4.256 1.856-7.697 4.482-12.586 5.659m117.479 6.066c2.444-3.621 7.153-7.288 7.786-11.272-1.946 4.074-7.831 6.564-7.786 11.272m-156.095-6.066c-.226 2.671 1.358 3.531 2.58 4.753 1.223-2.399 3.124-4.119 4.346-6.519-2.987-.09-5.206.544-6.926 1.766m9.099-1.72c-1.584 2.761-3.983 4.708-5.206 7.786 3.441 1.177 5.75 3.486 9.1 4.754 2.354-4.165 5.478-7.515 7.786-11.726-4.527.408-7.243-1.086-11.68-.814m20.825 1.267c-10.639-2.173-10.639 7.515-15.166 12.586 3.034 1.72 5.704 3.848 9.1 5.206 3.305-5.659 7.56-10.367 10.82-16.026-2.536 1.132-3.396-.543-4.754-1.766m161.301 7.832v2.581c3.667-2.264 7.923-6.248 9.552-9.1-3.078 2.309-5.568 5.161-9.552 6.519m-154.374 18.199c2.671.362 3.848 2.218 6.519 2.581 2.671-3.667 5.161-7.561 7.786-11.273 0-4.527-.407-9.281-.452-12.585-4.754 6.926-9.915 13.49-13.853 21.277m120.104 10.412c8.918-8.556 16.298-18.651 24.718-27.751-8.647 8.828-17.973 17.022-24.718 27.751m28.204-19.964c1.63.045 2.852-2.581 1.72-3.893-.272 1.629-1.63 2.127-1.72 3.893m34.225 7.379c3.531-1.403 5.885-6.247 6.519-9.099-2.083 3.123-4.618 5.794-6.519 9.099m-172.981 6.066c1.811.227 2.535 1.54 4.346 1.721.407-1.856 1.267-7.561-.453-8.692-.86 2.806-3.169 4.074-3.893 6.971m117.478 8.692c2.309-3.485 7.787-6.111 7.787-10.412-2.082 3.667-6.836 7.017-7.787 10.412" clip-rule="evenodd"/><path fill="url(#J)" fill-rule="evenodd" d="M270.596 122.017c-5.207 3.305-6.384 11.634-9.1 19.059-3.667 10.186-8.737 22.409-4.346 34.27-7.696 1.585-8.42-6.202-7.787-14.306.861-11.453 6.927-24.672 12.993-32.957 2.309-3.124 4.89-7.062 8.692-6.519-.09.498.091.77.453.86-.181.634-.77.045-.905-.407" clip-rule="evenodd"/><path fill="url(#K)" fill-rule="evenodd" d="M332.167 292.372c3.576 2.218.543 6.202.452 9.552-.135 4.21 2.309 8.873 1.313 13.853-.815.951-1.267 2.218-3.486 1.72 2.264 6.836 12.948 5.252 12.993 14.306 2.264.408 4.256 1.947 6.066 3.893-.09 3.35 1.675 6.384-.452 9.1 1.629 5.206 6.338 12.133 3.033 18.199-1.992.724-6.655.724-8.692 0-1.63 9.597.951 18.018 1.72 28.611 1.313 18.335-.86 39.929-.86 58.943 0 5.116.317 11.952.86 16.479 1.177 9.733-2.942 22.952.453 27.751 3.531 5.025 12.993 3.667 16.479 7.379-2.219 4.754-10.911 2.943-16.479 4.346-.815 1.721 3.757 1.721 3.033 4.754-4.165.362-7.877-5.206-12.585-4.346-3.713-5.659-14.623-4.165-15.619-12.586 6.157-1.765 9.371 3.034 13.446 4.754-1.992-17.248-5.161-35.085-7.787-52.469-1.539-10.051-.996-19.286-5.659-26.031-7.696 18.787-4.799 48.123-10.82 68.495 1.087 4.935 5.388 3.893 7.787 7.379.407 2.4-1.087 2.943-1.72 4.346 5.115 2.445 9.778 5.931 14.305 9.1 4.437 3.123 9.417 6.021 12.586 10.412-3.622.272-6.927-2.309-9.96-3.893-9.281-4.844-18.969-10.141-28.204-15.166-2.852.272-4.617-.589-6.066-1.72-.317-33.003.453-66.685.453-97.967 0-7.334 2.308-14.623 2.58-21.685.226-5.387-1.766-11.725-.86-17.339-8.602-2.218-4.482-18.878-2.173-25.125-2.898-10.73 11.272-14.804 16.931-21.232-2.399-6.203-5.84-14.397-.453-19.06 4.347-3.712 12.178-1.494 17.385-4.753m-7.38 15.211c-1.901.634-1.131-1.449-2.58-1.313-.634 4.256 2.897 8.013 7.379 8.692 1.177-4.255 1.63-12.495-2.173-14.305-1.267 1.856-.951 5.387-2.626 6.926m-5.613 9.1c-2.762 5.93-9.371 7.967-14.759 11.272-1.81 2.807-2.49 6.745-4.346 9.552 2.988 13.355 6.021 26.62 7.38 41.604-.363 1.675-2.852 1.223-3.034 3.034 3.984 2.942 12.722 1.177 15.619 5.206.362 2.082-1.358 2.128-2.173 3.033 5.432.453 9.507.453 12.585-2.173-2.716-.589-8.103 1.494-8.239-1.72 5.749-1.766 12.857-2.173 17.339-5.207-1.041-9.914-.679-20.507.453-31.237-1.494-2.218-4.437-13.355-.861-14.758 3.396 7.515 3.35 15.89 3.894 26.031 1.901-.679 4.889-.317 6.066-1.72-2.173-4.211-.498-12.224-4.346-14.759.996-.95-.362-1.494 0-3.033-1.087.045-2.082.091-2.173-.86-.996-5.116-1.811-10.322-4.346-13.853-1.222-.091-.86 1.449-2.58.86-1.178-6.791-11.092-4.799-15.166-8.692-.272-1.72 2.988.091 2.58-1.72-1.132-.453-2.128-1.042-3.893-.86m-16.071 88.867c.181-.543.543-.906 1.312-.86-.316-1.268-.679-2.49-1.72-3.034.272 1.178-.543 3.441.408 3.894m2.625 6.519c-.452-1.585.996-5.025-.86-5.206.453 1.539-.996 5.025.86 5.206" clip-rule="evenodd"/><path fill="url(#L)" fill-rule="evenodd" d="M196.488 246.875c1.766.543-.09 4.391-.453 5.658 1.177 2.762 3.939 4.528 4.754 7.787.362 1.494-.453 3.35 0 4.754 1.267 4.029 4.391 3.395 7.379 6.066-.77 2.942-5.614-.77-5.659 3.033.272 1.494 2.762.724 2.581 2.58-.725 4.754-4.799 6.157-4.346 12.133 4.889-2.761 6.609-12.449 11.725-16.479-2.445-5.794-6.248-12.54-6.519-19.059 2.852.408 4.029 4.573 5.659 7.379 1.448 2.536 4.346 5.614 4.753 7.787.906 4.754-2.807 6.429-3.033 11.273-3.35 5.296-8.013 9.325-12.133 13.853-.362 6.564 2.535 13.264 3.486 19.511.679 4.618-.453 10.186-.453 15.619.046 9.326 2.762 18.742.861 26.891-.815.951-1.313 2.128-2.173 3.033.86 14.759-1.132 28.249 0 40.337.86 9.371 11.861 11.815 19.964 15.618-3.214 2.581-10.367 1.223-15.618 1.721-.906.588 1.584 2.987 0 4.346-4.528 1.448-9.372-1.585-13.853-3.034-4.844-1.539-9.688-2.806-14.306-4.346 2.988-3.848 10.548.408 15.618 0 2.49-10.367-1.946-19.195-3.893-31.237-1.539-9.552-3.44-16.659-3.893-26.891-.091-2.399.362-4.98 0-7.379-1.041-6.972-5.206-13.31-5.206-19.964-6.067 8.963-4.754 25.306-10.82 34.27-2.852 15.075-6.655 29.2-9.552 44.23 2.444 4.617 5.93 8.239 8.692 12.585 5.025.86 16.207.543 16.026 5.206-.227 6.202-22.681-2.309-26.031-2.58-4.12-.362-7.923.362-9.1-2.581.77-4.119 2.264-7.56 4.754-9.959-.408-.77-1.766-.544-1.313-2.173.996-21.142-3.893-52.062 6.066-67.635-2.988-10.232-2.037-21.368-2.58-32.958-.227-5.206 3.35-10.095 3.033-14.305-.362-4.392-6.202-5.976-4.346-10.413 2.943.679 3.395 3.848 5.659 5.206 2.671-8.556-7.832-14.894-7.787-19.059.045-3.305 6.067-5.659 8.692-8.692.86-.996.453-2.128 2.173-2.58 3.531 3.259 4.754 9.914 3.894 15.618-.498 3.396 1.675 7.787-.861 9.96-5.477-3.124.046-13.129-3.033-19.059-2.897.588-4.255 2.716-6.926 3.486 2.263 5.84 5.749 10.412 6.926 17.338 3.848-.362 10.956 6.655 6.927 9.96-1.947-1.222-1.404-4.934-4.346-5.206-1.811.09-1.358 2.399-3.486 2.173 1.041 2.264 4.119 2.535 6.066 3.893-.634 2.173-2.49 2.354-.86 4.754 3.078-.362 8.194.226 12.585-.453-2.806-1.992-8.692-.86-10.819-3.486.86-2.535 3.44-.905 5.658-.86 5.342.091 11.273-.317 16.479 0-2.354-4.346 1.766-6.474 2.581-9.099 2.173-6.746-1.675-16.389 2.58-21.233-.724-2.942-5.116-8.782-5.206-12.585-.045-1.585.272-4.618 3.033-4.753m3.893 27.751c.091-1.766 1.494-2.264 1.721-3.894-1.223-.09-.544-2.082-2.173-1.72.09 1.675-1.449 4.799.452 5.614m-3.485 26.891h1.72c-.227-.634.498-2.264-.453-2.173-.09.996-1.449.769-1.267 2.173m-12.993 3.44c-4.573 7.425-12.948 13.355-14.759 22.093 4.98-4.98 8.964-12.042 13.853-16.932 2.807-2.761 8.647-6.519 8.24-9.099-2.49.679-5.569.769-7.787 1.72.951 0 .226 1.585.453 2.218m-15.619 8.692c1.268-2.535 5.931-6.156 5.206-7.786-1.675 2.309-5.568 4.799-5.206 7.786m21.685 9.96c1.947-5.025 9.597-8.873 7.787-14.758-2.581 4.617-7.742 9.054-7.787 14.758m9.1 37.711c.135-2.49 1.222-5.75-1.313-6.519 1.041 1.584-.363 5.614 1.313 6.519" clip-rule="evenodd"/><defs><linearGradient id="a" x1="638.401" x2="638.401" y1=".087" y2="58.347" gradientUnits="userSpaceOnUse"><stop stop-color="#1F2645"/><stop offset="1" stop-color="#BEA6D5"/></linearGradient><linearGradient id="b" x1="536.507" x2="536.507" y1="20.972" y2="89.478" gradientUnits="userSpaceOnUse"><stop stop-color="#1F2645"/><stop offset="1" stop-color="#BEA6D5"/></linearGradient><linearGradient id="c" x1="743.994" x2="743.994" y1="58.682" y2="129.58" gradientUnits="userSpaceOnUse"><stop stop-color="#1F2645"/><stop offset="1" stop-color="#BEA6D5"/></linearGradient><linearGradient id="d" x1="486.966" x2="486.966" y1="59.995" y2="70.408" gradientUnits="userSpaceOnUse"><stop stop-color="#1F2645"/><stop offset="1" stop-color="#BEA6D5"/></linearGradient><linearGradient id="e" x1="817.538" x2="817.538" y1="88.961" y2="95.126" gradientUnits="userSpaceOnUse"><stop stop-color="#1F2645"/><stop offset="1" stop-color="#BEA6D5"/></linearGradient><linearGradient id="f" x1="567.634" x2="567.634" y1="106.806" y2="116.358" gradientUnits="userSpaceOnUse"><stop stop-color="#1F2645"/><stop offset="1" stop-color="#BEA6D5"/></linearGradient><linearGradient id="g" x1="649.081" x2="649.081" y1="115.266" y2="141.205" gradientUnits="userSpaceOnUse"><stop stop-color="#1F2645"/><stop offset="1" stop-color="#BEA6D5"/></linearGradient><linearGradient id="h" x1="702.891" x2="702.891" y1="126.317" y2="145.532" gradientUnits="userSpaceOnUse"><stop stop-color="#1F2645"/><stop offset="1" stop-color="#BEA6D5"/></linearGradient><linearGradient id="i" x1="812.763" x2="812.763" y1="129.351" y2="156.708" gradientUnits="userSpaceOnUse"><stop stop-color="#1F2645"/><stop offset="1" stop-color="#BEA6D5"/></linearGradient><linearGradient id="j" x1="617.31" x2="617.31" y1="154.929" y2="159.682" gradientUnits="userSpaceOnUse"><stop stop-color="#1F2645"/><stop offset="1" stop-color="#BEA6D5"/></linearGradient><linearGradient id="k" x1="804.125" x2="804.125" y1="157.557" y2="177.112" gradientUnits="userSpaceOnUse"><stop stop-color="#1F2645"/><stop offset="1" stop-color="#BEA6D5"/></linearGradient><linearGradient id="l" x1="835.987" x2="835.987" y1="173.22" y2="196.331" gradientUnits="userSpaceOnUse"><stop stop-color="#1F2645"/><stop offset="1" stop-color="#BEA6D5"/></linearGradient><linearGradient id="m" x1="788.9" x2="788.9" y1="177.473" y2="196.731" gradientUnits="userSpaceOnUse"><stop stop-color="#1F2645"/><stop offset="1" stop-color="#BEA6D5"/></linearGradient><linearGradient id="n" x1="121.194" x2="121.194" y1="178.603" y2="230.125" gradientUnits="userSpaceOnUse"><stop stop-color="#1F2645"/><stop offset="1" stop-color="#BEA6D5"/></linearGradient><linearGradient id="o" x1="53.357" x2="53.357" y1="199.541" y2="228.315" gradientUnits="userSpaceOnUse"><stop stop-color="#1F2645"/><stop offset="1" stop-color="#BEA6D5"/></linearGradient><linearGradient id="p" x1="175.566" x2="175.566" y1="206.479" y2="283.725" gradientUnits="userSpaceOnUse"><stop stop-color="#1F2645"/><stop offset="1" stop-color="#BEA6D5"/></linearGradient><linearGradient id="q" x1="258.14" x2="258.14" y1="225.19" y2="460.69" gradientUnits="userSpaceOnUse"><stop stop-color="#1F2645"/><stop offset="1" stop-color="#BEA6D5"/></linearGradient><linearGradient id="r" x1="571.716" x2="571.716" y1="267.201" y2="280.817" gradientUnits="userSpaceOnUse"><stop stop-color="#1F2645"/><stop offset="1" stop-color="#BEA6D5"/></linearGradient><linearGradient id="s" x1="541.792" x2="541.792" y1="268.061" y2="285.385" gradientUnits="userSpaceOnUse"><stop stop-color="#1F2645"/><stop offset="1" stop-color="#BEA6D5"/></linearGradient><linearGradient id="t" x1="584.279" x2="584.279" y1="269.419" y2="277.417" gradientUnits="userSpaceOnUse"><stop stop-color="#1F2645"/><stop offset="1" stop-color="#BEA6D5"/></linearGradient><linearGradient id="u" x1="595.745" x2="595.745" y1="270.28" y2="276.817" gradientUnits="userSpaceOnUse"><stop stop-color="#1F2645"/><stop offset="1" stop-color="#BEA6D5"/></linearGradient><linearGradient id="v" x1="529.003" x2="529.003" y1="274.58" y2="283.499" gradientUnits="userSpaceOnUse"><stop stop-color="#1F2645"/><stop offset="1" stop-color="#BEA6D5"/></linearGradient><linearGradient id="w" x1="519.247" x2="519.247" y1="278.266" y2="283.937" gradientUnits="userSpaceOnUse"><stop stop-color="#1F2645"/><stop offset="1" stop-color="#BEA6D5"/></linearGradient><linearGradient id="x" x1="508.836" x2="508.836" y1="279.615" y2="283.987" gradientUnits="userSpaceOnUse"><stop stop-color="#1F2645"/><stop offset="1" stop-color="#BEA6D5"/></linearGradient><linearGradient id="y" x1="371.156" x2="371.156" y1="307.824" y2="333.135" gradientUnits="userSpaceOnUse"><stop stop-color="#1F2645"/><stop offset="1" stop-color="#BEA6D5"/></linearGradient><linearGradient id="z" x1="420.491" x2="420.491" y1="395.718" y2="427.201" gradientUnits="userSpaceOnUse"><stop stop-color="#1F2645"/><stop offset="1" stop-color="#BEA6D5"/></linearGradient><linearGradient id="A" x1="147.706" x2="147.706" y1="424.12" y2="431.143" gradientUnits="userSpaceOnUse"><stop stop-color="#1F2645"/><stop offset="1" stop-color="#BEA6D5"/></linearGradient><linearGradient id="B" x1="126.642" x2="126.642" y1="428.547" y2="436.757" gradientUnits="userSpaceOnUse"><stop stop-color="#1F2645"/><stop offset="1" stop-color="#BEA6D5"/></linearGradient><linearGradient id="C" x1="106.305" x2="106.305" y1="437.072" y2="440.677" gradientUnits="userSpaceOnUse"><stop stop-color="#1F2645"/><stop offset="1" stop-color="#BEA6D5"/></linearGradient><linearGradient id="D" x1="236.788" x2="236.788" y1="437.602" y2="459.792" gradientUnits="userSpaceOnUse"><stop stop-color="#1F2645"/><stop offset="1" stop-color="#BEA6D5"/></linearGradient><linearGradient id="E" x1="208.141" x2="208.141" y1="449.704" y2="457.191" gradientUnits="userSpaceOnUse"><stop stop-color="#1F2645"/><stop offset="1" stop-color="#BEA6D5"/></linearGradient><linearGradient id="F" x1="188.447" x2="188.447" y1="459.678" y2="464.291" gradientUnits="userSpaceOnUse"><stop stop-color="#1F2645"/><stop offset="1" stop-color="#BEA6D5"/></linearGradient><linearGradient id="G" x1="298.369" x2="298.369" y1="502.895" y2="523.991" gradientUnits="userSpaceOnUse"><stop stop-color="#1F2645"/><stop offset="1" stop-color="#BEA6D5"/></linearGradient><linearGradient id="H" x1="286.013" x2="286.013" y1="519.135" y2="530" gradientUnits="userSpaceOnUse"><stop stop-color="#1F2645"/><stop offset="1" stop-color="#BEA6D5"/></linearGradient><linearGradient id="I" x1="552.112" x2="552.112" y1="58.179" y2="474.543" gradientUnits="userSpaceOnUse"><stop stop-color="#1F2645"/><stop offset="1" stop-color="#BEA6D5"/></linearGradient><linearGradient id="J" x1="260.343" x2="260.343" y1="121.513" y2="175.553" gradientUnits="userSpaceOnUse"><stop stop-color="#1F2645"/><stop offset="1" stop-color="#BEA6D5"/></linearGradient><linearGradient id="K" x1="328.657" x2="328.657" y1="292.372" y2="520.332" gradientUnits="userSpaceOnUse"><stop stop-color="#1F2645"/><stop offset="1" stop-color="#BEA6D5"/></linearGradient><linearGradient id="L" x1="186.913" x2="186.913" y1="246.875" y2="426.414" gradientUnits="userSpaceOnUse"><stop stop-color="#1F2645"/><stop offset="1" stop-color="#BEA6D5"/></linearGradient></defs></svg>