<svg width="930" height="600" viewBox="0 0 930 600" fill="none" xmlns="http://www.w3.org/2000/svg">
<path fill-rule="evenodd" clip-rule="evenodd" d="M643.449 1.05229C631.181 6.89226 617.871 11.6005 603.973 15.8107C614.475 26.6757 630.23 32.3346 640.371 43.5619C650.194 44.9653 657.03 53.7026 666.809 53.9742C668.076 54.0195 669.842 53.2499 671.562 53.1141C674.369 52.8424 678.081 53.7931 680.662 53.1141C684.646 52.0728 686.638 44.7389 691.074 41.8416C695.556 38.9442 700.491 38.8537 706.24 40.5287C704.384 42.5206 700.989 41.1625 698.453 41.8416C689.399 44.1957 690.124 55.6493 681.115 57.4601C678.715 57.9581 675.863 57.279 673.328 57.4601C669.706 57.7317 666.311 58.5013 663.368 58.3202C651.371 57.5506 643.313 49.0849 633.037 42.2943C628.374 39.2158 623.982 35.911 619.591 32.3346C613.57 27.4001 608.138 23.0088 600.939 21.9223C597.318 17.2141 588.445 22.9182 584.008 19.3418C583.193 16.1728 588.49 15.4938 591.387 14.5883C585.321 9.97069 576.855 7.70714 570.562 3.31584C573.822 -0.351118 578.802 2.2746 584.415 5.03614C589.395 7.48078 593.515 9.20109 596.141 12.8228C610.22 8.74838 627.197 4.22127 640.778 0.237412C641.14 0.101599 643.177 -0.260576 643.449 1.05229Z" fill="url(#paint0_linear_38_1489)"/>
<path fill-rule="evenodd" clip-rule="evenodd" d="M575.404 20.9716C575.857 20.9716 576.264 20.9716 576.717 20.9716C576.4 23.7331 572.914 23.6426 571.058 24.4575C561.732 28.4866 550.913 34.236 540.274 37.903C532.94 40.4382 526.511 42.2037 521.622 46.595C523.614 54.4269 533.347 54.5175 541.994 55.6945C545.48 58.5466 550.55 59.8595 552.814 63.9339C554.806 73.3503 549.057 81.0916 540.681 84.7586C538.463 85.7093 535.068 85.7093 531.989 86.4789C529.364 87.158 526.647 88.7425 524.61 89.0593C519.359 89.8742 512.432 89.3763 508.131 88.6066C503.333 87.7465 499.485 83.1288 496.406 80.82C496.949 77.8774 495.003 72.4901 498.126 72.1279C497.81 74.7537 498.806 76.0665 498.579 78.647C507.271 87.1127 525.38 85.6187 537.15 80.82C542.266 78.7375 550.324 72.8523 548.875 65.6542C546.974 56.102 529.001 62.0325 521.577 55.2418C520.762 54.5175 516.688 48.6322 516.823 46.5498C517.05 42.5206 521.396 44.0146 522.89 39.6233C540.093 33.059 556.843 26.1325 575.404 20.9716Z" fill="url(#paint1_linear_38_1489)"/>
<path fill-rule="evenodd" clip-rule="evenodd" d="M732.767 58.6824C733.22 58.6824 733.627 58.6824 734.08 58.6824C737.521 62.8473 733.854 68.8231 730.594 70.4076C725.524 69.14 719.91 72.2637 714.115 72.5806C708.592 72.8523 699.719 70.3171 698.95 77.7868C718.054 88.8782 740.146 97.027 758.345 109.024C759.07 110.02 759.975 110.835 760.518 112.057C769.12 109.25 778.4 104.814 787.817 104.27C787.092 106.353 784.24 106.217 782.611 106.851C777.767 108.798 771.927 111.785 766.992 114.23C771.112 116.584 776.273 118.667 780.845 121.157C785.101 123.465 790.759 125.276 792.118 129.396C785.825 130.528 781.977 126.182 777.812 123.33C773.919 120.613 768.939 115.996 764.366 115.95C756.172 115.86 748.567 127.585 740.101 121.609C744.175 117.761 751.736 117.309 756.58 114.23C738.924 99.517 712.531 93.4959 695.871 77.8321C696.641 75.4327 696.55 72.1732 697.591 70.0455C707.506 65.9258 728.059 72.4901 732.722 63.119C733.175 61.2176 731.635 59.95 732.767 58.6824Z" fill="url(#paint2_linear_38_1489)"/>
<path fill-rule="evenodd" clip-rule="evenodd" d="M478.3 59.9953C478.571 59.9953 478.888 59.9953 479.16 59.9953C485.724 62.123 495.819 62.9832 495.638 70.4076C489.663 68.1894 485.996 63.1643 478.707 61.7156C478.39 61.3534 478.254 60.7649 478.3 59.9953Z" fill="url(#paint3_linear_38_1489)"/>
<path fill-rule="evenodd" clip-rule="evenodd" d="M826.434 89.0594C821.092 91.6851 815.75 94.2655 808.643 95.1257C810.137 90.9155 821.545 88.4256 826.434 89.0594Z" fill="url(#paint4_linear_38_1489)"/>
<path fill-rule="evenodd" clip-rule="evenodd" d="M565.85 106.806C568.34 108.39 569.788 113.234 569.335 116.358C566.302 115.317 565.985 109.386 565.85 106.806Z" fill="url(#paint5_linear_38_1489)"/>
<path fill-rule="evenodd" clip-rule="evenodd" d="M674.682 139.356C672.102 144.833 661.599 136.685 659.924 133.697C657.117 128.672 657.841 124.371 651.684 122.424C649.783 121.836 647.429 122.107 645.165 121.564C638.013 119.844 632.354 117.218 623.48 117.218C626.151 114.728 630 115.226 633.893 115.498C643.581 116.086 656.845 118.123 661.191 123.737C662.912 125.955 662.595 128.988 663.772 131.116C666.488 135.824 671.83 135.417 674.682 139.356Z" fill="url(#paint6_linear_38_1489)"/>
<path fill-rule="evenodd" clip-rule="evenodd" d="M728.469 126.317C726.386 129.351 721.995 130.618 718.057 132.836C711.085 136.73 703.932 139.22 694.651 142.389C688.902 144.335 678.852 148.998 677.312 141.076C679.486 138.993 681.523 140.714 683.832 140.623C690.215 140.397 698.318 136.549 705.924 134.104C714.118 131.524 720.863 127.721 728.469 126.317Z" fill="url(#paint7_linear_38_1489)"/>
<path fill-rule="evenodd" clip-rule="evenodd" d="M792.617 129.351C792.889 129.351 793.206 129.351 793.477 129.351C803.799 135.236 815.796 142.253 825.982 149.315C828.472 151.036 832.41 152.258 832.908 155.834C829.151 158.505 824.85 154.386 822.089 152.348C812.899 145.648 801.581 137.952 793.025 130.664C792.527 130.618 792.662 129.894 792.617 129.351Z" fill="url(#paint8_linear_38_1489)"/>
<path fill-rule="evenodd" clip-rule="evenodd" d="M623.074 154.929C623.21 157.6 619.226 159.682 615.288 159.682C615.152 157.373 610.398 157.781 611.802 155.336C613.251 155.472 614.473 155.88 614.382 157.509C619.317 158.686 619.634 155.246 623.074 154.929Z" fill="url(#paint9_linear_38_1489)"/>
<path fill-rule="evenodd" clip-rule="evenodd" d="M835.986 158.007C836.756 161.674 831.957 161.765 829.467 162.353C814.483 165.884 790.353 160.769 779.624 169.732C776.817 172.087 777.768 175.663 773.105 177.112C770.615 173.988 773.739 169.551 775.685 167.559C786.641 156.604 815.162 161.131 834.221 158.867C833.678 157.147 835.443 157.419 835.986 158.007Z" fill="url(#paint10_linear_38_1489)"/>
<path fill-rule="evenodd" clip-rule="evenodd" d="M861.97 174.033C862.603 177.791 857.261 177.474 855.043 178.379C848.569 180.914 845.898 187.071 839.877 190.965C831.864 196.08 820.411 196.714 809.953 196.171C819.686 192.911 826.568 192.413 834.671 188.384C844.631 183.359 848.117 169.778 861.97 174.033Z" fill="url(#paint11_linear_38_1489)"/>
<path fill-rule="evenodd" clip-rule="evenodd" d="M772.652 177.474C774.735 177.429 774.327 179.873 774.825 181.367C783.064 187.569 794.79 190.286 805.157 194.36C801.626 199.521 793.341 194.994 787.818 192.64C785.011 191.417 775.097 185.804 773.512 183.087C772.697 181.684 772.607 179.149 772.652 177.474Z" fill="url(#paint12_linear_38_1489)"/>
<path fill-rule="evenodd" clip-rule="evenodd" d="M114.501 180.96C110.653 183.767 104.631 184.4 101.508 187.886C114.682 197.257 143.882 194.269 150.944 210.431C155.335 220.481 140.713 228.675 130.572 229.49C124.596 229.988 117.941 231.12 113.233 228.178C117.307 223.198 125.411 225.959 132.292 225.144C139.264 224.329 151.08 217.358 144.877 209.526C139.717 202.961 129.349 201.966 118.847 199.113C115.542 198.208 112.961 196.261 110.607 195.628C103.454 193.817 90.7332 194.722 90.6427 187.388C90.5974 181.865 104.45 180.054 110.607 178.696C112.192 178.47 114.003 178.47 114.501 180.96Z" fill="url(#paint13_linear_38_1489)"/>
<path fill-rule="evenodd" clip-rule="evenodd" d="M106.714 228.223C96.5729 228.404 88.3335 228.721 81.1354 224.737C71.8548 219.621 67.8257 206.628 58.1377 204.772C53.2937 203.867 47.001 206.674 42.5191 207.805C31.971 210.431 22.7809 212.74 13.4551 216.045C9.29015 217.539 4.35559 220.708 0.00956158 218.218C-0.216794 215.004 3.63125 215.004 5.66845 214.325C16.6241 210.658 29.2547 207.308 41.659 203.505C47.0463 201.83 54.0633 198.253 59.858 200.019C71.7643 203.686 77.559 219.531 91.0951 224.284C96.5276 226.231 102.232 224.737 106.714 228.223Z" fill="url(#paint14_linear_38_1489)"/>
<path fill-rule="evenodd" clip-rule="evenodd" d="M184.756 226.91C182.131 226.095 180.229 228.675 179.097 231.663C181.18 232.614 182.629 234.199 185.616 234.244C187.88 232.524 185.299 229.49 184.756 226.91C186.884 226.819 188.061 227.68 190.415 227.363C192.814 224.692 191.637 218.444 192.588 214.37C197.296 216.996 197.613 232.478 189.102 230.848C188.152 235.33 193.901 234.38 196.029 236.055C197.432 237.141 196.979 239.088 198.202 240.401C198.7 240.944 200.058 240.763 200.782 241.261C203.951 243.434 207.03 247.735 205.536 250.813C199.288 248.414 200.148 238.861 191.23 239.088C190.008 239.586 189.238 240.537 188.65 241.668C186.522 241.623 186.884 239.088 185.616 238.182C186.884 250.089 196.119 271.049 187.337 283.725C177.151 276.482 187.563 254.163 182.583 239.088C181.542 238.047 180.093 242.619 178.69 241.261C177.92 239.178 176.517 238.047 175.204 235.602C172.624 236.19 170.632 237.368 168.685 238.635C168.096 239.541 168.911 239.903 168.232 241.216C165.833 244.385 160.355 246.195 157.412 250.768C156.688 251.854 156.869 253.439 156.1 254.661C153.791 258.464 148.947 261.859 148.72 266.386C148.449 272.407 155.285 274.082 153.474 279.832C150.712 279.017 145.642 272.181 145.235 269.012C144.782 265.526 150.033 255.702 152.161 252.986C154.425 250.089 157.503 248.233 158.227 245.607C157.412 244.656 156.462 247.282 154.334 246.467C153.7 242.936 157.548 242.8 159.088 239.948C164.158 230.577 162.256 213.917 170.813 207.443C178.554 209.39 191.592 201.377 193.358 212.65C189.917 212.65 187.02 213.917 184.666 216.996C182.9 217.312 183.579 215.185 182.085 215.275C182.402 217.856 184.711 224.058 184.756 226.91ZM169.138 235.149C174.751 234.878 177.558 228.63 173.031 225.19C170.767 227.544 171.175 232.569 169.138 235.149Z" fill="url(#paint15_linear_38_1489)"/>
<path fill-rule="evenodd" clip-rule="evenodd" d="M265.84 225.19C268.375 226.548 266.519 229.807 266.293 232.976C265.885 237.866 267.56 244.113 266.293 248.595C265.07 249.681 263.712 250.632 261.086 250.315C262.49 252.986 264.663 254.797 265.84 257.694C273.445 259.731 276.931 266.386 282.318 273.72C286.302 279.153 290.467 283.272 291.871 288.479C293.636 294.952 287.796 299.615 284.492 303.644C281.73 307.04 278.697 309.756 276.252 312.744C276.433 315.46 279.285 315.596 279.738 318.403C280.327 322.251 277.384 326.371 274.532 327.955C280.553 359.373 277.565 394.866 278.425 426.827C281.821 431.671 290.196 431.535 295.357 434.614C291.509 440.906 278.561 438.054 270.231 439.82C271.046 442.763 276.162 441.404 275.89 445.479C272.178 445.207 268.375 442.853 264.617 441.586C261.177 440.409 255.971 439.865 256.831 434.206C260.362 434.252 263.938 437.692 267.651 438.96C267.243 424.699 264.21 408.04 261.584 391.289C259.411 377.482 259.23 363.176 253.798 353.578C247.686 366.481 249.09 389.479 246.011 407.361C244.698 414.921 241.258 422.391 245.558 426.012C248.229 428.276 251.263 427.37 251.217 430.358C251.127 434.614 243.929 433.663 240.397 433.844C253.436 438.688 264.708 445.569 275.528 452.903C278.968 455.257 283.631 456.661 285.487 460.69C280.508 460.328 276.116 457.295 271.635 455.031C262.716 450.595 253.39 446.113 243.883 442.038C239.311 440.046 233.924 438.734 230.891 434.659C232.022 431.354 231.796 428.276 231.751 423.839C231.389 397.944 232.203 361.954 232.203 334.972C232.203 330.898 233.878 326.597 233.516 322.839C233.018 318.131 227.993 313.876 232.656 309.394C229.125 303.644 224.779 298.529 222.244 291.602C221.836 290.471 220.976 289.384 220.931 288.569C220.705 284.223 226.001 277.251 228.31 272.951C231.117 267.699 234.693 263.353 237.41 259.505C239.945 258.283 242.118 256.698 244.789 255.612C246.147 253.348 246.464 250.043 248.682 248.685C245.739 242.393 243.657 233.836 249.542 229.173C254.975 228.223 261.494 225.914 265.84 225.19ZM258.008 240.355C256.469 240.582 256.921 238.816 255.427 239.043C255.427 242.528 257.465 246.512 261.946 246.829C263.893 243.751 263.622 236.507 261.946 233.384C261.494 233.384 261.086 233.384 260.634 233.384C259.547 235.511 259.864 238.997 258.008 240.355ZM233.335 291.512C234.784 294.681 236.006 298.121 238.541 300.204C237.364 296.446 237.681 291.24 235.508 288.479C235.055 289.792 233.38 289.837 233.335 291.512ZM273.219 296.718C275.03 295.948 275.528 293.821 276.252 291.965C275.392 290.787 274.577 289.61 272.766 289.384C272.449 292.281 273.445 293.866 273.219 296.718ZM233.743 316.23C236.459 316.456 236.549 312.834 235.916 311.024C235.463 311.024 235.055 311.024 234.603 311.024C234.557 312.88 232.656 314.6 233.743 316.23ZM274.487 323.156C275.664 322.16 276.524 320.848 277.067 319.263C275.845 318.493 275.483 316.818 274.034 316.23C272.676 317.452 271.816 322.658 274.487 323.156ZM235.916 337.915C236.73 338.005 236.866 337.417 237.636 337.462C237.636 336.013 237.047 335.153 236.323 334.429C235.689 335.063 235.961 336.647 235.916 337.915ZM238.949 344.841C239.175 343.302 240.035 340.495 238.496 339.635C238.179 340.812 237.319 344.388 238.949 344.841Z" fill="url(#paint16_linear_38_1489)"/>
<path fill-rule="evenodd" clip-rule="evenodd" d="M582.332 280.239C578.031 282.503 574.59 277.523 571.512 275.486C567.936 273.132 563.861 271.728 561.1 268.967C561.1 268.514 561.1 268.107 561.1 267.654C561.462 267.428 561.824 267.201 562.412 267.201C569.565 271.049 579.57 272.045 582.332 280.239Z" fill="url(#paint17_linear_38_1489)"/>
<path fill-rule="evenodd" clip-rule="evenodd" d="M555.441 284.133C550.733 288.116 545.481 281.552 541.588 278.926C536.88 275.803 531.674 273.132 528.143 269.827C528.143 269.374 528.143 268.967 528.143 268.514C528.505 268.423 528.595 268.061 529.003 268.061C529.274 268.061 529.591 268.061 529.863 268.061C538.238 273.63 550.325 275.395 555.441 284.133Z" fill="url(#paint18_linear_38_1489)"/>
<path fill-rule="evenodd" clip-rule="evenodd" d="M590.572 277.206C585.954 278.609 579.344 272.679 577.986 269.419C582.695 269.782 588.897 272.362 590.572 277.206Z" fill="url(#paint19_linear_38_1489)"/>
<path fill-rule="evenodd" clip-rule="evenodd" d="M600.53 276.346C596.999 278.383 594.056 273.222 590.978 272C591.023 271.321 590.751 270.325 591.43 270.28C594.735 270.37 599.76 272.362 600.53 276.346Z" fill="url(#paint20_linear_38_1489)"/>
<path fill-rule="evenodd" clip-rule="evenodd" d="M535.929 283.272C530.542 284.812 526.603 278.066 522.076 275.893C522.076 275.441 522.076 275.033 522.076 274.58C527.373 275.124 534.209 277.795 535.929 283.272Z" fill="url(#paint21_linear_38_1489)"/>
<path fill-rule="evenodd" clip-rule="evenodd" d="M523.797 283.725C519.949 284.902 517.776 280.828 514.697 279.832C514.697 279.379 514.697 278.972 514.697 278.519C518.862 277.478 523.253 279.741 523.797 283.725Z" fill="url(#paint22_linear_38_1489)"/>
<path fill-rule="evenodd" clip-rule="evenodd" d="M511.212 283.272C509.537 285.129 506.504 283.046 506.459 280.692C507.5 277.93 511.122 281.099 511.212 283.272Z" fill="url(#paint23_linear_38_1489)"/>
<path fill-rule="evenodd" clip-rule="evenodd" d="M386.355 307.99C380.877 311.341 370.419 310.254 365.123 314.057C363.448 315.279 360.369 318.765 360.369 320.983C360.369 327.185 369.016 327.593 370.782 333.116C364.76 333.523 356.657 327.457 356.023 322.296C354.71 311.069 373.226 306.904 386.355 307.99Z" fill="url(#paint24_linear_38_1489)"/>
<path fill-rule="evenodd" clip-rule="evenodd" d="M473.953 399.031C479.793 401.702 491.427 403.784 487.806 413.336C487.398 414.423 486.402 414.196 485.633 415.509C483.958 418.361 483.867 420.851 481.287 422.436C478.344 424.247 471.508 425.062 466.528 425.922C450.095 428.729 425.241 427.778 420.985 414.196C420.397 412.295 420.623 409.126 420.125 407.677C415.508 394.051 393.959 404.871 382.822 407.677C370.825 410.711 361.816 409.715 352.49 414.604C354.754 410.982 359.462 409.398 363.31 407.677C371.142 404.192 380.649 401.158 390.201 398.985C399.799 396.812 414.331 392.647 423.158 399.438C425.784 401.475 427.731 405.867 428.817 408.99C429.406 410.711 428.953 413.11 430.13 415.057C433.707 420.942 444.436 424.111 454.396 423.749C459.828 423.522 474.179 420.942 478.253 418.542C480.426 417.275 484.501 412.838 484.32 409.443C484.048 403.105 475.809 404.599 473.953 399.031Z" fill="url(#paint25_linear_38_1489)"/>
<path fill-rule="evenodd" clip-rule="evenodd" d="M135.777 425.514C136.547 422.255 159.635 425.243 159.635 429C159.545 435.338 139.671 425.605 135.777 425.514Z" fill="url(#paint26_linear_38_1489)"/>
<path fill-rule="evenodd" clip-rule="evenodd" d="M141.389 436.334C136.092 437.828 130.977 434.976 126.223 433.754C121.243 432.486 115.675 432.395 111.918 429.408C111.827 428.91 112.008 428.638 112.37 428.547C121.017 430.404 139.307 426.42 141.389 436.334Z" fill="url(#paint27_linear_38_1489)"/>
<path fill-rule="evenodd" clip-rule="evenodd" d="M113.232 438.507C110.923 442.763 103.272 439.548 99.3789 438.96C99.3789 438.507 99.3789 438.1 99.3789 437.647C103.182 437.013 110.606 436.47 113.232 438.507Z" fill="url(#paint28_linear_38_1489)"/>
<path fill-rule="evenodd" clip-rule="evenodd" d="M257.601 459.739C253.662 460.237 250.267 457.114 246.781 455.393C236.821 450.594 223.24 447.607 215.996 439.367C215.861 438.688 216.404 438.643 216.449 438.054C216.811 437.964 216.902 437.602 217.309 437.602C229.759 439.865 240.397 446.837 249.814 453.22C252.666 455.167 256.378 456.706 257.601 459.739Z" fill="url(#paint29_linear_38_1489)"/>
<path fill-rule="evenodd" clip-rule="evenodd" d="M215.951 455.846C210.88 460.509 205.855 451.59 200.332 451.092C200.332 450.64 200.332 450.232 200.332 449.78C206.489 449.146 212.238 452.632 215.951 455.846Z" fill="url(#paint30_linear_38_1489)"/>
<path fill-rule="evenodd" clip-rule="evenodd" d="M193.857 462.772C191.276 466.349 185.12 462.772 183.037 460.599C185.21 458.019 191.276 461.55 193.857 462.772Z" fill="url(#paint31_linear_38_1489)"/>
<path fill-rule="evenodd" clip-rule="evenodd" d="M317.451 523.934C313.738 524.432 310.388 521.534 307.038 520.04C303.552 518.456 300.067 517.279 296.626 515.694C290.197 512.797 282.139 509.492 279.287 503.109C287.572 501.615 294.996 508.27 301.832 512.661C307.672 516.373 313.92 519.135 317.451 523.934Z" fill="url(#paint32_linear_38_1489)"/>
<path fill-rule="evenodd" clip-rule="evenodd" d="M294.909 530C287.394 528.144 280.739 525.382 277.117 519.588C277.479 519.361 277.842 519.135 278.43 519.135C281.69 520.086 284.723 522.168 287.53 523.888C290.019 525.473 294.23 526.469 294.909 530Z" fill="url(#paint33_linear_38_1489)"/>
<path fill-rule="evenodd" clip-rule="evenodd" d="M835.985 397.763C845.809 389.886 854.41 380.741 864.596 372.638C867.629 370.193 871.025 365.983 875.869 366.979C878.766 372.773 871.251 374.856 868.942 378.251C869.078 379.7 870.21 380.153 869.802 382.145C862.061 394.096 851.105 402.743 842.911 414.242C848.751 411.209 853.686 405.912 859.39 401.656C865.049 397.491 870.889 392.466 878.449 390.837C883.248 395.228 874.601 403.015 870.662 407.315C867.131 411.209 860.386 416.053 858.937 419.448C857.489 422.934 859.299 425.65 856.764 428.547C860.205 427.235 863.147 421.621 867.584 419.855C868.444 422.934 865.275 425.152 863.691 427.235C858.756 433.708 853.686 441.088 848.932 448.059C848.027 448.874 846.714 449.327 845.446 449.78C840.829 455.438 841.01 465.851 832.001 467.118C832.589 458.562 837.932 451.092 841.961 444.573C831.458 441.993 841.734 430.404 845.854 425.062C850.155 419.538 854.184 415.509 857.126 412.069C842.64 423.024 825.256 434.795 819.416 455.846C824.305 453.084 828.243 445.615 835.034 443.261C834.898 448.376 831.367 452.36 827.655 456.706C824.26 460.69 810.497 473.411 812.036 457.566C812.715 450.549 818.329 444.121 820.276 438.507C816.835 438.507 816.428 445.343 810.724 444.573C812.127 439.186 815.432 435.7 817.243 430.72C808.777 434.976 801.398 449.599 798.591 461.505C797.821 464.855 798.229 468.522 795.558 468.884C789.265 469.744 792.977 457.838 794.245 455.031C786.277 460.056 780.935 471.51 769.527 474.543C764.094 467.345 780.618 457.43 781.66 450.278C777.404 453.039 773.375 457.702 769.074 462.003C765.09 465.987 761.423 472.551 754.768 471.962C752.958 467.571 757.439 464.312 759.522 461.55C761.966 458.381 764.456 455.031 766.901 451.998C771.926 445.796 778.038 440.137 780.754 432.486C773.33 438.688 766.177 448.286 758.662 456.344C756.443 458.743 753.637 463.27 749.562 462.003C749.064 457.068 753.41 453.311 756.081 449.87C764.23 439.277 773.873 429.045 782.112 418.226C768.984 430.72 755.81 446.837 743.541 461.595C742.228 461.595 740.961 461.595 739.648 461.595C738.833 462.954 739.331 465.579 737.475 465.941C735.166 467.798 733.717 465.308 731.409 465.489C728.375 465.76 727.017 468.114 724.029 467.209C721.313 466.394 722.671 463.814 720.996 462.003C719.593 460.509 717.556 461.822 716.65 459.83C715.926 459.105 716.288 457.295 716.197 455.937C713.843 456.797 711.535 457.611 707.958 457.249C706.509 456.118 704.925 455.076 705.378 452.043C703.703 453.582 701.032 454.624 698.859 456.797C697.048 458.653 697.184 460.826 694.513 461.143C691.661 461.46 687.269 457.068 684.1 455.076C672.466 447.742 663.864 440.046 651.143 433.391C643.628 429.453 633.94 424.201 627.285 418.633C621.354 413.699 620.494 406.184 630.771 404.78C635.751 404.101 645.393 404.961 652.003 405.64C656.53 406.138 661.374 408.13 665.856 406.953C672.466 405.188 680.071 396.586 674.548 389.162C671.877 385.54 658.613 379.972 652.863 378.342C637.607 373.996 625.067 377.572 616.012 384.861C610.489 395.454 596.591 396.631 581.335 393.1C572.054 390.927 562.955 382.371 553.584 377.074C549.736 374.901 544.439 371.823 539.731 368.835C535.385 366.073 529.409 361.41 525.878 361.048C524.112 360.867 522.437 361.999 520.672 362.361C513.202 363.855 506.683 365.394 499.439 367.567C485.722 371.642 473.092 373.95 458.695 379.292C455.979 380.288 452.448 381.103 448.736 382.326C447.151 382.869 440.632 385.042 440.496 387.079C440.361 389.66 445.295 391.335 447.876 391.833C454.757 393.236 465.124 392.874 466.075 399.212C461.457 399.981 456.703 397.129 451.769 396.179C446.699 395.228 441.402 395.183 437.463 392.693C430.356 380.696 446.291 378.976 456.115 376.667C460.461 375.626 465.531 372.864 470.873 371.008C484.409 366.345 505.008 362.814 517.276 357.562C506.954 346.833 491.517 340.178 478.253 331.124C469.153 324.877 459.556 317.362 446.155 317.271C445.793 316.683 439.138 314.917 436.603 315.098C429.993 315.551 427.006 320.802 422.75 324.65C420.532 326.597 417.861 328.227 415.371 330.717C410.527 335.561 405.185 340.857 395.859 341.129C392.192 341.219 387.937 340.224 383.726 339.409C380.195 338.73 375.94 338.458 373.314 335.923C382.232 336.602 394.727 336.059 402.785 335.063C407.403 330.943 414.239 328.544 418.811 323.79C421.392 321.119 422.343 316.954 425.331 314.691C433.117 308.67 443.394 310.797 456.568 312.11C464.671 316.999 473.544 321.164 481.693 326.416C489.57 331.531 498.353 336.285 505.551 342.034C509.173 344.932 511.617 348.101 515.103 350.274C518.815 352.628 522.845 353.76 527.236 355.933C530.45 357.517 534.026 360.958 537.648 361.139C539.459 361.229 543.398 359.056 546.34 358.106C566.576 351.496 585.907 344.117 604.016 336.013C597.587 330.083 590.48 322.115 598.809 313.921C603.88 308.941 619.046 302.332 632.174 303.101C637.471 303.418 642.451 306.089 645.62 308.307C648.925 310.616 652.818 316.049 655.579 316.547C661.691 317.633 675.318 308.715 679.845 306.587C683.602 304.822 687.496 302.739 691.57 300.973C695.735 299.117 700.443 298.393 704.155 296.627C710.086 293.821 716.198 290.154 722.807 287.075C722.354 282.956 718.461 284.178 715.428 283.182C706.917 280.33 700.036 271.683 691.162 265.843C687.631 263.534 682.742 261.723 678.577 259.777C674.141 257.694 670.066 254.525 666.445 253.258C662.778 251.99 651.46 249.183 651.686 244.158C651.867 240.355 659.201 238.861 664.679 237.639C670.111 236.462 676.585 234.108 679.845 233.293C685.685 231.89 696.459 231.165 701.077 230.713C708.049 230.034 717.012 228.449 717.556 222.926C717.872 219.757 714.16 215.592 712.349 214.234C709.271 211.97 703.974 211.382 697.591 209.481C686.771 206.221 673.733 202.645 663.773 209.933C658.477 213.781 654.221 223.967 648.608 228.132C647.838 228.721 643.085 231.709 641.229 232.026C632.491 233.519 623.301 226.004 618.231 222.473C610.761 217.267 607.139 214.098 598.719 209.481C599.67 222.428 596.546 241.034 596.546 253.258C596.546 255.385 596.591 258.192 597.406 259.777C599.851 264.394 608.226 262.765 612.164 266.703C610.806 268.967 606.415 268.152 603.472 268.876C603.789 271.185 607.411 270.144 606.505 273.63C602.703 274.037 600.711 271.547 600.847 269.284C595.867 268.876 591.566 270.506 588.261 268.424C586.767 254.118 583.915 237.73 583.508 222.021C583.146 220.074 585.545 220.889 584.821 218.535C579.524 211.97 584.006 195.673 573.095 194.677C569.745 213.374 560.51 227.861 553.131 244.973C551.365 249.093 548.513 255.069 548.785 258.419C549.192 263.489 554.534 263.67 555.711 268.378C554.036 270.008 551.365 268.74 548.785 268.831C552.407 271.004 555.757 273.132 560.057 275.757C562.774 277.387 570.243 280.058 569.61 283.997C568.795 288.841 563.634 284.902 561.37 283.137C555.802 278.791 550.369 275.214 544.484 271.411C541.813 269.691 537.92 267.971 537.105 264.485C539.187 263.308 539.912 265.617 542.311 265.345C540.546 260.003 535.158 254.661 541.451 250.587C542.945 242.845 544.484 235.104 544.937 226.321C550.596 217.675 554.398 207.172 554.896 193.364C547.608 196.035 539.912 198.932 531.899 201.603C524.248 204.139 515.511 205.18 509.806 210.295C513.338 213.102 517.503 215.32 521.939 217.222C525.742 223.831 519.313 232.569 515.013 236.734C502.563 248.685 469.153 252.76 466.437 233.701C464.49 231.165 461.547 230.713 456.477 231.12C440.451 232.342 424.606 238.726 408.807 243.705C397.262 247.327 386.035 251.628 374.536 254.525C370.779 255.476 366.116 254.933 363.264 258.011C370.326 262.855 380.105 267.744 391.015 274.943C400.25 281.009 414.511 282.774 420.079 290.561C423.203 294.952 420.396 298.665 417.499 301.834C412.971 306.723 404.325 307.266 394.093 307.447C396.448 301.2 406.317 305.048 411.432 301.834C414.375 299.977 413.922 297.306 416.186 294.454C396.131 281.507 373.495 273.766 354.617 259.777C342.62 259.596 330.986 265.843 320.347 268.876C309.98 271.864 300.065 274.218 288.702 276.255C303.506 267.473 322.701 263.127 338.546 255.431C338.772 253.937 339.723 253.122 340.266 251.945C335.694 249.274 330.94 246.739 325.96 244.158C324.738 243.524 322.339 242.936 322.067 241.125C324.059 240.401 326.911 242.212 328.994 242.845C334.109 230.758 344.024 223.515 341.579 203.822C339.27 204.274 336.871 208.349 332.479 208.168C327.454 218.308 322.475 228.494 317.721 238.952C309.12 237.594 300.88 232.026 291.69 228.992C288.476 227.951 281.097 219.893 281.731 215.547C283.27 204.772 312.107 209.707 322.927 209.028C325.1 208.892 326.323 208.077 328.586 208.168C326.096 212.649 317.812 211.291 311.655 212.061C307.807 216.181 306.132 222.428 302.963 227.227C306.63 230.622 311.61 232.75 315.956 235.466C321.614 225.688 326.187 214.777 331.574 204.682C336.373 202.554 341.488 200.698 342.847 195.13C338.908 189.697 335.739 185.215 329.854 181.684C323.833 178.108 314.869 178.334 305.996 177.338C300.337 176.704 293.184 174.939 288.204 176.885C283.27 178.832 278.788 182.589 274.351 185.985C270.005 189.335 265.614 194.677 261.766 195.944C257.194 197.484 251.173 198.253 247.008 197.665C236.641 196.261 226.681 186.03 217.083 179.013C212.556 175.708 207.893 172.041 203.23 168.601C198.658 165.251 193.724 160.678 189.377 158.641C182.225 155.246 168.643 161.946 162.939 164.3C155.198 167.469 147.638 169.37 138.674 169.506C140.53 167.243 144.016 166.745 146.913 165.613C154.7 162.489 165.384 158.279 173.804 156.061C176.792 155.291 182.542 153.254 185.529 153.48C189.649 153.752 196.213 159.501 200.695 163.032C211.017 171.136 219.664 175.663 229.759 183.404C237.682 189.516 243.974 198.932 256.65 192.957C260.091 191.327 263.622 187.977 267.47 184.717C271.273 181.458 275.71 178.741 277.883 176.478C279.693 174.576 279.92 171.905 282.636 170.412C280.372 166.835 278.652 164.481 279.15 157.826C279.92 147.369 285.352 135.643 289.97 125.729C294.859 115.362 302.284 107.077 309.482 102.731C310.84 102.822 312.651 102.46 313.375 103.184C312.968 103.501 310.659 103.003 309.889 104.044C303.325 111.333 299.296 121.473 295.131 131.343C291.192 140.804 285.669 151.669 287.344 163.44C292.007 166.111 294.271 159.999 296.896 157.373C301.423 152.801 305.453 150.13 308.622 144.788C314.054 135.643 318.355 122.696 324.24 112.691C327.137 107.756 329.854 101.735 335.513 100.105C336.237 102.369 338.817 100.785 340.719 102.278C341.036 109.522 336.69 115.633 333.792 121.338C330.85 127.178 327.59 132.882 324.24 138.269C324.24 140.578 324.24 142.887 324.24 145.196C331.755 130.482 339.361 115.815 347.645 101.826C346.106 101.192 344.431 100.739 343.752 99.2453C343.435 95.4426 344.748 93.2696 345.925 91.006C341.941 92.002 336.011 101.871 329.899 96.6649C332.072 86.66 337.369 79.824 344.205 74.5726C341.488 80.7747 337.142 85.3924 335.105 92.3641C343.661 88.4708 350.271 78.9186 358.963 73.7124C357.65 71.4036 353.259 72.1732 353.304 68.5062C360.05 70.7698 368.063 74.3462 375.396 78.0584C377.615 79.1902 380.014 81.4538 381.916 81.9518C382.911 82.2234 383.998 81.5896 384.949 81.9518C387.529 82.9477 389.159 85.664 391.875 85.8451C394.365 86.0262 399.254 83.5362 402.695 82.3592C413.651 78.6922 423.746 75.3875 433.027 71.0867C443.122 66.3785 452.312 63.5264 463.811 60.2669C466.935 59.3615 471.1 56.5999 474.223 59.4067C470.511 64.296 462.498 64.9751 456.024 67.1934C440.496 72.5806 423.656 78.6923 408.354 84.0795C405.23 85.2113 401.427 84.7133 399.254 87.5654C402.016 93.2243 408.942 95.2615 414.42 97.9777C420.079 100.785 425.331 104.18 430.446 107.077C434.928 115.452 450.999 115.679 456.024 123.556C459.058 128.355 456.93 134.602 451.678 135.689C449.324 136.187 446.427 135.462 444.299 135.689C438.64 136.277 431.895 138.405 424.787 139.174C417.453 139.989 410.391 140.985 405.728 143.068C404.687 147.142 400.386 147.369 400.522 151.307C400.658 154.884 406.045 154.612 405.275 157.826C404.687 160.271 402.378 159.501 400.069 158.686C400.069 161.267 400.069 163.893 400.069 166.473C403.419 165.07 405.638 158.732 409.621 156.513C410.844 157.192 408.671 158.143 408.761 159.094C418.585 163.711 440.089 165.251 453.851 160.814C459.374 159.049 463.087 153.571 467.704 150.854C473.906 147.187 486.13 144.154 491.97 151.715C492.06 153.797 487.759 152.711 490.249 154.748C491.472 156.106 494.641 152.711 495.456 150.854C506.864 153.707 516.28 160.271 525.787 165.613C535.385 170.955 545.525 175.165 554.398 181.639C555.621 176.568 555.892 168.555 556.572 161.674C554.308 161.946 554.308 164.888 551.818 165.16C549.826 165.341 547.789 163.938 547.065 161.674C549.011 160.361 550.143 162.806 552.271 161.674C554.806 160.226 553.719 158.415 553.991 156.015C555.349 154.521 557.386 157.419 557.477 155.563C557.341 153.435 551.818 156.332 549.69 154.25C548.649 156.106 549.917 160.271 546.657 159.909C544.937 153.571 548.151 147.731 548.83 142.117C549.283 138.178 548.83 133.832 549.283 129.532C549.917 122.967 551.501 115.181 552.316 109.16C553.719 98.8379 559.74 94.2202 567.074 90.1006C567.708 87.7012 568.342 85.3018 570.108 84.0342C564.901 80.5936 564.63 74.482 567.074 68.8684C568.387 65.8805 580.203 57.2337 584.006 60.6291C582.829 69.0495 586.496 73.9388 586.586 83.1741C586.677 84.9849 584.504 84.5775 583.553 85.3471C585.59 86.5242 585.952 89.2857 587.039 91.4134C599.534 93.6317 600.077 107.847 605.691 116.992C607.456 116.946 611.576 114.547 612.21 117.444C611.44 118.531 608.588 117.897 607.004 119.165C610.082 126.815 614.654 132.927 618.276 139.989C626.878 142.298 639.78 143.611 644.307 149.949C649.875 157.826 642.089 161.357 635.207 164.255C623.844 169.053 608.543 173.309 599.217 179.013C598.357 186.664 597.225 195.854 598.357 204.139C611.259 212.016 622.441 221.658 637.833 227.136C641.093 225.552 645.937 225.371 648.653 222.79C651.731 219.893 652.501 214.143 655.579 210.658C668.708 195.673 696.867 203.459 711.489 209.345C715.835 213.645 721.675 218.852 719.729 227.996C706.6 240.174 674.593 233.474 659.02 243.162C662.596 246.874 667.667 248.821 672.466 251.402C677.038 253.846 681.61 257.558 686.318 259.188C691.298 260.954 695.011 261.271 698.904 263.534C702.163 265.436 704.608 268.695 708.456 270.913C711.761 272.815 715.881 273.041 719.276 274.807C723.35 276.934 726.7 280.783 731.409 281.733C760.065 273.132 787.907 263.67 817.695 256.155C823.037 261.044 833.993 260.365 837.207 267.428C837.479 279.289 853.776 280.601 867.992 281.733C872.247 282.095 876.548 283.906 879.717 283.906C886.824 283.906 892.483 279.379 896.648 277.84C900.904 270.642 897.689 264.847 891.442 263.082C890.582 262.855 889.224 263.489 887.956 263.082C885.783 262.357 883.021 259.913 879.717 259.596C876.955 259.369 874.058 260.501 871.477 260.456C863.781 260.365 853.143 256.925 854.138 248.731C854.863 242.71 864.551 238.816 870.617 236.598C891.759 228.766 912.312 221.568 933.046 214.053C912.81 201.06 890.174 190.467 871.025 176.342C874.148 175.527 877.408 177.61 880.124 178.923C894.385 185.94 909.098 194.858 923.041 202.78C928.745 205.995 934.54 208.847 939.52 212.74C948.484 210.431 955.772 204.139 965.551 204.048C961.159 211.201 949.434 211.02 940.833 214.008C945.224 215.683 949.842 217.131 952.558 220.527C949.389 224.692 943.956 219.621 941.285 217.946C913.081 222.247 893.298 235.013 867.992 242.212C866.86 245.426 864.958 247.825 862.785 249.998C868.535 253.756 880.532 251.311 884.017 257.377C894.113 256.246 904.389 262.946 903.982 272.996C903.575 282.458 894.43 283.499 887.956 287.754C869.712 290.878 849.883 291.059 836.8 283.001C833.857 281.19 830.1 277.025 828.56 273.449C827.791 271.638 828.108 269.51 827.247 267.79C825.12 263.67 819.28 262.267 815.522 259.55C804.612 264.53 793.521 271.14 780.845 274.716C768.078 278.338 756.172 282.774 745.714 289.022C752.912 295.315 762.464 297.94 770.84 303.328C775.14 306.134 778.853 310.299 783.425 312.88C786.368 314.51 790.035 315.143 792.977 316.773C796.056 318.493 803.571 323.156 803.39 327.185C803.163 333.206 795.06 332.346 787.771 333.252C782.746 333.886 775.322 336.375 767.807 337.145C759.975 337.96 752.369 338.82 747.842 341.038C744.899 342.487 740.553 346.788 740.463 349.278C740.282 355.842 750.196 355.933 751.735 361.863C750.06 363.719 746.529 362.18 744.809 361.41C740.01 365.032 738.38 373.543 740.055 382.235C744.13 378.342 748.385 372.457 753.048 367.477C754.542 365.892 755.583 363.357 757.802 362.723C758.028 360.505 758.164 363.855 759.522 363.176C768.984 365.304 776.68 363.583 785.553 362.316C801.126 360.098 808.052 353.171 816.337 344.117C816.518 346.607 819.416 344.253 821.543 344.117C833.993 343.211 850.472 352.854 858.847 357.11C859.888 357.381 860.839 357.743 862.333 357.562C864.46 361.501 870.527 361.501 871.885 366.254C868.671 368.518 864.823 365.711 862.333 364.534C858.168 366.164 856.402 370.148 853.233 372.773C853.957 374.132 853.957 374.584 853.686 376.259C847.846 383.322 841.87 390.52 835.985 397.763ZM578.437 74.3009C577.396 74.0746 577.532 72.6259 575.857 72.9881C575.495 74.2104 574.454 74.7536 574.544 76.474C576.4 78.3753 578.347 80.1862 578.89 83.4005C581.108 83.7626 582.059 82.8119 584.096 82.9477C585.998 78.149 583.553 71.7658 580.203 69.5022C579.479 71.0414 580.112 73.8482 578.437 74.3009ZM350.362 93.4054C357.288 90.1006 359.416 81.9518 364.215 76.5192C362.902 75.976 361.951 75.0253 360.729 74.3462C358.873 82.2234 352.806 85.9809 350.362 93.4054ZM581.878 87.7465C581.063 87.3843 580.294 87.0221 579.298 86.8863C578.754 88.335 581.516 88.6519 581.878 87.7465ZM352.987 126.77C361 113.551 369.557 100.83 379.426 89.4668C377.977 89.4668 377.932 88.0634 376.392 88.1539C369.33 101.509 357.786 112.646 352.987 126.77ZM606.189 121.111C602.612 114.366 599.624 105.221 595.776 99.4264C591.113 92.4547 581.244 89.331 570.198 90.3269C565.128 93.179 562.366 98.3852 557.205 101.147C552.316 114.004 552.407 131.931 549.826 147.097C550.641 147.278 551.682 147.233 551.546 148.41C551.501 150.402 548.966 147.867 549.373 149.723C550.46 150.673 552.633 152.303 554.58 151.035C554.715 149.315 551.546 150.9 552.407 148.455C553.493 148.229 555.032 148.455 554.987 147.142C556.979 140.668 556.436 133.153 558.02 126.77C558.337 125.457 559.242 124.688 559.333 123.284C559.605 118.078 555.983 112.736 558.473 107.666C563.498 116.675 560.284 131.478 563.226 142.796C564.539 142.479 564.811 143.249 565.807 143.249C566.576 143.249 564.992 141.076 566.667 141.076C574.408 140.125 578.392 133.153 586.179 133.697C583.191 139.808 574.227 139.944 568.387 143.249C569.655 143.747 571.33 143.792 571.42 145.422C568.84 147.369 564.132 143.656 562.728 145.875C565.309 148.183 572.1 146.327 573.548 149.768C579.343 150.085 584.368 150.356 588.714 148.455C584.549 147.776 578.437 151.126 576.129 148.002C581.652 146.418 586.858 144.562 593.467 144.109C595.097 132.112 590.842 123.963 589.121 116.358C588.759 114.773 589.121 113.234 588.669 112.012C587.673 109.25 583.87 107.847 584.775 104.633C592.698 110.291 595.188 121.383 600.394 129.758C605.057 133.923 608.316 139.491 611.666 144.924C613.523 144.788 614.745 143.928 616.012 143.204C613.839 136.005 610.127 128.536 606.189 121.111ZM374.219 117.671C370.236 124.688 366.795 132.791 362.087 138.903C357.469 144.879 350.86 149.949 346.921 156.694C344.838 160.226 344.114 164.3 342.575 168.42C357.424 152.801 367.972 129.441 381.146 111.197C385.039 105.81 389.249 104.18 386.352 96.4385C382.64 103.772 378.249 110.563 374.219 117.671ZM603.563 135.87C601.254 132.972 599.896 129.124 596.636 127.178C595.459 133.289 600.62 135.326 603.563 135.87ZM599.262 169.687C611.848 164.526 624.659 159.546 636.973 154.069C638.331 153.48 638.422 153.978 640.006 154.069C640.776 150.402 636.52 149.542 633.94 148.41C629.911 146.689 625.519 144.833 620.494 144.516C619.589 147.142 624.569 149.179 623.075 152.303C620.766 151.896 620.494 149.36 619.589 147.55C617.642 148.319 615.831 149.315 614.835 151.035C614.609 152.801 616.782 155.019 614.835 155.789C613.568 155.155 612.798 154.069 611.802 153.209C613.387 150.311 610.852 148.953 609.222 146.282C606.189 141.302 601.888 140.035 597.089 138.495C597.225 149.451 599.307 158.505 599.262 169.687ZM342.575 144.969C343.254 143.023 345.472 140.352 345.155 138.903C344.567 140.895 341.398 142.66 342.575 144.969ZM613.568 146.735C614.202 147.414 615.786 147.097 617.054 147.187C617.054 146.599 617.054 146.01 617.054 145.467C615.877 145.875 614.111 145.694 613.568 146.735ZM590.117 148.455C591.521 149.089 594.509 148.455 593.151 146.735C592.969 148.138 590.842 147.595 590.117 148.455ZM334.788 158.415C338.274 156.966 339.723 151.217 340.447 148.455C337.369 150.628 336.599 155.065 334.788 158.415ZM512.115 163.621C507.814 159.365 500.118 156.287 494.776 154.521C494.822 155.246 494.46 155.653 493.916 155.834C494.188 157.736 495.546 158.415 495.637 160.18C495.818 163.44 492.06 165.251 491.291 168.872C490.521 172.494 491.97 175.437 492.603 179.285C498.308 174.576 501.658 156.106 512.115 163.621ZM400.25 171.407C399.3 176.749 402.197 183.223 401.563 190.059C405.502 183.54 412.383 177.61 417.589 172.268C418.721 171.091 421.437 167.741 421.075 166.609C416.322 164.888 411.432 163.213 407.63 160.542C406.452 164.798 401.11 166.518 400.25 171.407ZM494.324 203.097C494.324 203.55 494.55 204.184 494.776 203.55C503.876 192.911 510.304 174.803 524.248 169.732C522.165 167.152 518.815 165.93 515.556 164.526C506.049 174.893 501.612 190.421 494.324 203.097ZM423.203 167.107C422.886 167.514 423.022 167.922 422.75 168.42C415.507 181.277 400.16 191.055 401.518 212.197C413.967 198.208 425.285 183.042 436.648 167.967C432.076 168.51 427.323 168.148 423.203 167.107ZM439.274 167.967C430.627 180.235 420.713 193.545 411.07 206.13C405.321 213.645 398.621 219.214 402.378 232.161C411.432 223.107 416.457 209.481 423.61 197.891C430.808 186.211 441.266 177.338 449.641 167.559C445.838 167.288 442.669 167.786 439.274 167.967ZM421.03 215.637C428.454 206.447 435.969 195.944 444.028 186.573C448.102 181.865 453.172 178.741 452.72 171.407C442.352 186.121 429.858 200.924 421.03 215.637ZM523.795 182.68C522.392 182.318 522.437 183.359 521.622 183.54C518.906 190.24 513.745 196.759 512.07 203.052C518.001 194.541 523.343 185.396 529.409 177.021C526.014 172.992 524.474 179.058 523.795 182.68ZM443.167 198.751C445.884 194.269 450.094 191.191 451.859 185.758C448.464 189.335 444.797 194.858 443.167 198.751ZM535.928 194.858C539.595 194.043 540.727 190.693 542.447 187.931C541.904 187.886 541.858 187.388 541.134 187.479C539.504 190.014 537.512 192.232 535.928 194.858ZM573.684 191.825C575.404 192.685 577.17 193.545 578.89 194.405C579.071 191.779 578.754 189.606 578.437 187.479C575.223 187.071 574.091 188.52 573.684 191.825ZM444.028 208.711C446.88 205.18 450.23 202.192 451.814 197.438C448.509 199.928 445.25 206.991 444.028 208.711ZM409.35 241.668C415.778 230.169 424.878 219.033 430.582 208.303C423.565 219.169 411.749 227.589 409.35 241.668ZM296.625 213.057C295.448 215.637 294.135 218.082 293.139 220.844C296.444 222.021 298.39 224.556 301.831 225.597C303.189 220.436 306.358 217.086 307.897 212.152C304.049 212.378 300.156 212.514 296.625 213.057ZM287.073 214.777C287.48 217.539 289.019 219.169 291.419 219.983C291.826 217.358 293.411 215.909 293.999 213.464C291.328 213.555 289.2 214.143 287.073 214.777ZM507.317 219.531C508.81 218.897 510.848 218.761 511.663 217.358C510.033 216.679 508.765 215.592 506.909 215.185C506.637 217.041 507.226 218.082 507.317 219.531ZM507.769 222.564C507.588 224.058 507.95 225.009 508.222 226.05C511.753 225.506 513.745 223.469 516.914 222.564C515.646 216.588 510.983 221.206 507.769 222.564ZM451.814 223.017C452.086 222.111 454.304 220.934 453.127 219.983C453.036 221.07 450.954 222.383 451.814 223.017ZM331.755 243.389C334.29 244.747 337.097 245.878 339.994 246.874C340.447 241.216 340.945 230.803 340.855 224.782C337.867 231.03 334.471 236.915 331.755 243.389ZM452.267 226.502C452.855 226.502 453.444 226.502 453.987 226.502C453.987 225.914 453.987 225.325 453.987 224.782C452.629 224.556 452.765 225.823 452.267 226.502ZM508.629 230.803C511.391 229.355 517.05 228.494 516.416 225.144C514.379 227.634 509.942 227.634 508.629 230.803ZM720.227 316.683C730.639 314.193 728.647 299.389 729.779 287.618C729.236 287.573 729.19 287.075 728.466 287.166C724.21 295.541 722.943 306.813 720.227 316.683ZM711.987 320.576C712.802 319.942 713.889 319.58 715.02 319.263C717.148 307.945 721.358 298.71 724.98 288.931C725.433 288.886 725.342 288.388 724.527 288.479C716.424 293.458 714.115 309.666 711.987 320.576ZM698.949 325.329C701.53 324.877 703.34 323.654 705.468 322.749C707.732 312.02 713.255 302.196 716.288 293.685C703.612 297.307 703.748 313.785 698.949 325.329ZM692.023 305.817C689.488 314.147 685.458 323.247 684.643 331.848C687.224 330.4 690.438 329.54 692.883 327.955C695.463 318.81 699.538 308.896 701.982 301.064C698.632 302.648 695.599 304.505 692.023 305.817ZM611.802 330.128C618.819 323.564 622.034 313.197 627.828 305.41C614.881 305.999 615.243 319.942 611.802 330.128ZM631.767 307.99C626.968 314.328 623.437 321.889 620.494 330.083C625.203 328.136 626.968 322.704 629.594 318.81C632.446 314.555 635.207 310.526 638.693 307.085C636.837 306.315 633.804 304.459 631.314 305.772C632.265 305.772 631.54 307.357 631.767 307.99ZM678.17 312.336C674.186 320.485 671.515 329.947 668.21 338.775C671.696 337.643 674.276 335.606 677.762 334.429C679.981 324.922 684.779 315.687 687.314 307.99C684.236 309.484 681.384 311.114 678.17 312.336ZM603.155 327.502C603.382 329.042 601.616 328.589 601.843 330.083C603.789 331.033 604.151 333.569 607.049 333.569C607.592 324.605 611.168 317.769 614.428 312.336C615.152 311.114 616.963 309.801 616.148 308.443C606.506 309.484 603.11 316.773 603.155 327.502ZM633.08 328.362C636.973 322.704 639.191 315.37 645.212 311.884C644.035 311.069 643.085 309.982 641.726 309.303C638.874 315.415 634.257 322.07 633.08 328.362ZM599.262 324.922C600.032 321.029 602.658 316.773 603.155 314.102C600.303 315.868 597.587 320.078 599.262 324.922ZM663.411 318.403C660.831 325.918 658.25 333.478 656.032 341.401C657.753 342.487 660.695 341.582 662.098 340.948C664.588 330.988 670.609 322.296 673.371 314.057C670.338 315.822 666.671 316.909 663.411 318.403ZM754.904 317.09C757.032 317.18 756.896 314.555 754.904 314.51C754.904 315.37 754.904 316.23 754.904 317.09ZM645.62 320.576C646.661 319.58 648.2 316.818 646.933 314.917C646.933 316.954 644.533 318.856 645.62 320.576ZM655.625 329.675C656.394 326.371 659.609 323.247 659.111 320.123C655.851 320.938 654.991 326.461 655.625 329.675ZM599.67 366.526C603.02 358.875 609.584 349.821 606.596 338.775C602.069 345.52 600.62 357.653 599.67 366.526ZM596.229 342.668C592.109 350.953 590.797 362.089 587.99 371.732C590.299 371.415 591.838 370.374 593.649 369.559C594.871 358.604 597.904 349.549 601.888 341.355C601.843 340.812 601.752 340.314 601.028 340.495C599.67 341.536 597.904 342.034 596.229 342.668ZM581.471 349.64C582.24 349.595 582.467 350.093 582.331 350.953C578.211 357.653 576.762 369.378 575.812 377.844C577.758 376.486 580.52 375.897 582.331 374.358C583.734 363.176 589.257 353.805 591.43 344.886C588.397 346.743 584.413 347.648 581.471 349.64ZM564.539 355.254C562.955 361.637 560.872 367.477 560.646 375.218C563.453 376.531 565.852 382.824 568.885 381.284C571.104 380.153 572.235 369.242 573.639 365.258C575.948 358.604 577.849 354.076 579.705 350.5C579.66 350.228 579.66 350.002 579.252 350.047C575.314 352.718 569.428 353.488 564.539 355.254ZM830.326 359.147C832.997 357.336 835.442 355.299 837.252 352.628C833.676 351.903 832.816 357.427 830.326 359.147ZM839.425 360.46C841.01 358.604 843.771 357.879 844.632 355.254C843.817 355.344 843.681 354.756 842.911 354.801C842.096 356.793 839.335 359.056 839.425 360.46ZM561.099 356.114C558.382 357.698 554.715 358.377 551.999 360.007C551.999 362.859 550.369 364.172 550.686 367.386C552.814 368.88 554.625 370.691 556.753 372.14C557.386 366.571 562.095 360.505 561.099 356.114ZM705.921 364.806C707.053 362.723 709.316 359.554 708.954 357.426C707.641 359.328 704.925 362.089 705.921 364.806ZM739.738 363.493C741.504 363.085 742.047 361.456 742.772 360.007C741.595 359.735 741.685 358.196 740.191 358.287C740.146 360.188 740.282 362.18 739.738 363.493ZM846.805 366.073C847.438 366.571 847.484 367.703 848.117 368.246C850.653 365.756 853.414 363.402 855.497 360.46C853.822 359.962 852.735 358.875 851.151 358.287C850.653 361.863 847.936 363.176 846.805 366.073ZM545.48 364.806C546.295 365.168 547.065 365.53 548.061 365.666C548.423 363.855 549.238 362.497 549.781 360.912C547.291 361.093 546.069 362.633 545.48 364.806ZM800.854 373.905C804.702 369.65 808.913 365.802 812.58 361.32C806.694 363.267 802.122 368.835 800.854 373.905ZM800.854 378.251C800.628 378.523 796.146 384.001 799.542 380.832C804.023 374.811 811.131 371.189 814.3 364.353C810.542 368.02 804.702 373.996 800.854 378.251ZM757.485 364.806C752.414 373.045 745.895 379.79 740.553 387.803C740.553 392.149 740.553 396.495 740.553 400.796C750.604 390.746 759.296 379.338 769.165 369.152C767.716 369.152 767.671 370.555 766.132 370.465C766.358 369.333 768.531 369.016 767.444 367.884C764.004 366.933 761.831 364.806 757.485 364.806ZM791.302 374.765C787.771 378.568 784.104 380.153 786.096 386.038C789.356 379.292 793.973 373.996 798.229 368.246C795.693 368.88 794.064 371.777 791.302 374.765ZM812.987 369.559C805.517 377.029 798.093 384.453 791.302 392.104C788.993 394.73 785.326 397.673 786.096 402.064C794.833 392.285 806.785 382.009 814.3 369.559C814.209 369.242 814.3 368.699 813.847 368.699C813.847 369.288 813.078 369.106 812.987 369.559ZM772.651 369.559C765.226 377.934 755.945 388.799 747.933 398.623C745.669 401.385 741.006 406.002 740.553 408.583C739.693 413.653 741.911 419.267 740.553 425.062C749.064 415.555 758.662 403.694 768.757 393.417C771.292 390.791 777.676 385.178 778.309 382.597C779.396 378.206 776.363 373.498 778.309 369.604C776.408 369.559 774.552 369.559 772.651 369.559ZM785.236 370.012C785.281 371.868 786.096 373.181 785.236 374.765C787.454 374.856 789.446 371.234 791.302 369.559C789.129 369.514 787.726 370.329 785.236 370.012ZM689.442 383.005C690.121 381.918 692.883 380.696 691.615 379.111C691.298 380.56 688.808 382.054 689.442 383.005ZM746.212 429.815C743.858 432.577 739.014 436.334 741.006 440.635C752.777 424.111 767.671 410.62 780.482 395.092C779.758 393.191 779.487 390.882 779.17 388.573C766.72 400.842 754.135 415.283 744.492 428.91C753.229 419.855 762.012 408.538 771.383 401.611C763.461 410.982 754.18 420.58 746.212 429.815ZM790.895 423.341C798.998 413.246 808.596 404.644 816.02 393.87C815.93 393.553 815.658 393.372 815.16 393.417C807.69 403.739 795.739 411.842 790.895 423.341ZM792.615 428.955C790.216 431.807 786.322 434.025 786.096 438.054C790.261 432.848 795.377 427.868 800.854 422.028C805.925 416.596 816.337 409.669 816.02 401.204C808.098 410.167 800.175 419.991 792.615 428.955ZM771.383 419.403C775.095 415.147 781.297 409.76 781.795 404.644C781.705 404.327 781.433 404.146 780.935 404.192C772.017 412.748 759.975 425.65 750.604 436.289C745.941 441.586 739.422 446.248 741.911 454.941C750.785 442.989 761.061 431.218 771.383 419.403ZM666.897 410.756C662.506 417.049 658.205 423.477 653.904 429.815C656.53 431.535 658.975 433.391 662.144 434.568C665.584 431.173 667.35 426.782 670.383 422.436C673.778 417.547 679.981 412.974 679.935 405.55C679.89 405.278 679.89 405.052 679.483 405.097C675.227 406.953 671.786 409.579 666.897 410.756ZM784.376 416.822C786.82 413.201 791.529 409.534 792.162 405.55C790.216 409.624 784.331 412.114 784.376 416.822ZM628.281 410.756C628.055 413.427 629.639 414.287 630.861 415.509C632.084 413.11 633.985 411.39 635.207 408.99C632.22 408.9 630.001 409.534 628.281 410.756ZM637.38 409.036C635.796 411.797 633.397 413.744 632.174 416.822C635.615 417.999 637.924 420.308 641.274 421.576C643.628 417.411 646.752 414.061 649.06 409.85C644.533 410.258 641.817 408.764 637.38 409.036ZM658.205 410.303C647.566 408.13 647.566 417.818 643.039 422.889C646.073 424.609 648.743 426.737 652.139 428.095C655.444 422.436 659.699 417.728 662.959 412.069C660.423 413.201 659.563 411.526 658.205 410.303ZM819.506 418.135C819.506 418.995 819.506 419.855 819.506 420.716C823.173 418.452 827.429 414.468 829.058 411.616C825.98 413.925 823.49 416.777 819.506 418.135ZM665.132 436.334C667.803 436.696 668.98 438.552 671.651 438.915C674.322 435.248 676.812 431.354 679.437 427.642C679.437 423.115 679.03 418.361 678.985 415.057C674.231 421.983 669.07 428.547 665.132 436.334ZM785.236 446.746C794.154 438.19 801.534 428.095 809.954 418.995C801.307 427.823 791.981 436.017 785.236 446.746ZM813.44 426.782C815.07 426.827 816.292 424.201 815.16 422.889C814.888 424.518 813.53 425.016 813.44 426.782ZM847.665 434.161C851.196 432.758 853.55 427.914 854.184 425.062C852.101 428.185 849.566 430.856 847.665 434.161ZM674.684 440.227C676.495 440.454 677.219 441.767 679.03 441.948C679.437 440.092 680.297 434.387 678.577 433.256C677.717 436.062 675.408 437.33 674.684 440.227ZM792.162 448.919C794.471 445.434 799.949 442.808 799.949 438.507C797.867 442.174 793.113 445.524 792.162 448.919Z" fill="url(#paint34_linear_38_1489)"/>
<path fill-rule="evenodd" clip-rule="evenodd" d="M270.596 122.017C265.389 125.322 264.212 133.651 261.496 141.076C257.829 151.262 252.759 163.485 257.15 175.346C249.454 176.931 248.73 169.144 249.363 161.04C250.224 149.587 256.29 136.368 262.356 128.083C264.665 124.959 267.246 121.021 271.048 121.564C270.958 122.062 271.139 122.334 271.501 122.424C271.32 123.058 270.731 122.469 270.596 122.017Z" fill="url(#paint35_linear_38_1489)"/>
<path fill-rule="evenodd" clip-rule="evenodd" d="M332.167 292.372C335.743 294.59 332.71 298.574 332.619 301.924C332.484 306.134 334.928 310.797 333.932 315.777C333.117 316.728 332.665 317.995 330.446 317.497C332.71 324.333 343.394 322.749 343.439 331.803C345.703 332.211 347.695 333.75 349.505 335.696C349.415 339.046 351.18 342.08 349.053 344.796C350.682 350.002 355.391 356.929 352.086 362.995C350.094 363.719 345.431 363.719 343.394 362.995C341.764 372.592 344.345 381.013 345.114 391.606C346.427 409.941 344.254 431.535 344.254 450.549C344.254 455.665 344.571 462.501 345.114 467.028C346.291 476.761 342.172 489.98 345.567 494.779C349.098 499.804 358.56 498.446 362.046 502.158C359.827 506.912 351.135 505.101 345.567 506.504C344.752 508.225 349.324 508.225 348.6 511.258C344.435 511.62 340.723 506.052 336.015 506.912C332.302 501.253 321.392 502.747 320.396 494.326C326.553 492.561 329.767 497.36 333.842 499.08C331.85 481.832 328.681 463.995 326.055 446.611C324.516 436.56 325.059 427.325 320.396 420.58C312.7 439.367 315.597 468.703 309.576 489.075C310.663 494.01 314.964 492.968 317.363 496.454C317.77 498.854 316.276 499.397 315.643 500.8C320.758 503.245 325.421 506.731 329.948 509.9C334.385 513.023 339.365 515.921 342.534 520.312C338.912 520.584 335.607 518.003 332.574 516.419C323.293 511.575 313.605 506.278 304.37 501.253C301.518 501.525 299.753 500.664 298.304 499.533C297.987 466.53 298.757 432.848 298.757 401.566C298.757 394.232 301.065 386.943 301.337 379.881C301.563 374.494 299.571 368.156 300.477 362.542C291.875 360.324 295.995 343.664 298.304 337.417C295.406 326.687 309.576 322.613 315.235 316.185C312.836 309.982 309.395 301.788 314.782 297.125C319.129 293.413 326.96 295.631 332.167 292.372ZM324.787 307.583C322.886 308.217 323.656 306.134 322.207 306.27C321.573 310.526 325.104 314.283 329.586 314.962C330.763 310.707 331.216 302.467 327.413 300.657C326.146 302.513 326.462 306.044 324.787 307.583ZM319.174 316.683C316.412 322.613 309.803 324.65 304.415 327.955C302.605 330.762 301.925 334.7 300.069 337.507C303.057 350.862 306.09 364.127 307.449 379.111C307.086 380.786 304.597 380.334 304.415 382.145C308.399 385.087 317.137 383.322 320.034 387.351C320.396 389.433 318.676 389.479 317.861 390.384C323.293 390.837 327.368 390.837 330.446 388.211C327.73 387.622 322.343 389.705 322.207 386.491C327.956 384.725 335.064 384.318 339.546 381.284C338.505 371.37 338.867 360.777 339.999 350.047C338.505 347.829 335.562 336.692 339.138 335.289C342.534 342.804 342.488 351.179 343.032 361.32C344.933 360.641 347.921 361.003 349.098 359.6C346.925 355.389 348.6 347.376 344.752 344.841C345.748 343.891 344.39 343.347 344.752 341.808C343.665 341.853 342.67 341.899 342.579 340.948C341.583 335.832 340.768 330.626 338.233 327.095C337.011 327.004 337.373 328.544 335.653 327.955C334.475 321.164 324.561 323.156 320.487 319.263C320.215 317.543 323.475 319.354 323.067 317.543C321.935 317.09 320.939 316.501 319.174 316.683ZM303.103 405.55C303.284 405.007 303.646 404.644 304.415 404.69C304.099 403.422 303.736 402.2 302.695 401.656C302.967 402.834 302.152 405.097 303.103 405.55ZM305.728 412.069C305.276 410.484 306.724 407.044 304.868 406.863C305.321 408.402 303.872 411.888 305.728 412.069Z" fill="url(#paint36_linear_38_1489)"/>
<path fill-rule="evenodd" clip-rule="evenodd" d="M196.488 246.875C198.254 247.418 196.398 251.266 196.035 252.533C197.212 255.295 199.974 257.061 200.789 260.32C201.151 261.814 200.336 263.67 200.789 265.074C202.056 269.103 205.18 268.469 208.168 271.14C207.398 274.082 202.554 270.37 202.509 274.173C202.781 275.667 205.271 274.897 205.09 276.753C204.365 281.507 200.291 282.91 200.744 288.886C205.633 286.125 207.353 276.437 212.469 272.407C210.024 266.613 206.221 259.867 205.95 253.348C208.802 253.756 209.979 257.921 211.609 260.727C213.057 263.263 215.955 266.341 216.362 268.514C217.268 273.268 213.555 274.943 213.329 279.787C209.979 285.083 205.316 289.112 201.196 293.64C200.834 300.204 203.731 306.904 204.682 313.151C205.361 317.769 204.229 323.337 204.229 328.77C204.275 338.096 206.991 347.512 205.09 355.661C204.275 356.612 203.777 357.789 202.917 358.694C203.777 373.453 201.785 386.943 202.917 399.031C203.777 408.402 214.778 410.846 222.881 414.649C219.667 417.23 212.514 415.872 207.263 416.37C206.357 416.958 208.847 419.357 207.263 420.716C202.735 422.164 197.891 419.131 193.41 417.682C188.566 416.143 183.722 414.876 179.104 413.336C182.092 409.488 189.652 413.744 194.722 413.336C197.212 402.969 192.776 394.141 190.829 382.099C189.29 372.547 187.389 365.44 186.936 355.208C186.845 352.809 187.298 350.228 186.936 347.829C185.895 340.857 181.73 334.519 181.73 327.865C175.663 336.828 176.976 353.171 170.91 362.135C168.058 377.21 164.255 391.335 161.358 406.365C163.802 410.982 167.288 414.604 170.05 418.95C175.075 419.81 186.257 419.493 186.076 424.156C185.849 430.358 163.395 421.847 160.045 421.576C155.925 421.214 152.122 421.938 150.945 418.995C151.715 414.876 153.209 411.435 155.699 409.036C155.291 408.266 153.933 408.492 154.386 406.863C155.382 385.721 150.493 354.801 160.452 339.228C157.464 328.996 158.415 317.86 157.872 306.27C157.645 301.064 161.222 296.175 160.905 291.965C160.543 287.573 154.703 285.989 156.559 281.552C159.502 282.231 159.954 285.4 162.218 286.758C164.889 278.202 154.386 271.864 154.431 267.699C154.476 264.394 160.498 262.04 163.123 259.007C163.983 258.011 163.576 256.879 165.296 256.427C168.827 259.686 170.05 266.341 169.19 272.045C168.692 275.441 170.865 279.832 168.329 282.005C162.852 278.881 168.375 268.876 165.296 262.946C162.399 263.534 161.041 265.662 158.37 266.432C160.633 272.272 164.119 276.844 165.296 283.77C169.144 283.408 176.252 290.425 172.223 293.73C170.276 292.508 170.819 288.796 167.877 288.524C166.066 288.614 166.519 290.923 164.391 290.697C165.432 292.961 168.51 293.232 170.457 294.59C169.823 296.763 167.967 296.944 169.597 299.344C172.675 298.982 177.791 299.57 182.182 298.891C179.376 296.899 173.49 298.031 171.363 295.405C172.223 292.87 174.803 294.5 177.021 294.545C182.363 294.636 188.294 294.228 193.5 294.545C191.146 290.199 195.266 288.071 196.081 285.446C198.254 278.7 194.406 269.057 198.661 264.213C197.937 261.271 193.545 255.431 193.455 251.628C193.41 250.043 193.727 247.01 196.488 246.875ZM200.381 274.626C200.472 272.86 201.875 272.362 202.102 270.732C200.879 270.642 201.558 268.65 199.929 269.012C200.019 270.687 198.48 273.811 200.381 274.626ZM196.896 301.517C197.484 301.517 198.073 301.517 198.616 301.517C198.389 300.883 199.114 299.253 198.163 299.344C198.073 300.34 196.714 300.113 196.896 301.517ZM183.903 304.957C179.33 312.382 170.955 318.312 169.144 327.05C174.124 322.07 178.108 315.008 182.997 310.118C185.804 307.357 191.644 303.599 191.237 301.019C188.747 301.698 185.668 301.788 183.45 302.739C184.401 302.739 183.676 304.324 183.903 304.957ZM168.284 313.649C169.552 311.114 174.215 307.493 173.49 305.863C171.815 308.172 167.922 310.662 168.284 313.649ZM189.969 323.609C191.916 318.584 199.566 314.736 197.756 308.851C195.175 313.468 190.014 317.905 189.969 323.609ZM199.069 361.32C199.204 358.83 200.291 355.57 197.756 354.801C198.797 356.385 197.393 360.415 199.069 361.32Z" fill="url(#paint37_linear_38_1489)"/>
<defs>
<linearGradient id="paint0_linear_38_1489" x1="638.401" y1="0.0872498" x2="638.401" y2="58.3475" gradientUnits="userSpaceOnUse">
<stop stop-color="#1F2645"/>
<stop offset="1" stop-color="#BEA6D5"/>
</linearGradient>
<linearGradient id="paint1_linear_38_1489" x1="536.507" y1="20.9716" x2="536.507" y2="89.4776" gradientUnits="userSpaceOnUse">
<stop stop-color="#1F2645"/>
<stop offset="1" stop-color="#BEA6D5"/>
</linearGradient>
<linearGradient id="paint2_linear_38_1489" x1="743.994" y1="58.6824" x2="743.994" y2="129.58" gradientUnits="userSpaceOnUse">
<stop stop-color="#1F2645"/>
<stop offset="1" stop-color="#BEA6D5"/>
</linearGradient>
<linearGradient id="paint3_linear_38_1489" x1="486.966" y1="59.9953" x2="486.966" y2="70.4076" gradientUnits="userSpaceOnUse">
<stop stop-color="#1F2645"/>
<stop offset="1" stop-color="#BEA6D5"/>
</linearGradient>
<linearGradient id="paint4_linear_38_1489" x1="817.538" y1="88.9614" x2="817.538" y2="95.1257" gradientUnits="userSpaceOnUse">
<stop stop-color="#1F2645"/>
<stop offset="1" stop-color="#BEA6D5"/>
</linearGradient>
<linearGradient id="paint5_linear_38_1489" x1="567.634" y1="106.806" x2="567.634" y2="116.358" gradientUnits="userSpaceOnUse">
<stop stop-color="#1F2645"/>
<stop offset="1" stop-color="#BEA6D5"/>
</linearGradient>
<linearGradient id="paint6_linear_38_1489" x1="649.081" y1="115.266" x2="649.081" y2="141.205" gradientUnits="userSpaceOnUse">
<stop stop-color="#1F2645"/>
<stop offset="1" stop-color="#BEA6D5"/>
</linearGradient>
<linearGradient id="paint7_linear_38_1489" x1="702.891" y1="126.317" x2="702.891" y2="145.532" gradientUnits="userSpaceOnUse">
<stop stop-color="#1F2645"/>
<stop offset="1" stop-color="#BEA6D5"/>
</linearGradient>
<linearGradient id="paint8_linear_38_1489" x1="812.763" y1="129.351" x2="812.763" y2="156.708" gradientUnits="userSpaceOnUse">
<stop stop-color="#1F2645"/>
<stop offset="1" stop-color="#BEA6D5"/>
</linearGradient>
<linearGradient id="paint9_linear_38_1489" x1="617.31" y1="154.929" x2="617.31" y2="159.682" gradientUnits="userSpaceOnUse">
<stop stop-color="#1F2645"/>
<stop offset="1" stop-color="#BEA6D5"/>
</linearGradient>
<linearGradient id="paint10_linear_38_1489" x1="804.125" y1="157.557" x2="804.125" y2="177.112" gradientUnits="userSpaceOnUse">
<stop stop-color="#1F2645"/>
<stop offset="1" stop-color="#BEA6D5"/>
</linearGradient>
<linearGradient id="paint11_linear_38_1489" x1="835.987" y1="173.22" x2="835.987" y2="196.331" gradientUnits="userSpaceOnUse">
<stop stop-color="#1F2645"/>
<stop offset="1" stop-color="#BEA6D5"/>
</linearGradient>
<linearGradient id="paint12_linear_38_1489" x1="788.9" y1="177.473" x2="788.9" y2="196.731" gradientUnits="userSpaceOnUse">
<stop stop-color="#1F2645"/>
<stop offset="1" stop-color="#BEA6D5"/>
</linearGradient>
<linearGradient id="paint13_linear_38_1489" x1="121.194" y1="178.603" x2="121.194" y2="230.125" gradientUnits="userSpaceOnUse">
<stop stop-color="#1F2645"/>
<stop offset="1" stop-color="#BEA6D5"/>
</linearGradient>
<linearGradient id="paint14_linear_38_1489" x1="53.3568" y1="199.541" x2="53.3568" y2="228.315" gradientUnits="userSpaceOnUse">
<stop stop-color="#1F2645"/>
<stop offset="1" stop-color="#BEA6D5"/>
</linearGradient>
<linearGradient id="paint15_linear_38_1489" x1="175.566" y1="206.479" x2="175.566" y2="283.725" gradientUnits="userSpaceOnUse">
<stop stop-color="#1F2645"/>
<stop offset="1" stop-color="#BEA6D5"/>
</linearGradient>
<linearGradient id="paint16_linear_38_1489" x1="258.14" y1="225.19" x2="258.14" y2="460.69" gradientUnits="userSpaceOnUse">
<stop stop-color="#1F2645"/>
<stop offset="1" stop-color="#BEA6D5"/>
</linearGradient>
<linearGradient id="paint17_linear_38_1489" x1="571.716" y1="267.201" x2="571.716" y2="280.817" gradientUnits="userSpaceOnUse">
<stop stop-color="#1F2645"/>
<stop offset="1" stop-color="#BEA6D5"/>
</linearGradient>
<linearGradient id="paint18_linear_38_1489" x1="541.792" y1="268.061" x2="541.792" y2="285.385" gradientUnits="userSpaceOnUse">
<stop stop-color="#1F2645"/>
<stop offset="1" stop-color="#BEA6D5"/>
</linearGradient>
<linearGradient id="paint19_linear_38_1489" x1="584.279" y1="269.419" x2="584.279" y2="277.417" gradientUnits="userSpaceOnUse">
<stop stop-color="#1F2645"/>
<stop offset="1" stop-color="#BEA6D5"/>
</linearGradient>
<linearGradient id="paint20_linear_38_1489" x1="595.745" y1="270.28" x2="595.745" y2="276.817" gradientUnits="userSpaceOnUse">
<stop stop-color="#1F2645"/>
<stop offset="1" stop-color="#BEA6D5"/>
</linearGradient>
<linearGradient id="paint21_linear_38_1489" x1="529.003" y1="274.58" x2="529.003" y2="283.499" gradientUnits="userSpaceOnUse">
<stop stop-color="#1F2645"/>
<stop offset="1" stop-color="#BEA6D5"/>
</linearGradient>
<linearGradient id="paint22_linear_38_1489" x1="519.247" y1="278.266" x2="519.247" y2="283.937" gradientUnits="userSpaceOnUse">
<stop stop-color="#1F2645"/>
<stop offset="1" stop-color="#BEA6D5"/>
</linearGradient>
<linearGradient id="paint23_linear_38_1489" x1="508.836" y1="279.615" x2="508.836" y2="283.987" gradientUnits="userSpaceOnUse">
<stop stop-color="#1F2645"/>
<stop offset="1" stop-color="#BEA6D5"/>
</linearGradient>
<linearGradient id="paint24_linear_38_1489" x1="371.156" y1="307.824" x2="371.156" y2="333.135" gradientUnits="userSpaceOnUse">
<stop stop-color="#1F2645"/>
<stop offset="1" stop-color="#BEA6D5"/>
</linearGradient>
<linearGradient id="paint25_linear_38_1489" x1="420.491" y1="395.718" x2="420.491" y2="427.201" gradientUnits="userSpaceOnUse">
<stop stop-color="#1F2645"/>
<stop offset="1" stop-color="#BEA6D5"/>
</linearGradient>
<linearGradient id="paint26_linear_38_1489" x1="147.706" y1="424.12" x2="147.706" y2="431.143" gradientUnits="userSpaceOnUse">
<stop stop-color="#1F2645"/>
<stop offset="1" stop-color="#BEA6D5"/>
</linearGradient>
<linearGradient id="paint27_linear_38_1489" x1="126.642" y1="428.547" x2="126.642" y2="436.757" gradientUnits="userSpaceOnUse">
<stop stop-color="#1F2645"/>
<stop offset="1" stop-color="#BEA6D5"/>
</linearGradient>
<linearGradient id="paint28_linear_38_1489" x1="106.305" y1="437.072" x2="106.305" y2="440.677" gradientUnits="userSpaceOnUse">
<stop stop-color="#1F2645"/>
<stop offset="1" stop-color="#BEA6D5"/>
</linearGradient>
<linearGradient id="paint29_linear_38_1489" x1="236.788" y1="437.602" x2="236.788" y2="459.792" gradientUnits="userSpaceOnUse">
<stop stop-color="#1F2645"/>
<stop offset="1" stop-color="#BEA6D5"/>
</linearGradient>
<linearGradient id="paint30_linear_38_1489" x1="208.141" y1="449.704" x2="208.141" y2="457.191" gradientUnits="userSpaceOnUse">
<stop stop-color="#1F2645"/>
<stop offset="1" stop-color="#BEA6D5"/>
</linearGradient>
<linearGradient id="paint31_linear_38_1489" x1="188.447" y1="459.678" x2="188.447" y2="464.291" gradientUnits="userSpaceOnUse">
<stop stop-color="#1F2645"/>
<stop offset="1" stop-color="#BEA6D5"/>
</linearGradient>
<linearGradient id="paint32_linear_38_1489" x1="298.369" y1="502.895" x2="298.369" y2="523.991" gradientUnits="userSpaceOnUse">
<stop stop-color="#1F2645"/>
<stop offset="1" stop-color="#BEA6D5"/>
</linearGradient>
<linearGradient id="paint33_linear_38_1489" x1="286.013" y1="519.135" x2="286.013" y2="530" gradientUnits="userSpaceOnUse">
<stop stop-color="#1F2645"/>
<stop offset="1" stop-color="#BEA6D5"/>
</linearGradient>
<linearGradient id="paint34_linear_38_1489" x1="552.112" y1="58.1795" x2="552.112" y2="474.543" gradientUnits="userSpaceOnUse">
<stop stop-color="#1F2645"/>
<stop offset="1" stop-color="#BEA6D5"/>
</linearGradient>
<linearGradient id="paint35_linear_38_1489" x1="260.343" y1="121.513" x2="260.343" y2="175.553" gradientUnits="userSpaceOnUse">
<stop stop-color="#1F2645"/>
<stop offset="1" stop-color="#BEA6D5"/>
</linearGradient>
<linearGradient id="paint36_linear_38_1489" x1="328.657" y1="292.372" x2="328.657" y2="520.332" gradientUnits="userSpaceOnUse">
<stop stop-color="#1F2645"/>
<stop offset="1" stop-color="#BEA6D5"/>
</linearGradient>
<linearGradient id="paint37_linear_38_1489" x1="186.913" y1="246.875" x2="186.913" y2="426.414" gradientUnits="userSpaceOnUse">
<stop stop-color="#1F2645"/>
<stop offset="1" stop-color="#BEA6D5"/>
</linearGradient>
</defs>
</svg>
