<svg xmlns="http://www.w3.org/2000/svg" width="62" height="62" fill="none"><g clip-path="url(#a)"><path fill="url(#b)" d="M47.469 46.5a2.91 2.91 0 0 0 2.906-2.906 2.91 2.91 0 0 0-2.906-2.907 2.91 2.91 0 0 0-2.907 2.907A2.91 2.91 0 0 0 47.47 46.5m0-3.875a.97.97 0 0 1 0 1.938.97.97 0 0 1 0-1.938M58.74 14.316a7.77 7.77 0 0 0 2.29-5.528c0-4.311-3.508-7.82-7.818-7.82a7.77 7.77 0 0 0-5.53 2.29l-11.198 11.2a17.2 17.2 0 0 0-4.57-.853c-1.336-2.335-3.848-3.918-6.727-3.918-.738 0-1.449.11-2.126.304-1.672-3.144-4.92-5.147-8.53-5.147-5.342 0-9.688 4.346-9.688 9.687 0 .742.09 1.473.256 2.188A5.82 5.82 0 0 0 .97 22.28a5.82 5.82 0 0 0 5.812 5.813h7.028c-.161.958-.246 1.93-.246 2.906 0 2.132.394 3.867 1.03 5.35l-8.642 8.643-4.809 12.502a2.606 2.606 0 0 0 3.363 3.362l12.503-4.808 6.32-6.32a3 3 0 0 0-.078.646c0 .747.292 1.422.756 1.938a2.88 2.88 0 0 0-.756 1.937c0 1.347.925 2.472 2.17 2.8A5.91 5.91 0 0 0 31 61.03a5.91 5.91 0 0 0 5.58-3.981 2.9 2.9 0 0 0 2.17-2.8c0-.073-.017-.14-.021-.211l1.203 1.203 1.411-1.41c.534-.535 1.331-.691 2.073-.382.696.29 1.147.962 1.147 1.715v1.991h5.812v-1.99c0-.754.45-1.427 1.184-1.73a1.86 1.86 0 0 1 2.036.395l1.41 1.411 4.112-4.111-1.41-1.41c-.533-.536-.69-1.335-.38-2.075A1.85 1.85 0 0 1 59.04 46.5h1.99v-5.812h-1.99c-.754 0-1.427-.451-1.73-1.184a1.86 1.86 0 0 1 .395-2.038l1.41-1.41-4.111-4.111-1.412 1.41c-.534.535-1.334.69-2.074.38a1.85 1.85 0 0 1-1.144-1.713v-1.99h-1.987a17.2 17.2 0 0 0-.858-4.504zM43.96 19.412l4.478-4.48 3.474 3.474-5.174 5.174a17.6 17.6 0 0 0-2.778-4.168m1.005-10.693L46.5 7.182l8.318 8.318-1.537 1.536zm8.249-5.813a5.89 5.89 0 0 1 5.88 5.882c0 1.57-.61 3.047-1.722 4.158l-1.184 1.184-8.317-8.317 1.184-1.184a5.85 5.85 0 0 1 4.158-1.723m-9.62 7.183 3.475 3.473-4.477 4.477a17.6 17.6 0 0 0-4.166-2.781zM46.5 31c0 5.04-2.538 7.517-5.225 10.137-1.85 1.805-3.751 3.67-4.858 6.39a3 3 0 0 0-.573-.058h-3.875v-4.844a2.91 2.91 0 0 0-2.907-2.906h-1.937a.97.97 0 0 1 0-1.938h9.688a2.91 2.91 0 0 0 2.906-2.906 2.91 2.91 0 0 0-2.907-2.906h-7.75a.97.97 0 0 1-.968-.969v-2.906h4.843a4.85 4.85 0 0 0 4.844-4.844 4.85 4.85 0 0 0-4.843-4.844c-.028 0-.053.008-.08.008.042-.324.08-.647.08-.977 0-.633-.086-1.246-.23-1.836C40.433 16.46 46.5 23.089 46.5 31m-3.705 11.36c1.057-1.032 2.116-2.086 3.03-3.305a4.8 4.8 0 0 1 1.644-.305 4.85 4.85 0 0 1 4.843 4.844 4.85 4.85 0 0 1-4.843 4.843 4.85 4.85 0 0 1-4.844-4.843c0-.42.065-.832.17-1.234m-17.607 8.015a.97.97 0 0 1 .968-.969h9.688a.97.97 0 0 1 0 1.938h-9.688a.97.97 0 0 1-.968-.969m-12.193 0 7.121-7.121c1.192 1.182 2.298 2.377 3.114 3.833l-6.761 6.762zM2.906 22.281a3.88 3.88 0 0 1 3.875-3.875 3.88 3.88 0 0 1 3.875 3.875h1.938c0-3.121-2.475-5.669-5.565-5.8a7.7 7.7 0 0 1-.248-1.95c0-4.273 3.477-7.75 7.75-7.75a7.73 7.73 0 0 1 6.751 3.973 7.76 7.76 0 0 0-3.796 5.837c-1.692.416-2.955 1.934-2.955 3.753h1.938a1.94 1.94 0 0 1 1.937-1.938 1.94 1.94 0 0 1 1.938 1.938h1.937c0-1.778-1.209-3.263-2.843-3.718.397-2.821 2.82-5.001 5.75-5.001A5.82 5.82 0 0 1 31 17.438c0 .51-.083 1.008-.213 1.494-1.589.796-2.693 2.423-2.693 4.318h1.937a2.91 2.91 0 0 1 2.907-2.906 2.91 2.91 0 0 1 2.906 2.906 2.91 2.91 0 0 1-2.907 2.906H6.782a3.88 3.88 0 0 1-3.875-3.875m23.25 5.813V31a2.91 2.91 0 0 0 2.907 2.906h7.75a.97.97 0 0 1 0 1.938h-9.688a2.91 2.91 0 0 0-2.906 2.906 2.91 2.91 0 0 0 2.906 2.906h1.938a.97.97 0 0 1 .968.969v4.844h-3.875q-.295 0-.573.058c-1.107-2.72-3.007-4.585-4.858-6.39C18.038 38.517 15.5 36.04 15.5 31c0-.98.117-1.95.298-2.906zm-7.423 13.804-7.108 7.107-3.474-3.474 7.392-7.391c.91 1.428 2.037 2.62 3.19 3.758M7.15 47.27l7.58 7.58-6.417 2.468-3.631-3.63zM3.811 59.05c-.42.162-.905-.172-.905-.622q.001-.124.044-.238l.97-2.525 2.414 2.413zM31 59.093a3.98 3.98 0 0 1-3.414-1.938h6.828A3.98 3.98 0 0 1 31 59.094m4.844-3.875h-9.688a.97.97 0 0 1 0-1.938h9.688a.97.97 0 0 1 0 1.938m14.968-19.68a3.78 3.78 0 0 0 4.153-.813l.04-.04 1.372 1.37-.04.042c-1.091 1.091-1.41 2.722-.802 4.183a3.78 3.78 0 0 0 3.506 2.344h.053v1.938h-.053c-1.542 0-2.917.92-3.518 2.375a3.79 3.79 0 0 0 .814 4.152l.04.04-1.371 1.372-.041-.04c-1.093-1.093-2.724-1.414-4.184-.802a3.78 3.78 0 0 0-2.343 3.506v.053H46.5v-.053c0-1.542-.92-2.917-2.375-3.519a3.79 3.79 0 0 0-4.153.815l-.041.04-1.313-1.312c.078-.26.132-.53.132-.815 0-.688-.25-1.312-.651-1.81.603-1.627 1.547-2.928 2.647-4.13.416 3.343 3.27 5.94 6.723 5.94a6.79 6.79 0 0 0 6.781-6.781 6.79 6.79 0 0 0-6.781-6.782c-.095 0-.187.01-.281.014.656-1.361 1.106-2.94 1.22-4.857h.03v.053c0 1.541.92 2.917 2.374 3.518"/></g><defs><linearGradient id="b" x1="31" x2="31" y1="61.031" y2=".969" gradientUnits="userSpaceOnUse"><stop stop-color="#6582FD"/><stop offset="1" stop-color="#E13E91"/></linearGradient><clipPath id="a"><path fill="#fff" d="M0 0h62v62H0z"/></clipPath></defs></svg>