<svg xmlns="http://www.w3.org/2000/svg" width="63" height="63" fill="none"><path fill="url(#a)" d="M24.61 35.438v-2.954h1.968v-1.968h1.969v2.15a2.95 2.95 0 0 1 1.969 2.772h-1.97a.985.985 0 0 0-.983-.985h-.985v.984c0 .544.441.985.985.985a2.957 2.957 0 0 1 2.953 2.953v2.953h-1.97v1.969h-1.968v-2.15a2.95 2.95 0 0 1-1.969-2.772h1.97c0 .543.44.984.983.984h.985v-.984a.985.985 0 0 0-.985-.984 2.957 2.957 0 0 1-2.953-2.953M.983 58.078h1.97V56.11H.983zm5.907-1.969H4.92v1.97h1.97zm3.937 1.97v-1.97H8.86v1.97zm-5.906-7.876H2.953v1.969h1.969zM8.64 15.535c-2.228-1.392-3.718-3.86-3.718-6.676 0-4.342 3.533-7.875 7.875-7.875s7.875 3.533 7.875 7.875c0 2.816-1.49 5.284-3.718 6.676a11.8 11.8 0 0 1 3.755 2.298c2.242-.718 4.542-1.099 6.854-1.099 11.941 0 21.656 9.274 21.656 20.672 0 4.83-1.75 9.274-4.668 12.797h4.668v-3.708l12.74 7.646-12.74 7.645v-3.708H12.797V56.11h14.766c10.855 0 19.687-8.39 19.687-18.703s-8.832-18.703-19.687-18.703a20.4 20.4 0 0 0-5.376.737 11.8 11.8 0 0 1 1.888 3.623 14.8 14.8 0 0 1 3.488-.422c8.141 0 14.765 6.624 14.765 14.765s-6.624 14.766-14.766 14.766H6.892v-1.969h3.673c-3.013-3.634-4.658-8.098-4.658-12.797 0-1.664.217-3.313.628-4.922H.984v-5.906c0-5.049 3.19-9.355 7.656-11.043m34.058 36.637a21.8 21.8 0 0 1-5.923 3.937h14.413v2.198l6.946-4.166-6.946-4.167v2.198zm-22.471-1.969c-4.433-2.55-7.43-7.326-7.43-12.797 0-1.687.293-3.336.861-4.922H8.581a17.8 17.8 0 0 0-.706 4.922c0 4.792 1.905 9.316 5.35 12.797zm4.262-25.214c.071.522.12 1.049.12 1.59v.423a10.7 10.7 0 0 1 2.953-.424c5.97 0 10.829 4.858 10.829 10.828s-4.858 10.828-10.828 10.828-10.829-4.858-10.829-10.828c0-1.732.41-3.404 1.193-4.922h-2.143c-.664 1.576-1.018 3.226-1.018 4.922 0 7.056 5.74 12.797 12.797 12.797 7.055 0 12.796-5.74 12.796-12.797 0-7.056-5.74-12.797-12.797-12.797a12.8 12.8 0 0 0-3.073.38m-4.273 7.495a8.75 8.75 0 0 0-1.513 4.922c0 4.886 3.974 8.86 8.86 8.86s8.859-3.974 8.859-8.86-3.974-8.86-8.86-8.86a8.8 8.8 0 0 0-2.953.52v3.418zm-7.222-15.74c-.066 0-.131-.01-.197-.01s-.131.01-.197.01l-1.678 7.551 1.875 1.876 1.874-1.876zm-.197-1.978a5.91 5.91 0 0 0 5.906-5.907 5.91 5.91 0 0 0-5.906-5.906A5.91 5.91 0 0 0 6.89 8.86a5.91 5.91 0 0 0 5.906 5.907M2.953 26.578v3.938h2.953v-5.907h1.969v5.907h9.844v-5.907h1.968v5.907h2.954v-3.938c0-4.644-3.237-8.538-7.571-9.568l1.758 7.913-4.031 4.031-4.032-4.03 1.758-7.914c-4.333 1.03-7.57 4.924-7.57 9.568M62.016 7.875v3.938a6.9 6.9 0 0 1-6.891 6.89H38.391V7.875a6.9 6.9 0 0 1 6.89-6.89h9.844a6.9 6.9 0 0 1 6.89 6.89m-1.97 0a4.93 4.93 0 0 0-4.921-4.922h-9.844a4.927 4.927 0 0 0-4.922 4.922v8.86h14.766a4.93 4.93 0 0 0 4.922-4.922zm-15.75-2.953h-1.968V6.89h1.969zm3.938 0h-1.968V6.89h1.968zm1.97 1.969h7.874V4.92h-7.875zm-7.876 3.937h15.75V8.86h-15.75zm0 3.938h15.75v-1.97h-15.75z"/><defs><linearGradient id="a" x1="31.5" x2="31.5" y1="61.786" y2=".984" gradientUnits="userSpaceOnUse"><stop stop-color="#6582FD"/><stop offset="1" stop-color="#E13E91"/></linearGradient></defs></svg>