<svg width="157" height="34" viewBox="0 0 157 34" fill="none" xmlns="http://www.w3.org/2000/svg">
<g clip-path="url(#clip0_43_1894)">
<path d="M0 8.07565H4.87418L4.9768 9.56733C5.0281 10.2875 4.87418 10.8018 4.92549 10.8018H4.9768C5.79771 9.05296 8.15784 7.56128 10.7745 7.56128C15.3922 7.56128 19.1376 11.1619 19.1376 17.0772C19.1376 23.0439 15.3922 26.5931 10.9284 26.5931C8.31176 26.5931 6.20817 25.3071 5.28464 23.8154H5.23333C5.23333 23.8154 5.33595 24.3298 5.33595 25.3071V34H0V8.07565ZM14.1095 17.0772C14.1095 14.1452 12.3137 12.0878 9.85098 12.0878C7.69608 12.0878 5.54118 13.7337 5.54118 17.0772C5.54118 20.3691 7.69608 22.0666 9.85098 22.0666C12.3137 22.0151 14.1095 20.0605 14.1095 17.0772Z" fill="#F0F2FA"/>
<path d="M25.55 0C27.3458 0 28.5259 1.13162 28.5259 2.93192C28.5259 4.68079 27.3458 5.81241 25.55 5.81241C23.703 5.81241 22.5742 4.62935 22.5742 2.93192C22.5742 1.13162 23.703 0 25.55 0ZM28.218 8.07564V26.0787H22.8308V8.07564H28.218Z" fill="#F0F2FA"/>
<path d="M43.6622 16.7171L49.973 26.0787H44.0727L40.4299 20.5749L36.8384 26.0272H30.8867L37.0436 17.18L31.0406 8.07565H37.0436L40.2759 13.5794L43.5596 8.07565H49.7165L43.6622 16.7171Z" fill="#F0F2FA"/>
<path d="M70.3427 17.0772C70.3427 22.5295 66.2894 26.5931 60.7482 26.5931C55.207 26.5931 51.2051 22.5809 51.2051 17.0772C51.2051 11.5734 55.207 7.56128 60.7482 7.56128C66.2894 7.56128 70.3427 11.5734 70.3427 17.0772ZM65.3146 17.0772C65.3146 14.0938 63.3136 12.0878 60.7995 12.0878C58.2342 12.0878 56.2845 14.0938 56.2845 17.0772C56.2845 20.0605 58.2342 22.0666 60.7995 22.0666C63.3136 22.0151 65.3146 20.0605 65.3146 17.0772Z" fill="#F0F2FA"/>
<path d="M78.9104 8.07564L79.0643 10.1331C79.1156 10.8018 78.9617 11.2133 78.9104 11.4191H78.9617C79.7313 9.77306 82.0914 7.6127 85.1186 7.6127C89.1718 7.6127 91.378 10.0817 91.378 14.8653V26.1301H85.9908V15.6883C85.9908 13.9395 85.4777 12.4478 83.528 12.4478C81.014 12.4478 79.3208 14.4024 79.3208 17.0772V26.0272H73.9336V8.0242H78.9104V8.07564Z" fill="#F0F2FA"/>
<path d="M98.7668 0C100.563 0 101.743 1.13162 101.743 2.93192C101.743 4.68079 100.563 5.81241 98.7668 5.81241C96.9198 5.81241 95.791 4.68079 95.791 2.93192C95.791 1.13162 96.9198 0 98.7668 0ZM101.435 8.07564V26.0787H96.0476V8.07564H101.435Z" fill="#F0F2FA"/>
<path d="M118.571 26.0787L118.417 24.0212C118.365 23.3525 118.468 22.941 118.571 22.7353H118.519C117.75 24.3813 115.39 26.5416 112.414 26.5416C108.361 26.5416 106.154 24.0726 106.154 19.289V8.07565H111.542V18.466C111.542 20.2663 112.055 21.7065 114.004 21.7065C116.467 21.7065 118.16 19.7519 118.16 17.0772V8.07565H123.496V26.0787H118.571Z" fill="#F0F2FA"/>
<path d="M133.398 8.07565L133.552 10.1331C133.603 10.8018 133.449 11.2133 133.398 11.4191H133.449C134.219 9.56733 136.22 8.02421 138.529 7.76703C139.093 7.66415 139.709 7.66415 140.273 7.71559C142.326 8.02421 143.967 9.1044 144.686 11.1619C146.071 9.05296 148.226 7.56128 150.689 7.56128C154.691 7.56128 156.897 10.0303 156.897 14.8139V26.0787H151.51V15.5855C151.51 13.8366 150.894 12.4478 149.149 12.4478C146.071 12.4478 145.301 15.2769 145.301 18.1573V26.0272H140.068V15.534C140.068 13.8366 139.555 12.4478 137.759 12.4478C134.732 12.4478 133.86 15.2254 133.86 18.1573V26.0272H128.473V8.02421H133.398V8.07565Z" fill="#F0F2FA"/>
</g>
<defs>
<clipPath id="clip0_43_1894">
<rect width="157" height="34" fill="white"/>
</clipPath>
</defs>
</svg>
